solid outlet_box
facet normal 0.000000 0.061589 0.000000
  outer loop
    vertex 2.199547 8.922047 2.695919
    vertex 2.199547 8.922047 2.490000
    vertex 1.900453 8.922047 2.490000
  endloop
endfacet
facet normal 0.000000 0.061589 0.000000
  outer loop
    vertex 2.199547 8.922047 2.695919
    vertex 1.900453 8.922047 2.490000
    vertex 1.900453 8.922047 2.695919
  endloop
endfacet
facet normal -0.061589 0.000000 0.000000
  outer loop
    vertex 1.900453 8.622953 2.490000
    vertex 1.900453 8.922047 2.695919
    vertex 1.900453 8.922047 2.490000
  endloop
endfacet
facet normal -0.061589 0.000000 0.000000
  outer loop
    vertex 1.900453 8.622953 2.490000
    vertex 1.900453 8.622953 2.695919
    vertex 1.900453 8.922047 2.695919
  endloop
endfacet
facet normal 0.000000 -0.061589 0.000000
  outer loop
    vertex 2.199547 8.622953 2.490000
    vertex 1.900453 8.622953 2.695919
    vertex 1.900453 8.622953 2.490000
  endloop
endfacet
facet normal 0.000000 -0.061589 0.000000
  outer loop
    vertex 2.199547 8.622953 2.490000
    vertex 2.199547 8.622953 2.695919
    vertex 1.900453 8.622953 2.695919
  endloop
endfacet
facet normal 0.061589 0.000000 0.000000
  outer loop
    vertex 2.199547 8.622953 2.695919
    vertex 2.199547 8.622953 2.490000
    vertex 2.199547 8.922047 2.490000
  endloop
endfacet
facet normal 0.061589 -0.000000 0.000000
  outer loop
    vertex 2.199547 8.622953 2.695919
    vertex 2.199547 8.922047 2.490000
    vertex 2.199547 8.922047 2.695919
  endloop
endfacet
endsolid outlet_box
