solid heater0_surface
facet normal -0.050401 -0.000005 -0.000000
  outer loop
    vertex 1.049913 9.569900 0.749900
    vertex 1.049905 9.649900 0.119900
    vertex 1.049913 9.569900 0.119900
  endloop
endfacet
facet normal -0.050401 -0.000005 0.000000
  outer loop
    vertex 1.049913 9.569900 0.749900
    vertex 1.049905 9.649900 0.749900
    vertex 1.049905 9.649900 0.119900
  endloop
endfacet
facet normal -0.050400 -0.000005 -0.000000
  outer loop
    vertex 3.050113 9.570100 0.749900
    vertex 3.050105 9.650100 0.119900
    vertex 3.050113 9.570100 0.119900
  endloop
endfacet
facet normal -0.050400 -0.000005 0.000000
  outer loop
    vertex 3.050113 9.570100 0.749900
    vertex 3.050105 9.650100 0.749900
    vertex 3.050105 9.650100 0.119900
  endloop
endfacet
facet normal 0.000126 -1.260126 0.000000
  outer loop
    vertex 1.049913 9.569900 0.119900
    vertex 3.050113 9.570100 0.119900
    vertex 3.050113 9.570100 0.749900
  endloop
endfacet
facet normal 0.000126 -1.260126 0.000000
  outer loop
    vertex 1.049913 9.569900 0.119900
    vertex 3.050113 9.570100 0.749900
    vertex 1.049913 9.569900 0.749900
  endloop
endfacet
facet normal 0.000126 -1.260126 0.000000
  outer loop
    vertex 1.049905 9.649900 0.119900
    vertex 3.050105 9.650100 0.119900
    vertex 3.050105 9.650100 0.749900
  endloop
endfacet
facet normal 0.000126 -1.260126 0.000000
  outer loop
    vertex 1.049905 9.649900 0.119900
    vertex 3.050105 9.650100 0.749900
    vertex 1.049905 9.649900 0.749900
  endloop
endfacet
endsolid heater0_surface
