solid heater0_porous_media
facet normal -9.650060 0.000000 0.000000
  outer loop
    vertex -0.927739 7.583625 1.119900
    vertex -0.927739 11.655380 -1.250100
    vertex -0.927739 7.583625 -1.250100
  endloop
endfacet
facet normal -9.650060 0.000000 0.000000
  outer loop
    vertex -0.927739 7.583625 1.119900
    vertex -0.927739 11.655380 1.119900
    vertex -0.927739 11.655380 -1.250100
  endloop
endfacet
facet normal 9.650060 0.000000 0.000000
  outer loop
    vertex 5.108240 7.583625 1.119900
    vertex 5.108240 7.583625 -1.250100
    vertex 5.108240 11.655380 -1.250100
  endloop
endfacet
facet normal 9.650060 -0.000000 0.000000
  outer loop
    vertex 5.108240 7.583625 1.119900
    vertex 5.108240 11.655380 -1.250100
    vertex 5.108240 11.655380 1.119900
  endloop
endfacet
facet normal 0.000000 -14.305269 -0.000000
  outer loop
    vertex 5.108240 7.583625 1.119900
    vertex -0.927739 7.583625 -1.250100
    vertex 5.108240 7.583625 -1.250100
  endloop
endfacet
facet normal -0.000000 -14.305269 0.000000
  outer loop
    vertex 5.108240 7.583625 1.119900
    vertex -0.927739 7.583625 1.119900
    vertex -0.927739 7.583625 -1.250100
  endloop
endfacet
facet normal 0.000000 14.305269 0.000000
  outer loop
    vertex 5.108240 11.655380 1.119900
    vertex 5.108240 11.655380 -1.250100
    vertex -0.927739 11.655380 -1.250100
  endloop
endfacet
facet normal 0.000000 14.305269 0.000000
  outer loop
    vertex 5.108240 11.655380 1.119900
    vertex -0.927739 11.655380 -1.250100
    vertex -0.927739 11.655380 1.119900
  endloop
endfacet
facet normal -0.000000 0.000000 -24.577030
  outer loop
    vertex 5.108240 11.655380 -1.250100
    vertex -0.927739 7.583625 -1.250100
    vertex -0.927739 11.655380 -1.250100
  endloop
endfacet
facet normal 0.000000 -0.000000 -24.577030
  outer loop
    vertex 5.108240 11.655380 -1.250100
    vertex 5.108240 7.583625 -1.250100
    vertex -0.927739 7.583625 -1.250100
  endloop
endfacet
facet normal 0.000000 0.000000 24.577030
  outer loop
    vertex 5.108240 11.655380 1.119900
    vertex -0.927739 11.655380 1.119900
    vertex -0.927739 7.583625 1.119900
  endloop
endfacet
facet normal 0.000000 0.000000 24.577030
  outer loop
    vertex 5.108240 11.655380 1.119900
    vertex -0.927739 7.583625 1.119900
    vertex 5.108240 7.583625 1.119900
  endloop
endfacet
endsolid heater0_porous_media
