solid inlet_source_sink
facet normal 0.000117 -0.000676 -0.000126
  outer loop
    vertex 2.310299 6.466949 1.479900
    vertex 2.310500 6.466249 1.483840
    vertex 2.139000 6.436251 1.485150
  endloop
endfacet
facet normal 0.000040 -0.000232 -0.000038
  outer loop
    vertex 2.139000 6.436251 1.485150
    vertex 2.310500 6.466249 1.483840
    vertex 2.139100 6.436050 1.486500
  endloop
endfacet
facet normal 0.000117 -0.000676 -0.000123
  outer loop
    vertex 2.310500 6.466249 1.483840
    vertex 2.310601 6.465549 1.487780
    vertex 2.139100 6.436050 1.486500
  endloop
endfacet
facet normal 0.000040 -0.000233 -0.000051
  outer loop
    vertex 2.310601 6.465549 1.487780
    vertex 2.139100 6.435751 1.487860
    vertex 2.139100 6.436050 1.486500
  endloop
endfacet
facet normal 0.000233 -0.000645 -0.000110
  outer loop
    vertex 2.134400 6.451450 1.485150
    vertex 2.297801 6.511351 1.479900
    vertex 2.298001 6.510750 1.483840
  endloop
endfacet
facet normal 0.000080 -0.000221 -0.000055
  outer loop
    vertex 2.134400 6.451450 1.485150
    vertex 2.298001 6.510750 1.483840
    vertex 2.134499 6.451151 1.486500
  endloop
endfacet
facet normal 0.000233 -0.000645 -0.000132
  outer loop
    vertex 2.134499 6.451151 1.486500
    vertex 2.298001 6.510750 1.483840
    vertex 2.298300 6.510050 1.487780
  endloop
endfacet
facet normal 0.000080 -0.000223 -0.000039
  outer loop
    vertex 2.134499 6.451151 1.486500
    vertex 2.298300 6.510050 1.487780
    vertex 2.134600 6.450950 1.487860
  endloop
endfacet
facet normal 0.000341 -0.000595 -0.000116
  outer loop
    vertex 2.127200 6.465549 1.485150
    vertex 2.277701 6.552950 1.479900
    vertex 2.278000 6.552351 1.483840
  endloop
endfacet
facet normal 0.000117 -0.000204 -0.000039
  outer loop
    vertex 2.127200 6.465549 1.485150
    vertex 2.278000 6.552351 1.483840
    vertex 2.127301 6.465349 1.486500
  endloop
endfacet
facet normal 0.000341 -0.000595 -0.000125
  outer loop
    vertex 2.127301 6.465349 1.486500
    vertex 2.278000 6.552351 1.483840
    vertex 2.278401 6.551750 1.487780
  endloop
endfacet
facet normal 0.000118 -0.000205 -0.000047
  outer loop
    vertex 2.127301 6.465349 1.486500
    vertex 2.278401 6.551750 1.487780
    vertex 2.127499 6.465151 1.487860
  endloop
endfacet
facet normal 0.000439 -0.000526 -0.000111
  outer loop
    vertex 2.117699 6.478250 1.485150
    vertex 2.250700 6.590450 1.479900
    vertex 2.251099 6.589950 1.483840
  endloop
endfacet
facet normal 0.000151 -0.000180 -0.000038
  outer loop
    vertex 2.117699 6.478250 1.485150
    vertex 2.251099 6.589950 1.483840
    vertex 2.117800 6.478050 1.486500
  endloop
endfacet
facet normal 0.000440 -0.000527 -0.000123
  outer loop
    vertex 2.117800 6.478050 1.486500
    vertex 2.251099 6.589950 1.483840
    vertex 2.251601 6.589451 1.487780
  endloop
endfacet
facet normal 0.000152 -0.000182 -0.000049
  outer loop
    vertex 2.117800 6.478050 1.486500
    vertex 2.251601 6.589451 1.487780
    vertex 2.118000 6.477850 1.487860
  endloop
endfacet
facet normal 0.000524 -0.000442 -0.000112
  outer loop
    vertex 2.218100 6.622249 1.483840
    vertex 2.106101 6.489050 1.485150
    vertex 2.217600 6.622650 1.479900
  endloop
endfacet
facet normal 0.000180 -0.000151 -0.000038
  outer loop
    vertex 2.218100 6.622249 1.483840
    vertex 2.106301 6.488951 1.486500
    vertex 2.106101 6.489050 1.485150
  endloop
endfacet
facet normal 0.000524 -0.000442 -0.000136
  outer loop
    vertex 2.218701 6.621750 1.487780
    vertex 2.106301 6.488951 1.486500
    vertex 2.218100 6.622249 1.483840
  endloop
endfacet
facet normal 0.000181 -0.000153 -0.000049
  outer loop
    vertex 2.218701 6.621750 1.487780
    vertex 2.106499 6.488750 1.487860
    vertex 2.106301 6.488951 1.486500
  endloop
endfacet
facet normal 0.000593 -0.000344 -0.000117
  outer loop
    vertex 2.180001 6.648350 1.483840
    vertex 2.092801 6.497749 1.485150
    vertex 2.179400 6.648649 1.479900
  endloop
endfacet
facet normal 0.000203 -0.000118 -0.000039
  outer loop
    vertex 2.180001 6.648350 1.483840
    vertex 2.093001 6.497650 1.486500
    vertex 2.092801 6.497749 1.485150
  endloop
endfacet
facet normal 0.000593 -0.000344 -0.000125
  outer loop
    vertex 2.180600 6.647949 1.487780
    vertex 2.093001 6.497650 1.486500
    vertex 2.180001 6.648350 1.483840
  endloop
endfacet
facet normal 0.000205 -0.000119 -0.000047
  outer loop
    vertex 2.180600 6.647949 1.487780
    vertex 2.093199 6.497450 1.487860
    vertex 2.093001 6.497650 1.486500
  endloop
endfacet
facet normal 0.000643 -0.000236 -0.000116
  outer loop
    vertex 2.137900 6.667351 1.483840
    vertex 2.078200 6.503950 1.485150
    vertex 2.137301 6.667650 1.479900
  endloop
endfacet
facet normal 0.000220 -0.000081 -0.000039
  outer loop
    vertex 2.137900 6.667351 1.483840
    vertex 2.078400 6.503851 1.486500
    vertex 2.078200 6.503950 1.485150
  endloop
endfacet
facet normal 0.000644 -0.000236 -0.000126
  outer loop
    vertex 2.138600 6.667150 1.487780
    vertex 2.078400 6.503851 1.486500
    vertex 2.137900 6.667351 1.483840
  endloop
endfacet
facet normal 0.000222 -0.000082 -0.000039
  outer loop
    vertex 2.138600 6.667150 1.487780
    vertex 2.078600 6.503750 1.487860
    vertex 2.078400 6.503851 1.486500
  endloop
endfacet
facet normal 0.000675 -0.000121 -0.000123
  outer loop
    vertex 2.062800 6.507549 1.485150
    vertex 2.092499 6.678949 1.479900
    vertex 2.093199 6.678850 1.483840
  endloop
endfacet
facet normal 0.000231 -0.000041 -0.000037
  outer loop
    vertex 2.093199 6.678850 1.483840
    vertex 2.063000 6.507450 1.486500
    vertex 2.062800 6.507549 1.485150
  endloop
endfacet
facet normal 0.000675 -0.000121 -0.000123
  outer loop
    vertex 2.063000 6.507450 1.486500
    vertex 2.093199 6.678850 1.483840
    vertex 2.093899 6.678751 1.487780
  endloop
endfacet
facet normal 0.000233 -0.000042 -0.000034
  outer loop
    vertex 2.093899 6.678751 1.487780
    vertex 2.063200 6.507450 1.487860
    vertex 2.063000 6.507450 1.486500
  endloop
endfacet
facet normal 0.000686 -0.000002 -0.000105
  outer loop
    vertex 2.046900 6.508350 1.485150
    vertex 2.046500 6.682350 1.479900
    vertex 2.047101 6.682350 1.483840
  endloop
endfacet
facet normal 0.000235 -0.000001 -0.000035
  outer loop
    vertex 2.047101 6.508350 1.486500
    vertex 2.046900 6.508350 1.485150
    vertex 2.047101 6.682350 1.483840
  endloop
endfacet
facet normal 0.000686 -0.000002 -0.000122
  outer loop
    vertex 2.047101 6.508350 1.486500
    vertex 2.047101 6.682350 1.483840
    vertex 2.047801 6.682350 1.487780
  endloop
endfacet
facet normal 0.000237 -0.000001 -0.000052
  outer loop
    vertex 2.047400 6.508350 1.487860
    vertex 2.047101 6.508350 1.486500
    vertex 2.047801 6.682350 1.487780
  endloop
endfacet
facet normal 0.000675 0.000117 -0.000123
  outer loop
    vertex 2.031201 6.506451 1.485150
    vertex 2.000500 6.677750 1.479900
    vertex 2.001200 6.677851 1.483840
  endloop
endfacet
facet normal 0.000231 0.000040 -0.000034
  outer loop
    vertex 2.001200 6.677851 1.483840
    vertex 2.031399 6.506451 1.486500
    vertex 2.031201 6.506451 1.485150
  endloop
endfacet
facet normal 0.000676 0.000117 -0.000106
  outer loop
    vertex 2.001799 6.677950 1.487780
    vertex 2.031399 6.506451 1.486500
    vertex 2.001200 6.677851 1.483840
  endloop
endfacet
facet normal 0.000233 0.000041 -0.000037
  outer loop
    vertex 2.001799 6.677950 1.487780
    vertex 2.031600 6.506550 1.487860
    vertex 2.031399 6.506451 1.486500
  endloop
endfacet
facet normal 0.000645 0.000233 -0.000132
  outer loop
    vertex 1.956700 6.665451 1.483840
    vertex 2.015999 6.501850 1.485150
    vertex 1.956000 6.665150 1.479900
  endloop
endfacet
facet normal 0.000221 0.000080 -0.000039
  outer loop
    vertex 1.956700 6.665451 1.483840
    vertex 2.016200 6.501949 1.486500
    vertex 2.015999 6.501850 1.485150
  endloop
endfacet
facet normal 0.000645 0.000233 -0.000110
  outer loop
    vertex 1.957301 6.665649 1.487780
    vertex 2.016200 6.501949 1.486500
    vertex 1.956700 6.665451 1.483840
  endloop
endfacet
facet normal 0.000223 0.000080 -0.000033
  outer loop
    vertex 1.957301 6.665649 1.487780
    vertex 2.016400 6.501949 1.487860
    vertex 2.016200 6.501949 1.486500
  endloop
endfacet
facet normal 0.000595 0.000342 -0.000116
  outer loop
    vertex 1.914999 6.645450 1.483840
    vertex 2.001900 6.494650 1.485150
    vertex 1.914401 6.645149 1.479900
  endloop
endfacet
facet normal 0.000204 0.000117 -0.000039
  outer loop
    vertex 1.914999 6.645450 1.483840
    vertex 2.002100 6.494751 1.486500
    vertex 2.001900 6.494650 1.485150
  endloop
endfacet
facet normal 0.000595 0.000342 -0.000125
  outer loop
    vertex 1.915600 6.645849 1.487780
    vertex 2.002100 6.494751 1.486500
    vertex 1.914999 6.645450 1.483840
  endloop
endfacet
facet normal 0.000205 0.000118 -0.000039
  outer loop
    vertex 1.915600 6.645849 1.487780
    vertex 2.002301 6.494850 1.487860
    vertex 2.002100 6.494751 1.486500
  endloop
endfacet
facet normal 0.000527 0.000439 -0.000111
  outer loop
    vertex 1.877499 6.618549 1.483840
    vertex 1.989199 6.485050 1.485150
    vertex 1.876999 6.618151 1.479900
  endloop
endfacet
facet normal 0.000180 0.000151 -0.000036
  outer loop
    vertex 1.877499 6.618549 1.483840
    vertex 1.989300 6.485250 1.486500
    vertex 1.989199 6.485050 1.485150
  endloop
endfacet
facet normal 0.000526 0.000439 -0.000112
  outer loop
    vertex 1.878001 6.618950 1.487780
    vertex 1.989300 6.485250 1.486500
    vertex 1.877499 6.618549 1.483840
  endloop
endfacet
facet normal 0.000182 0.000152 -0.000049
  outer loop
    vertex 1.878001 6.618950 1.487780
    vertex 1.989501 6.485451 1.487860
    vertex 1.989300 6.485250 1.486500
  endloop
endfacet
facet normal 0.000442 0.000524 -0.000123
  outer loop
    vertex 1.978301 6.473551 1.485150
    vertex 1.844700 6.585050 1.479900
    vertex 1.845200 6.585550 1.483840
  endloop
endfacet
facet normal 0.000151 0.000179 -0.000036
  outer loop
    vertex 1.978301 6.473551 1.485150
    vertex 1.845200 6.585550 1.483840
    vertex 1.978501 6.473650 1.486500
  endloop
endfacet
facet normal 0.000442 0.000524 -0.000112
  outer loop
    vertex 1.978501 6.473650 1.486500
    vertex 1.845200 6.585550 1.483840
    vertex 1.845601 6.586050 1.487780
  endloop
endfacet
facet normal 0.000153 0.000181 -0.000038
  outer loop
    vertex 1.978501 6.473650 1.486500
    vertex 1.845601 6.586050 1.487780
    vertex 1.978600 6.473850 1.487860
  endloop
endfacet
facet normal 0.000344 0.000593 -0.000125
  outer loop
    vertex 1.969700 6.460251 1.485150
    vertex 1.818699 6.546850 1.479900
    vertex 1.819100 6.547451 1.483840
  endloop
endfacet
facet normal 0.000118 0.000203 -0.000039
  outer loop
    vertex 1.969700 6.460251 1.485150
    vertex 1.819100 6.547451 1.483840
    vertex 1.969800 6.460449 1.486500
  endloop
endfacet
facet normal 0.000344 0.000593 -0.000116
  outer loop
    vertex 1.969800 6.460449 1.486500
    vertex 1.819100 6.547451 1.483840
    vertex 1.819399 6.548050 1.487780
  endloop
endfacet
facet normal 0.000119 0.000205 -0.000039
  outer loop
    vertex 1.969800 6.460449 1.486500
    vertex 1.819399 6.548050 1.487780
    vertex 1.969901 6.460649 1.487860
  endloop
endfacet
facet normal 0.000121 0.000675 -0.000106
  outer loop
    vertex 1.959900 6.430151 1.485150
    vertex 1.788399 6.459949 1.479900
    vertex 1.788500 6.460550 1.483840
  endloop
endfacet
facet normal 0.000042 0.000233 -0.000034
  outer loop
    vertex 1.959900 6.430151 1.485150
    vertex 1.788500 6.460550 1.483840
    vertex 1.959900 6.430349 1.486510
  endloop
endfacet
facet normal 0.000121 0.000675 -0.000126
  outer loop
    vertex 1.959900 6.430349 1.486510
    vertex 1.788500 6.460550 1.483840
    vertex 1.788701 6.461250 1.487780
  endloop
endfacet
facet normal 0.000041 0.000231 -0.000055
  outer loop
    vertex 1.960000 6.430651 1.487860
    vertex 1.959900 6.430349 1.486510
    vertex 1.788701 6.461250 1.487780
  endloop
endfacet
facet normal 0.000002 0.000686 -0.000122
  outer loop
    vertex 1.959000 6.414350 1.485150
    vertex 1.785000 6.413851 1.479900
    vertex 1.785000 6.414551 1.483840
  endloop
endfacet
facet normal 0.000001 0.000235 -0.000035
  outer loop
    vertex 1.959000 6.414551 1.486500
    vertex 1.959000 6.414350 1.485150
    vertex 1.785000 6.414551 1.483840
  endloop
endfacet
facet normal 0.000002 0.000686 -0.000122
  outer loop
    vertex 1.959000 6.414551 1.486500
    vertex 1.785000 6.414551 1.483840
    vertex 1.785000 6.415251 1.487780
  endloop
endfacet
facet normal 0.000001 0.000237 -0.000035
  outer loop
    vertex 1.959000 6.414751 1.487860
    vertex 1.959000 6.414551 1.486500
    vertex 1.785000 6.415251 1.487780
  endloop
endfacet
facet normal -0.000117 0.000676 -0.000109
  outer loop
    vertex 1.961001 6.398550 1.485150
    vertex 1.789700 6.367950 1.479900
    vertex 1.789500 6.368549 1.483840
  endloop
endfacet
facet normal -0.000040 0.000232 -0.000054
  outer loop
    vertex 1.960900 6.398849 1.486500
    vertex 1.961001 6.398550 1.485150
    vertex 1.789500 6.368549 1.483840
  endloop
endfacet
facet normal -0.000118 0.000676 -0.000123
  outer loop
    vertex 1.960900 6.398849 1.486500
    vertex 1.789500 6.368549 1.483840
    vertex 1.789401 6.369249 1.487780
  endloop
endfacet
facet normal -0.000041 0.000233 -0.000035
  outer loop
    vertex 1.960900 6.398849 1.486500
    vertex 1.789401 6.369249 1.487780
    vertex 1.960900 6.399050 1.487860
  endloop
endfacet
facet normal -0.000233 0.000645 -0.000110
  outer loop
    vertex 1.965600 6.383449 1.485150
    vertex 1.802201 6.323450 1.479900
    vertex 1.802001 6.324051 1.483840
  endloop
endfacet
facet normal -0.000080 0.000221 -0.000039
  outer loop
    vertex 1.965600 6.383449 1.485150
    vertex 1.802001 6.324051 1.483840
    vertex 1.965500 6.383650 1.486500
  endloop
endfacet
facet normal -0.000233 0.000645 -0.000132
  outer loop
    vertex 1.965500 6.383650 1.486500
    vertex 1.802001 6.324051 1.483840
    vertex 1.801699 6.324751 1.487780
  endloop
endfacet
facet normal -0.000080 0.000223 -0.000039
  outer loop
    vertex 1.965500 6.383650 1.486500
    vertex 1.801699 6.324751 1.487780
    vertex 1.965399 6.383850 1.487860
  endloop
endfacet
facet normal -0.000341 0.000595 -0.000125
  outer loop
    vertex 1.972800 6.369249 1.485150
    vertex 1.822300 6.281851 1.479900
    vertex 1.821900 6.282450 1.483840
  endloop
endfacet
facet normal -0.000117 0.000204 -0.000048
  outer loop
    vertex 1.972800 6.369249 1.485150
    vertex 1.821900 6.282450 1.483840
    vertex 1.972599 6.369449 1.486500
  endloop
endfacet
facet normal -0.000341 0.000595 -0.000117
  outer loop
    vertex 1.972599 6.369449 1.486500
    vertex 1.821900 6.282450 1.483840
    vertex 1.821600 6.283050 1.487780
  endloop
endfacet
facet normal -0.000118 0.000205 -0.000039
  outer loop
    vertex 1.972599 6.369449 1.486500
    vertex 1.821600 6.283050 1.487780
    vertex 1.972500 6.369650 1.487860
  endloop
endfacet
facet normal -0.000439 0.000527 -0.000123
  outer loop
    vertex 1.982300 6.356550 1.485150
    vertex 1.849301 6.244350 1.479900
    vertex 1.848799 6.244850 1.483840
  endloop
endfacet
facet normal -0.000151 0.000180 -0.000049
  outer loop
    vertex 1.982300 6.356550 1.485150
    vertex 1.848799 6.244850 1.483840
    vertex 1.982100 6.356750 1.486500
  endloop
endfacet
facet normal -0.000439 0.000526 -0.000125
  outer loop
    vertex 1.982100 6.356750 1.486500
    vertex 1.848799 6.244850 1.483840
    vertex 1.848401 6.245451 1.487780
  endloop
endfacet
facet normal -0.000152 0.000182 -0.000038
  outer loop
    vertex 1.982100 6.356750 1.486500
    vertex 1.848401 6.245451 1.487780
    vertex 1.982001 6.356951 1.487860
  endloop
endfacet
facet normal -0.000524 0.000442 -0.000111
  outer loop
    vertex 1.881899 6.212549 1.483840
    vertex 1.993901 6.345751 1.485150
    vertex 1.882399 6.212150 1.479900
  endloop
endfacet
facet normal -0.000180 0.000151 -0.000049
  outer loop
    vertex 1.881899 6.212549 1.483840
    vertex 1.993700 6.345951 1.486500
    vertex 1.993901 6.345751 1.485150
  endloop
endfacet
facet normal -0.000524 0.000442 -0.000136
  outer loop
    vertex 1.881300 6.213051 1.487780
    vertex 1.993700 6.345951 1.486500
    vertex 1.881899 6.212549 1.483840
  endloop
endfacet
facet normal -0.000181 0.000153 -0.000038
  outer loop
    vertex 1.881300 6.213051 1.487780
    vertex 1.993500 6.346050 1.487860
    vertex 1.993700 6.345951 1.486500
  endloop
endfacet
facet normal -0.000593 0.000344 -0.000116
  outer loop
    vertex 1.920001 6.186451 1.483840
    vertex 2.007201 6.337150 1.485150
    vertex 1.920599 6.186149 1.479900
  endloop
endfacet
facet normal -0.000203 0.000118 -0.000039
  outer loop
    vertex 1.920001 6.186451 1.483840
    vertex 2.007000 6.337250 1.486500
    vertex 2.007201 6.337150 1.485150
  endloop
endfacet
facet normal -0.000593 0.000344 -0.000125
  outer loop
    vertex 1.919400 6.186849 1.487780
    vertex 2.007000 6.337250 1.486500
    vertex 1.920001 6.186451 1.483840
  endloop
endfacet
facet normal -0.000205 0.000119 -0.000039
  outer loop
    vertex 1.919400 6.186849 1.487780
    vertex 2.006800 6.337351 1.487860
    vertex 2.007000 6.337250 1.486500
  endloop
endfacet
facet normal -0.000643 0.000237 -0.000132
  outer loop
    vertex 1.962000 6.167450 1.483840
    vertex 2.021800 6.330850 1.485150
    vertex 1.962700 6.167150 1.479900
  endloop
endfacet
facet normal -0.000220 0.000081 -0.000039
  outer loop
    vertex 1.962000 6.167450 1.483840
    vertex 2.021599 6.330950 1.486500
    vertex 2.021800 6.330850 1.485150
  endloop
endfacet
facet normal -0.000644 0.000236 -0.000110
  outer loop
    vertex 1.961400 6.167650 1.487780
    vertex 2.021599 6.330950 1.486500
    vertex 1.962000 6.167450 1.483840
  endloop
endfacet
facet normal -0.000222 0.000081 -0.000055
  outer loop
    vertex 1.961400 6.167650 1.487780
    vertex 2.021300 6.331051 1.487860
    vertex 2.021599 6.330950 1.486500
  endloop
endfacet
facet normal -0.000675 0.000121 -0.000123
  outer loop
    vertex 2.007500 6.155849 1.479900
    vertex 2.006800 6.155950 1.483840
    vertex 2.037199 6.327350 1.485150
  endloop
endfacet
facet normal -0.000231 0.000041 -0.000034
  outer loop
    vertex 2.006800 6.155950 1.483840
    vertex 2.036999 6.327350 1.486500
    vertex 2.037199 6.327350 1.485150
  endloop
endfacet
facet normal -0.000675 0.000121 -0.000123
  outer loop
    vertex 2.006800 6.155950 1.483840
    vertex 2.006100 6.156050 1.487780
    vertex 2.036999 6.327350 1.486500
  endloop
endfacet
facet normal -0.000233 0.000042 -0.000034
  outer loop
    vertex 2.006100 6.156050 1.487780
    vertex 2.036801 6.327350 1.487860
    vertex 2.036999 6.327350 1.486500
  endloop
endfacet
facet normal -0.000686 0.000002 -0.000122
  outer loop
    vertex 2.053500 6.152450 1.479900
    vertex 2.052800 6.152450 1.483840
    vertex 2.053099 6.326450 1.485150
  endloop
endfacet
facet normal -0.000235 0.000001 -0.000052
  outer loop
    vertex 2.052800 6.152450 1.483840
    vertex 2.052800 6.326450 1.486500
    vertex 2.053099 6.326450 1.485150
  endloop
endfacet
facet normal -0.000686 0.000002 -0.000104
  outer loop
    vertex 2.052800 6.152450 1.483840
    vertex 2.052201 6.152450 1.487780
    vertex 2.052800 6.326450 1.486500
  endloop
endfacet
facet normal -0.000237 0.000001 -0.000035
  outer loop
    vertex 2.052201 6.152450 1.487780
    vertex 2.052599 6.326450 1.487860
    vertex 2.052800 6.326450 1.486500
  endloop
endfacet
facet normal -0.000675 -0.000117 -0.000123
  outer loop
    vertex 2.099499 6.157049 1.479900
    vertex 2.098799 6.156950 1.483840
    vertex 2.068800 6.328350 1.485150
  endloop
endfacet
facet normal -0.000231 -0.000040 -0.000034
  outer loop
    vertex 2.098799 6.156950 1.483840
    vertex 2.068600 6.328350 1.486500
    vertex 2.068800 6.328350 1.485150
  endloop
endfacet
facet normal -0.000676 -0.000117 -0.000123
  outer loop
    vertex 2.098799 6.156950 1.483840
    vertex 2.098099 6.156851 1.487780
    vertex 2.068600 6.328350 1.486500
  endloop
endfacet
facet normal -0.000233 -0.000040 -0.000037
  outer loop
    vertex 2.098099 6.156851 1.487780
    vertex 2.068400 6.328251 1.487860
    vertex 2.068600 6.328350 1.486500
  endloop
endfacet
facet normal -0.000645 -0.000233 -0.000116
  outer loop
    vertex 2.143300 6.169350 1.483840
    vertex 2.084000 6.332950 1.485150
    vertex 2.143900 6.169651 1.479900
  endloop
endfacet
facet normal -0.000221 -0.000080 -0.000033
  outer loop
    vertex 2.143300 6.169350 1.483840
    vertex 2.083800 6.332950 1.486500
    vertex 2.084000 6.332950 1.485150
  endloop
endfacet
facet normal -0.000645 -0.000233 -0.000110
  outer loop
    vertex 2.142701 6.169149 1.487780
    vertex 2.083800 6.332950 1.486500
    vertex 2.143300 6.169350 1.483840
  endloop
endfacet
facet normal -0.000223 -0.000080 -0.000039
  outer loop
    vertex 2.142701 6.169149 1.487780
    vertex 2.083600 6.332849 1.487860
    vertex 2.083800 6.332950 1.486500
  endloop
endfacet
facet normal -0.000595 -0.000342 -0.000101
  outer loop
    vertex 2.185000 6.189350 1.483840
    vertex 2.098099 6.340151 1.485150
    vertex 2.185500 6.189649 1.479900
  endloop
endfacet
facet normal -0.000204 -0.000117 -0.000039
  outer loop
    vertex 2.185000 6.189350 1.483840
    vertex 2.097901 6.340050 1.486500
    vertex 2.098099 6.340151 1.485150
  endloop
endfacet
facet normal -0.000595 -0.000342 -0.000117
  outer loop
    vertex 2.184399 6.189051 1.487780
    vertex 2.097901 6.340050 1.486500
    vertex 2.185000 6.189350 1.483840
  endloop
endfacet
facet normal -0.000205 -0.000118 -0.000039
  outer loop
    vertex 2.184399 6.189051 1.487780
    vertex 2.097701 6.339950 1.487860
    vertex 2.097901 6.340050 1.486500
  endloop
endfacet
facet normal -0.000527 -0.000439 -0.000112
  outer loop
    vertex 2.222500 6.216249 1.483840
    vertex 2.110800 6.349750 1.485150
    vertex 2.223000 6.216650 1.479900
  endloop
endfacet
facet normal -0.000180 -0.000151 -0.000049
  outer loop
    vertex 2.222500 6.216249 1.483840
    vertex 2.110600 6.349550 1.486500
    vertex 2.110800 6.349750 1.485150
  endloop
endfacet
facet normal -0.000526 -0.000440 -0.000111
  outer loop
    vertex 2.222001 6.215851 1.487780
    vertex 2.110600 6.349550 1.486500
    vertex 2.222500 6.216249 1.483840
  endloop
endfacet
facet normal -0.000182 -0.000152 -0.000024
  outer loop
    vertex 2.222001 6.215851 1.487780
    vertex 2.110501 6.349451 1.487860
    vertex 2.110600 6.349550 1.486500
  endloop
endfacet
facet normal -0.000442 -0.000524 -0.000123
  outer loop
    vertex 2.121600 6.361351 1.485150
    vertex 2.255299 6.249750 1.479900
    vertex 2.254799 6.249250 1.483840
  endloop
endfacet
facet normal -0.000152 -0.000180 -0.000038
  outer loop
    vertex 2.121600 6.361351 1.485150
    vertex 2.254799 6.249250 1.483840
    vertex 2.121500 6.361151 1.486500
  endloop
endfacet
facet normal -0.000442 -0.000524 -0.000111
  outer loop
    vertex 2.121500 6.361151 1.486500
    vertex 2.254799 6.249250 1.483840
    vertex 2.254401 6.248751 1.487780
  endloop
endfacet
facet normal -0.000153 -0.000181 -0.000038
  outer loop
    vertex 2.121500 6.361151 1.486500
    vertex 2.254401 6.248751 1.487780
    vertex 2.121399 6.360950 1.487860
  endloop
endfacet
facet normal -0.000345 -0.000593 -0.000117
  outer loop
    vertex 2.130299 6.374651 1.485150
    vertex 2.281201 6.287950 1.479900
    vertex 2.280900 6.287350 1.483840
  endloop
endfacet
facet normal -0.000118 -0.000203 -0.000054
  outer loop
    vertex 2.130299 6.374651 1.485150
    vertex 2.280900 6.287350 1.483840
    vertex 2.130200 6.374349 1.486500
  endloop
endfacet
facet normal -0.000344 -0.000593 -0.000116
  outer loop
    vertex 2.130200 6.374349 1.486500
    vertex 2.280900 6.287350 1.483840
    vertex 2.280600 6.286751 1.487780
  endloop
endfacet
facet normal -0.000119 -0.000205 -0.000039
  outer loop
    vertex 2.130200 6.374349 1.486500
    vertex 2.280600 6.286751 1.487780
    vertex 2.130101 6.374149 1.487860
  endloop
endfacet
facet normal -0.000236 -0.000644 -0.000126
  outer loop
    vertex 2.136500 6.389150 1.485150
    vertex 2.300200 6.330150 1.479900
    vertex 2.300000 6.329450 1.483840
  endloop
endfacet
facet normal -0.000081 -0.000221 -0.000039
  outer loop
    vertex 2.136500 6.389150 1.485150
    vertex 2.300000 6.329450 1.483840
    vertex 2.136401 6.388950 1.486500
  endloop
endfacet
facet normal -0.000236 -0.000644 -0.000116
  outer loop
    vertex 2.136401 6.388950 1.486500
    vertex 2.300000 6.329450 1.483840
    vertex 2.299700 6.328850 1.487780
  endloop
endfacet
facet normal -0.000081 -0.000222 -0.000033
  outer loop
    vertex 2.136401 6.388950 1.486500
    vertex 2.299700 6.328850 1.487780
    vertex 2.136401 6.388750 1.487860
  endloop
endfacet
facet normal -0.000121 -0.000675 -0.000106
  outer loop
    vertex 2.140101 6.404650 1.485150
    vertex 2.311600 6.374849 1.479900
    vertex 2.311499 6.374250 1.483840
  endloop
endfacet
facet normal -0.000041 -0.000231 -0.000034
  outer loop
    vertex 2.140101 6.404650 1.485150
    vertex 2.311499 6.374250 1.483840
    vertex 2.140101 6.404449 1.486500
  endloop
endfacet
facet normal -0.000121 -0.000675 -0.000126
  outer loop
    vertex 2.311499 6.374250 1.483840
    vertex 2.311301 6.373550 1.487780
    vertex 2.140101 6.404449 1.486500
  endloop
endfacet
facet normal -0.000042 -0.000233 -0.000054
  outer loop
    vertex 2.311301 6.373550 1.487780
    vertex 2.140000 6.404150 1.487860
    vertex 2.140101 6.404449 1.486500
  endloop
endfacet
facet normal -0.000002 -0.000686 -0.000122
  outer loop
    vertex 2.314999 6.420950 1.479900
    vertex 2.314999 6.420250 1.483840
    vertex 2.140900 6.420450 1.485150
  endloop
endfacet
facet normal -0.000001 -0.000235 -0.000035
  outer loop
    vertex 2.314999 6.420250 1.483840
    vertex 2.140999 6.420250 1.486500
    vertex 2.140900 6.420450 1.485150
  endloop
endfacet
facet normal -0.000002 -0.000686 -0.000122
  outer loop
    vertex 2.314999 6.420250 1.483840
    vertex 2.314999 6.419550 1.487780
    vertex 2.140999 6.420250 1.486500
  endloop
endfacet
facet normal -0.000001 -0.000237 -0.000035
  outer loop
    vertex 2.314999 6.419550 1.487780
    vertex 2.140999 6.420050 1.487860
    vertex 2.140999 6.420250 1.486500
  endloop
endfacet
facet normal 0.000236 0.000644 -0.000126
  outer loop
    vertex 1.963500 6.445650 1.485150
    vertex 1.799799 6.504650 1.479900
    vertex 1.800000 6.505350 1.483840
  endloop
endfacet
facet normal 0.000081 0.000221 -0.000039
  outer loop
    vertex 1.963500 6.445650 1.485150
    vertex 1.800000 6.505350 1.483840
    vertex 1.963601 6.445850 1.486500
  endloop
endfacet
facet normal 0.000236 0.000644 -0.000110
  outer loop
    vertex 1.963601 6.445850 1.486500
    vertex 1.800000 6.505350 1.483840
    vertex 1.800200 6.505951 1.487780
  endloop
endfacet
facet normal 0.000081 0.000222 -0.000033
  outer loop
    vertex 1.963601 6.445850 1.486500
    vertex 1.800200 6.505951 1.487780
    vertex 1.963601 6.446051 1.487860
  endloop
endfacet
endsolid inlet_source_sink
