solid inlet_source_sink
facet normal 0.000117 -0.000676 -0.000126
  outer loop
    vertex 2.310299 6.966949 2.479900
    vertex 2.310500 6.966249 2.483840
    vertex 2.139000 6.936251 2.485150
  endloop
endfacet
facet normal 0.000040 -0.000232 -0.000038
  outer loop
    vertex 2.139000 6.936251 2.485150
    vertex 2.310500 6.966249 2.483840
    vertex 2.139100 6.936050 2.486500
  endloop
endfacet
facet normal 0.000117 -0.000676 -0.000123
  outer loop
    vertex 2.310500 6.966249 2.483840
    vertex 2.310601 6.965549 2.487780
    vertex 2.139100 6.936050 2.486500
  endloop
endfacet
facet normal 0.000040 -0.000233 -0.000051
  outer loop
    vertex 2.310601 6.965549 2.487780
    vertex 2.139100 6.935751 2.487860
    vertex 2.139100 6.936050 2.486500
  endloop
endfacet
facet normal 0.000233 -0.000645 -0.000110
  outer loop
    vertex 2.134400 6.951450 2.485150
    vertex 2.297801 7.011351 2.479900
    vertex 2.298001 7.010750 2.483840
  endloop
endfacet
facet normal 0.000080 -0.000221 -0.000055
  outer loop
    vertex 2.134400 6.951450 2.485150
    vertex 2.298001 7.010750 2.483840
    vertex 2.134499 6.951151 2.486500
  endloop
endfacet
facet normal 0.000233 -0.000645 -0.000132
  outer loop
    vertex 2.134499 6.951151 2.486500
    vertex 2.298001 7.010750 2.483840
    vertex 2.298300 7.010050 2.487780
  endloop
endfacet
facet normal 0.000080 -0.000223 -0.000039
  outer loop
    vertex 2.134499 6.951151 2.486500
    vertex 2.298300 7.010050 2.487780
    vertex 2.134600 6.950950 2.487860
  endloop
endfacet
facet normal 0.000341 -0.000595 -0.000116
  outer loop
    vertex 2.127200 6.965549 2.485150
    vertex 2.277701 7.052950 2.479900
    vertex 2.278000 7.052351 2.483840
  endloop
endfacet
facet normal 0.000117 -0.000204 -0.000039
  outer loop
    vertex 2.127200 6.965549 2.485150
    vertex 2.278000 7.052351 2.483840
    vertex 2.127301 6.965349 2.486500
  endloop
endfacet
facet normal 0.000341 -0.000595 -0.000125
  outer loop
    vertex 2.127301 6.965349 2.486500
    vertex 2.278000 7.052351 2.483840
    vertex 2.278401 7.051750 2.487780
  endloop
endfacet
facet normal 0.000118 -0.000205 -0.000047
  outer loop
    vertex 2.127301 6.965349 2.486500
    vertex 2.278401 7.051750 2.487780
    vertex 2.127499 6.965151 2.487860
  endloop
endfacet
facet normal 0.000439 -0.000526 -0.000111
  outer loop
    vertex 2.117699 6.978250 2.485150
    vertex 2.250700 7.090450 2.479900
    vertex 2.251099 7.089950 2.483840
  endloop
endfacet
facet normal 0.000151 -0.000180 -0.000038
  outer loop
    vertex 2.117699 6.978250 2.485150
    vertex 2.251099 7.089950 2.483840
    vertex 2.117800 6.978050 2.486500
  endloop
endfacet
facet normal 0.000440 -0.000527 -0.000123
  outer loop
    vertex 2.117800 6.978050 2.486500
    vertex 2.251099 7.089950 2.483840
    vertex 2.251601 7.089451 2.487780
  endloop
endfacet
facet normal 0.000152 -0.000182 -0.000049
  outer loop
    vertex 2.117800 6.978050 2.486500
    vertex 2.251601 7.089451 2.487780
    vertex 2.118000 6.977850 2.487860
  endloop
endfacet
facet normal 0.000524 -0.000442 -0.000112
  outer loop
    vertex 2.218100 7.122249 2.483840
    vertex 2.106101 6.989050 2.485150
    vertex 2.217600 7.122650 2.479900
  endloop
endfacet
facet normal 0.000180 -0.000151 -0.000038
  outer loop
    vertex 2.218100 7.122249 2.483840
    vertex 2.106301 6.988951 2.486500
    vertex 2.106101 6.989050 2.485150
  endloop
endfacet
facet normal 0.000524 -0.000442 -0.000136
  outer loop
    vertex 2.218701 7.121750 2.487780
    vertex 2.106301 6.988951 2.486500
    vertex 2.218100 7.122249 2.483840
  endloop
endfacet
facet normal 0.000181 -0.000153 -0.000049
  outer loop
    vertex 2.218701 7.121750 2.487780
    vertex 2.106499 6.988750 2.487860
    vertex 2.106301 6.988951 2.486500
  endloop
endfacet
facet normal 0.000593 -0.000344 -0.000117
  outer loop
    vertex 2.180001 7.148350 2.483840
    vertex 2.092801 6.997749 2.485150
    vertex 2.179400 7.148649 2.479900
  endloop
endfacet
facet normal 0.000203 -0.000118 -0.000039
  outer loop
    vertex 2.180001 7.148350 2.483840
    vertex 2.093001 6.997650 2.486500
    vertex 2.092801 6.997749 2.485150
  endloop
endfacet
facet normal 0.000593 -0.000344 -0.000125
  outer loop
    vertex 2.180600 7.147949 2.487780
    vertex 2.093001 6.997650 2.486500
    vertex 2.180001 7.148350 2.483840
  endloop
endfacet
facet normal 0.000205 -0.000119 -0.000047
  outer loop
    vertex 2.180600 7.147949 2.487780
    vertex 2.093199 6.997450 2.487860
    vertex 2.093001 6.997650 2.486500
  endloop
endfacet
facet normal 0.000643 -0.000236 -0.000116
  outer loop
    vertex 2.137900 7.167351 2.483840
    vertex 2.078200 7.003950 2.485150
    vertex 2.137301 7.167650 2.479900
  endloop
endfacet
facet normal 0.000220 -0.000081 -0.000039
  outer loop
    vertex 2.137900 7.167351 2.483840
    vertex 2.078400 7.003851 2.486500
    vertex 2.078200 7.003950 2.485150
  endloop
endfacet
facet normal 0.000644 -0.000236 -0.000126
  outer loop
    vertex 2.138600 7.167150 2.487780
    vertex 2.078400 7.003851 2.486500
    vertex 2.137900 7.167351 2.483840
  endloop
endfacet
facet normal 0.000222 -0.000082 -0.000039
  outer loop
    vertex 2.138600 7.167150 2.487780
    vertex 2.078600 7.003750 2.487860
    vertex 2.078400 7.003851 2.486500
  endloop
endfacet
facet normal 0.000675 -0.000121 -0.000123
  outer loop
    vertex 2.062800 7.007549 2.485150
    vertex 2.092499 7.178949 2.479900
    vertex 2.093199 7.178850 2.483840
  endloop
endfacet
facet normal 0.000231 -0.000041 -0.000037
  outer loop
    vertex 2.093199 7.178850 2.483840
    vertex 2.063000 7.007450 2.486500
    vertex 2.062800 7.007549 2.485150
  endloop
endfacet
facet normal 0.000675 -0.000121 -0.000123
  outer loop
    vertex 2.063000 7.007450 2.486500
    vertex 2.093199 7.178850 2.483840
    vertex 2.093899 7.178751 2.487780
  endloop
endfacet
facet normal 0.000233 -0.000042 -0.000034
  outer loop
    vertex 2.093899 7.178751 2.487780
    vertex 2.063200 7.007450 2.487860
    vertex 2.063000 7.007450 2.486500
  endloop
endfacet
facet normal 0.000686 -0.000002 -0.000105
  outer loop
    vertex 2.046900 7.008350 2.485150
    vertex 2.046500 7.182350 2.479900
    vertex 2.047101 7.182350 2.483840
  endloop
endfacet
facet normal 0.000235 -0.000001 -0.000035
  outer loop
    vertex 2.047101 7.008350 2.486500
    vertex 2.046900 7.008350 2.485150
    vertex 2.047101 7.182350 2.483840
  endloop
endfacet
facet normal 0.000686 -0.000002 -0.000122
  outer loop
    vertex 2.047101 7.008350 2.486500
    vertex 2.047101 7.182350 2.483840
    vertex 2.047801 7.182350 2.487780
  endloop
endfacet
facet normal 0.000237 -0.000001 -0.000052
  outer loop
    vertex 2.047400 7.008350 2.487860
    vertex 2.047101 7.008350 2.486500
    vertex 2.047801 7.182350 2.487780
  endloop
endfacet
facet normal 0.000675 0.000117 -0.000123
  outer loop
    vertex 2.031201 7.006451 2.485150
    vertex 2.000500 7.177750 2.479900
    vertex 2.001200 7.177851 2.483840
  endloop
endfacet
facet normal 0.000231 0.000040 -0.000034
  outer loop
    vertex 2.001200 7.177851 2.483840
    vertex 2.031399 7.006451 2.486500
    vertex 2.031201 7.006451 2.485150
  endloop
endfacet
facet normal 0.000676 0.000117 -0.000106
  outer loop
    vertex 2.001799 7.177950 2.487780
    vertex 2.031399 7.006451 2.486500
    vertex 2.001200 7.177851 2.483840
  endloop
endfacet
facet normal 0.000233 0.000041 -0.000037
  outer loop
    vertex 2.001799 7.177950 2.487780
    vertex 2.031600 7.006550 2.487860
    vertex 2.031399 7.006451 2.486500
  endloop
endfacet
facet normal 0.000645 0.000233 -0.000132
  outer loop
    vertex 1.956700 7.165451 2.483840
    vertex 2.015999 7.001850 2.485150
    vertex 1.956000 7.165150 2.479900
  endloop
endfacet
facet normal 0.000221 0.000080 -0.000039
  outer loop
    vertex 1.956700 7.165451 2.483840
    vertex 2.016200 7.001949 2.486500
    vertex 2.015999 7.001850 2.485150
  endloop
endfacet
facet normal 0.000645 0.000233 -0.000110
  outer loop
    vertex 1.957301 7.165649 2.487780
    vertex 2.016200 7.001949 2.486500
    vertex 1.956700 7.165451 2.483840
  endloop
endfacet
facet normal 0.000223 0.000080 -0.000033
  outer loop
    vertex 1.957301 7.165649 2.487780
    vertex 2.016400 7.001949 2.487860
    vertex 2.016200 7.001949 2.486500
  endloop
endfacet
facet normal 0.000595 0.000342 -0.000116
  outer loop
    vertex 1.914999 7.145450 2.483840
    vertex 2.001900 6.994650 2.485150
    vertex 1.914401 7.145149 2.479900
  endloop
endfacet
facet normal 0.000204 0.000117 -0.000039
  outer loop
    vertex 1.914999 7.145450 2.483840
    vertex 2.002100 6.994751 2.486500
    vertex 2.001900 6.994650 2.485150
  endloop
endfacet
facet normal 0.000595 0.000342 -0.000125
  outer loop
    vertex 1.915600 7.145849 2.487780
    vertex 2.002100 6.994751 2.486500
    vertex 1.914999 7.145450 2.483840
  endloop
endfacet
facet normal 0.000205 0.000118 -0.000039
  outer loop
    vertex 1.915600 7.145849 2.487780
    vertex 2.002301 6.994850 2.487860
    vertex 2.002100 6.994751 2.486500
  endloop
endfacet
facet normal 0.000527 0.000439 -0.000111
  outer loop
    vertex 1.877499 7.118549 2.483840
    vertex 1.989199 6.985050 2.485150
    vertex 1.876999 7.118151 2.479900
  endloop
endfacet
facet normal 0.000180 0.000151 -0.000036
  outer loop
    vertex 1.877499 7.118549 2.483840
    vertex 1.989300 6.985250 2.486500
    vertex 1.989199 6.985050 2.485150
  endloop
endfacet
facet normal 0.000526 0.000439 -0.000112
  outer loop
    vertex 1.878001 7.118950 2.487780
    vertex 1.989300 6.985250 2.486500
    vertex 1.877499 7.118549 2.483840
  endloop
endfacet
facet normal 0.000182 0.000152 -0.000049
  outer loop
    vertex 1.878001 7.118950 2.487780
    vertex 1.989501 6.985451 2.487860
    vertex 1.989300 6.985250 2.486500
  endloop
endfacet
facet normal 0.000442 0.000524 -0.000123
  outer loop
    vertex 1.978301 6.973551 2.485150
    vertex 1.844700 7.085050 2.479900
    vertex 1.845200 7.085550 2.483840
  endloop
endfacet
facet normal 0.000151 0.000179 -0.000036
  outer loop
    vertex 1.978301 6.973551 2.485150
    vertex 1.845200 7.085550 2.483840
    vertex 1.978501 6.973650 2.486500
  endloop
endfacet
facet normal 0.000442 0.000524 -0.000112
  outer loop
    vertex 1.978501 6.973650 2.486500
    vertex 1.845200 7.085550 2.483840
    vertex 1.845601 7.086050 2.487780
  endloop
endfacet
facet normal 0.000153 0.000181 -0.000038
  outer loop
    vertex 1.978501 6.973650 2.486500
    vertex 1.845601 7.086050 2.487780
    vertex 1.978600 6.973850 2.487860
  endloop
endfacet
facet normal 0.000344 0.000593 -0.000125
  outer loop
    vertex 1.969700 6.960251 2.485150
    vertex 1.818699 7.046850 2.479900
    vertex 1.819100 7.047451 2.483840
  endloop
endfacet
facet normal 0.000118 0.000203 -0.000039
  outer loop
    vertex 1.969700 6.960251 2.485150
    vertex 1.819100 7.047451 2.483840
    vertex 1.969800 6.960449 2.486500
  endloop
endfacet
facet normal 0.000344 0.000593 -0.000116
  outer loop
    vertex 1.969800 6.960449 2.486500
    vertex 1.819100 7.047451 2.483840
    vertex 1.819399 7.048050 2.487780
  endloop
endfacet
facet normal 0.000119 0.000205 -0.000039
  outer loop
    vertex 1.969800 6.960449 2.486500
    vertex 1.819399 7.048050 2.487780
    vertex 1.969901 6.960649 2.487860
  endloop
endfacet
facet normal 0.000121 0.000675 -0.000106
  outer loop
    vertex 1.959900 6.930151 2.485150
    vertex 1.788399 6.959949 2.479900
    vertex 1.788500 6.960550 2.483840
  endloop
endfacet
facet normal 0.000042 0.000233 -0.000034
  outer loop
    vertex 1.959900 6.930151 2.485150
    vertex 1.788500 6.960550 2.483840
    vertex 1.959900 6.930349 2.486510
  endloop
endfacet
facet normal 0.000121 0.000675 -0.000126
  outer loop
    vertex 1.959900 6.930349 2.486510
    vertex 1.788500 6.960550 2.483840
    vertex 1.788701 6.961250 2.487780
  endloop
endfacet
facet normal 0.000041 0.000231 -0.000055
  outer loop
    vertex 1.960000 6.930651 2.487860
    vertex 1.959900 6.930349 2.486510
    vertex 1.788701 6.961250 2.487780
  endloop
endfacet
facet normal 0.000002 0.000686 -0.000122
  outer loop
    vertex 1.959000 6.914350 2.485150
    vertex 1.785000 6.913851 2.479900
    vertex 1.785000 6.914551 2.483840
  endloop
endfacet
facet normal 0.000001 0.000235 -0.000035
  outer loop
    vertex 1.959000 6.914551 2.486500
    vertex 1.959000 6.914350 2.485150
    vertex 1.785000 6.914551 2.483840
  endloop
endfacet
facet normal 0.000002 0.000686 -0.000122
  outer loop
    vertex 1.959000 6.914551 2.486500
    vertex 1.785000 6.914551 2.483840
    vertex 1.785000 6.915251 2.487780
  endloop
endfacet
facet normal 0.000001 0.000237 -0.000035
  outer loop
    vertex 1.959000 6.914751 2.487860
    vertex 1.959000 6.914551 2.486500
    vertex 1.785000 6.915251 2.487780
  endloop
endfacet
facet normal -0.000117 0.000676 -0.000109
  outer loop
    vertex 1.961001 6.898550 2.485150
    vertex 1.789700 6.867950 2.479900
    vertex 1.789500 6.868549 2.483840
  endloop
endfacet
facet normal -0.000040 0.000232 -0.000054
  outer loop
    vertex 1.960900 6.898849 2.486500
    vertex 1.961001 6.898550 2.485150
    vertex 1.789500 6.868549 2.483840
  endloop
endfacet
facet normal -0.000118 0.000676 -0.000123
  outer loop
    vertex 1.960900 6.898849 2.486500
    vertex 1.789500 6.868549 2.483840
    vertex 1.789401 6.869249 2.487780
  endloop
endfacet
facet normal -0.000041 0.000233 -0.000035
  outer loop
    vertex 1.960900 6.898849 2.486500
    vertex 1.789401 6.869249 2.487780
    vertex 1.960900 6.899050 2.487860
  endloop
endfacet
facet normal -0.000233 0.000645 -0.000110
  outer loop
    vertex 1.965600 6.883449 2.485150
    vertex 1.802201 6.823450 2.479900
    vertex 1.802001 6.824051 2.483840
  endloop
endfacet
facet normal -0.000080 0.000221 -0.000039
  outer loop
    vertex 1.965600 6.883449 2.485150
    vertex 1.802001 6.824051 2.483840
    vertex 1.965500 6.883650 2.486500
  endloop
endfacet
facet normal -0.000233 0.000645 -0.000132
  outer loop
    vertex 1.965500 6.883650 2.486500
    vertex 1.802001 6.824051 2.483840
    vertex 1.801699 6.824751 2.487780
  endloop
endfacet
facet normal -0.000080 0.000223 -0.000039
  outer loop
    vertex 1.965500 6.883650 2.486500
    vertex 1.801699 6.824751 2.487780
    vertex 1.965399 6.883850 2.487860
  endloop
endfacet
facet normal -0.000341 0.000595 -0.000125
  outer loop
    vertex 1.972800 6.869249 2.485150
    vertex 1.822300 6.781851 2.479900
    vertex 1.821900 6.782450 2.483840
  endloop
endfacet
facet normal -0.000117 0.000204 -0.000048
  outer loop
    vertex 1.972800 6.869249 2.485150
    vertex 1.821900 6.782450 2.483840
    vertex 1.972599 6.869449 2.486500
  endloop
endfacet
facet normal -0.000341 0.000595 -0.000117
  outer loop
    vertex 1.972599 6.869449 2.486500
    vertex 1.821900 6.782450 2.483840
    vertex 1.821600 6.783050 2.487780
  endloop
endfacet
facet normal -0.000118 0.000205 -0.000039
  outer loop
    vertex 1.972599 6.869449 2.486500
    vertex 1.821600 6.783050 2.487780
    vertex 1.972500 6.869650 2.487860
  endloop
endfacet
facet normal -0.000439 0.000527 -0.000123
  outer loop
    vertex 1.982300 6.856550 2.485150
    vertex 1.849301 6.744350 2.479900
    vertex 1.848799 6.744850 2.483840
  endloop
endfacet
facet normal -0.000151 0.000180 -0.000049
  outer loop
    vertex 1.982300 6.856550 2.485150
    vertex 1.848799 6.744850 2.483840
    vertex 1.982100 6.856750 2.486500
  endloop
endfacet
facet normal -0.000439 0.000526 -0.000125
  outer loop
    vertex 1.982100 6.856750 2.486500
    vertex 1.848799 6.744850 2.483840
    vertex 1.848401 6.745451 2.487780
  endloop
endfacet
facet normal -0.000152 0.000182 -0.000038
  outer loop
    vertex 1.982100 6.856750 2.486500
    vertex 1.848401 6.745451 2.487780
    vertex 1.982001 6.856951 2.487860
  endloop
endfacet
facet normal -0.000524 0.000442 -0.000111
  outer loop
    vertex 1.881899 6.712549 2.483840
    vertex 1.993901 6.845751 2.485150
    vertex 1.882399 6.712150 2.479900
  endloop
endfacet
facet normal -0.000180 0.000151 -0.000049
  outer loop
    vertex 1.881899 6.712549 2.483840
    vertex 1.993700 6.845951 2.486500
    vertex 1.993901 6.845751 2.485150
  endloop
endfacet
facet normal -0.000524 0.000442 -0.000136
  outer loop
    vertex 1.881300 6.713051 2.487780
    vertex 1.993700 6.845951 2.486500
    vertex 1.881899 6.712549 2.483840
  endloop
endfacet
facet normal -0.000181 0.000153 -0.000038
  outer loop
    vertex 1.881300 6.713051 2.487780
    vertex 1.993500 6.846050 2.487860
    vertex 1.993700 6.845951 2.486500
  endloop
endfacet
facet normal -0.000593 0.000344 -0.000116
  outer loop
    vertex 1.920001 6.686451 2.483840
    vertex 2.007201 6.837150 2.485150
    vertex 1.920599 6.686149 2.479900
  endloop
endfacet
facet normal -0.000203 0.000118 -0.000039
  outer loop
    vertex 1.920001 6.686451 2.483840
    vertex 2.007000 6.837250 2.486500
    vertex 2.007201 6.837150 2.485150
  endloop
endfacet
facet normal -0.000593 0.000344 -0.000125
  outer loop
    vertex 1.919400 6.686849 2.487780
    vertex 2.007000 6.837250 2.486500
    vertex 1.920001 6.686451 2.483840
  endloop
endfacet
facet normal -0.000205 0.000119 -0.000039
  outer loop
    vertex 1.919400 6.686849 2.487780
    vertex 2.006800 6.837351 2.487860
    vertex 2.007000 6.837250 2.486500
  endloop
endfacet
facet normal -0.000643 0.000237 -0.000132
  outer loop
    vertex 1.962000 6.667450 2.483840
    vertex 2.021800 6.830850 2.485150
    vertex 1.962700 6.667150 2.479900
  endloop
endfacet
facet normal -0.000220 0.000081 -0.000039
  outer loop
    vertex 1.962000 6.667450 2.483840
    vertex 2.021599 6.830950 2.486500
    vertex 2.021800 6.830850 2.485150
  endloop
endfacet
facet normal -0.000644 0.000236 -0.000110
  outer loop
    vertex 1.961400 6.667650 2.487780
    vertex 2.021599 6.830950 2.486500
    vertex 1.962000 6.667450 2.483840
  endloop
endfacet
facet normal -0.000222 0.000081 -0.000055
  outer loop
    vertex 1.961400 6.667650 2.487780
    vertex 2.021300 6.831051 2.487860
    vertex 2.021599 6.830950 2.486500
  endloop
endfacet
facet normal -0.000675 0.000121 -0.000123
  outer loop
    vertex 2.007500 6.655849 2.479900
    vertex 2.006800 6.655950 2.483840
    vertex 2.037199 6.827350 2.485150
  endloop
endfacet
facet normal -0.000231 0.000041 -0.000034
  outer loop
    vertex 2.006800 6.655950 2.483840
    vertex 2.036999 6.827350 2.486500
    vertex 2.037199 6.827350 2.485150
  endloop
endfacet
facet normal -0.000675 0.000121 -0.000123
  outer loop
    vertex 2.006800 6.655950 2.483840
    vertex 2.006100 6.656050 2.487780
    vertex 2.036999 6.827350 2.486500
  endloop
endfacet
facet normal -0.000233 0.000042 -0.000034
  outer loop
    vertex 2.006100 6.656050 2.487780
    vertex 2.036801 6.827350 2.487860
    vertex 2.036999 6.827350 2.486500
  endloop
endfacet
facet normal -0.000686 0.000002 -0.000122
  outer loop
    vertex 2.053500 6.652450 2.479900
    vertex 2.052800 6.652450 2.483840
    vertex 2.053099 6.826450 2.485150
  endloop
endfacet
facet normal -0.000235 0.000001 -0.000052
  outer loop
    vertex 2.052800 6.652450 2.483840
    vertex 2.052800 6.826450 2.486500
    vertex 2.053099 6.826450 2.485150
  endloop
endfacet
facet normal -0.000686 0.000002 -0.000104
  outer loop
    vertex 2.052800 6.652450 2.483840
    vertex 2.052201 6.652450 2.487780
    vertex 2.052800 6.826450 2.486500
  endloop
endfacet
facet normal -0.000237 0.000001 -0.000035
  outer loop
    vertex 2.052201 6.652450 2.487780
    vertex 2.052599 6.826450 2.487860
    vertex 2.052800 6.826450 2.486500
  endloop
endfacet
facet normal -0.000675 -0.000117 -0.000123
  outer loop
    vertex 2.099499 6.657049 2.479900
    vertex 2.098799 6.656950 2.483840
    vertex 2.068800 6.828350 2.485150
  endloop
endfacet
facet normal -0.000231 -0.000040 -0.000034
  outer loop
    vertex 2.098799 6.656950 2.483840
    vertex 2.068600 6.828350 2.486500
    vertex 2.068800 6.828350 2.485150
  endloop
endfacet
facet normal -0.000676 -0.000117 -0.000123
  outer loop
    vertex 2.098799 6.656950 2.483840
    vertex 2.098099 6.656851 2.487780
    vertex 2.068600 6.828350 2.486500
  endloop
endfacet
facet normal -0.000233 -0.000040 -0.000037
  outer loop
    vertex 2.098099 6.656851 2.487780
    vertex 2.068400 6.828251 2.487860
    vertex 2.068600 6.828350 2.486500
  endloop
endfacet
facet normal -0.000645 -0.000233 -0.000116
  outer loop
    vertex 2.143300 6.669350 2.483840
    vertex 2.084000 6.832950 2.485150
    vertex 2.143900 6.669651 2.479900
  endloop
endfacet
facet normal -0.000221 -0.000080 -0.000033
  outer loop
    vertex 2.143300 6.669350 2.483840
    vertex 2.083800 6.832950 2.486500
    vertex 2.084000 6.832950 2.485150
  endloop
endfacet
facet normal -0.000645 -0.000233 -0.000110
  outer loop
    vertex 2.142701 6.669149 2.487780
    vertex 2.083800 6.832950 2.486500
    vertex 2.143300 6.669350 2.483840
  endloop
endfacet
facet normal -0.000223 -0.000080 -0.000039
  outer loop
    vertex 2.142701 6.669149 2.487780
    vertex 2.083600 6.832849 2.487860
    vertex 2.083800 6.832950 2.486500
  endloop
endfacet
facet normal -0.000595 -0.000342 -0.000101
  outer loop
    vertex 2.185000 6.689350 2.483840
    vertex 2.098099 6.840151 2.485150
    vertex 2.185500 6.689649 2.479900
  endloop
endfacet
facet normal -0.000204 -0.000117 -0.000039
  outer loop
    vertex 2.185000 6.689350 2.483840
    vertex 2.097901 6.840050 2.486500
    vertex 2.098099 6.840151 2.485150
  endloop
endfacet
facet normal -0.000595 -0.000342 -0.000117
  outer loop
    vertex 2.184399 6.689051 2.487780
    vertex 2.097901 6.840050 2.486500
    vertex 2.185000 6.689350 2.483840
  endloop
endfacet
facet normal -0.000205 -0.000118 -0.000039
  outer loop
    vertex 2.184399 6.689051 2.487780
    vertex 2.097701 6.839950 2.487860
    vertex 2.097901 6.840050 2.486500
  endloop
endfacet
facet normal -0.000527 -0.000439 -0.000112
  outer loop
    vertex 2.222500 6.716249 2.483840
    vertex 2.110800 6.849750 2.485150
    vertex 2.223000 6.716650 2.479900
  endloop
endfacet
facet normal -0.000180 -0.000151 -0.000049
  outer loop
    vertex 2.222500 6.716249 2.483840
    vertex 2.110600 6.849550 2.486500
    vertex 2.110800 6.849750 2.485150
  endloop
endfacet
facet normal -0.000526 -0.000440 -0.000111
  outer loop
    vertex 2.222001 6.715851 2.487780
    vertex 2.110600 6.849550 2.486500
    vertex 2.222500 6.716249 2.483840
  endloop
endfacet
facet normal -0.000182 -0.000152 -0.000024
  outer loop
    vertex 2.222001 6.715851 2.487780
    vertex 2.110501 6.849451 2.487860
    vertex 2.110600 6.849550 2.486500
  endloop
endfacet
facet normal -0.000442 -0.000524 -0.000123
  outer loop
    vertex 2.121600 6.861351 2.485150
    vertex 2.255299 6.749750 2.479900
    vertex 2.254799 6.749250 2.483840
  endloop
endfacet
facet normal -0.000152 -0.000180 -0.000038
  outer loop
    vertex 2.121600 6.861351 2.485150
    vertex 2.254799 6.749250 2.483840
    vertex 2.121500 6.861151 2.486500
  endloop
endfacet
facet normal -0.000442 -0.000524 -0.000111
  outer loop
    vertex 2.121500 6.861151 2.486500
    vertex 2.254799 6.749250 2.483840
    vertex 2.254401 6.748751 2.487780
  endloop
endfacet
facet normal -0.000153 -0.000181 -0.000038
  outer loop
    vertex 2.121500 6.861151 2.486500
    vertex 2.254401 6.748751 2.487780
    vertex 2.121399 6.860950 2.487860
  endloop
endfacet
facet normal -0.000345 -0.000593 -0.000117
  outer loop
    vertex 2.130299 6.874651 2.485150
    vertex 2.281201 6.787950 2.479900
    vertex 2.280900 6.787350 2.483840
  endloop
endfacet
facet normal -0.000118 -0.000203 -0.000054
  outer loop
    vertex 2.130299 6.874651 2.485150
    vertex 2.280900 6.787350 2.483840
    vertex 2.130200 6.874349 2.486500
  endloop
endfacet
facet normal -0.000344 -0.000593 -0.000116
  outer loop
    vertex 2.130200 6.874349 2.486500
    vertex 2.280900 6.787350 2.483840
    vertex 2.280600 6.786751 2.487780
  endloop
endfacet
facet normal -0.000119 -0.000205 -0.000039
  outer loop
    vertex 2.130200 6.874349 2.486500
    vertex 2.280600 6.786751 2.487780
    vertex 2.130101 6.874149 2.487860
  endloop
endfacet
facet normal -0.000236 -0.000644 -0.000126
  outer loop
    vertex 2.136500 6.889150 2.485150
    vertex 2.300200 6.830150 2.479900
    vertex 2.300000 6.829450 2.483840
  endloop
endfacet
facet normal -0.000081 -0.000221 -0.000039
  outer loop
    vertex 2.136500 6.889150 2.485150
    vertex 2.300000 6.829450 2.483840
    vertex 2.136401 6.888950 2.486500
  endloop
endfacet
facet normal -0.000236 -0.000644 -0.000116
  outer loop
    vertex 2.136401 6.888950 2.486500
    vertex 2.300000 6.829450 2.483840
    vertex 2.299700 6.828850 2.487780
  endloop
endfacet
facet normal -0.000081 -0.000222 -0.000033
  outer loop
    vertex 2.136401 6.888950 2.486500
    vertex 2.299700 6.828850 2.487780
    vertex 2.136401 6.888750 2.487860
  endloop
endfacet
facet normal -0.000121 -0.000675 -0.000106
  outer loop
    vertex 2.140101 6.904650 2.485150
    vertex 2.311600 6.874849 2.479900
    vertex 2.311499 6.874250 2.483840
  endloop
endfacet
facet normal -0.000041 -0.000231 -0.000034
  outer loop
    vertex 2.140101 6.904650 2.485150
    vertex 2.311499 6.874250 2.483840
    vertex 2.140101 6.904449 2.486500
  endloop
endfacet
facet normal -0.000121 -0.000675 -0.000126
  outer loop
    vertex 2.311499 6.874250 2.483840
    vertex 2.311301 6.873550 2.487780
    vertex 2.140101 6.904449 2.486500
  endloop
endfacet
facet normal -0.000042 -0.000233 -0.000054
  outer loop
    vertex 2.311301 6.873550 2.487780
    vertex 2.140000 6.904150 2.487860
    vertex 2.140101 6.904449 2.486500
  endloop
endfacet
facet normal -0.000002 -0.000686 -0.000122
  outer loop
    vertex 2.314999 6.920950 2.479900
    vertex 2.314999 6.920250 2.483840
    vertex 2.140900 6.920450 2.485150
  endloop
endfacet
facet normal -0.000001 -0.000235 -0.000035
  outer loop
    vertex 2.314999 6.920250 2.483840
    vertex 2.140999 6.920250 2.486500
    vertex 2.140900 6.920450 2.485150
  endloop
endfacet
facet normal -0.000002 -0.000686 -0.000122
  outer loop
    vertex 2.314999 6.920250 2.483840
    vertex 2.314999 6.919550 2.487780
    vertex 2.140999 6.920250 2.486500
  endloop
endfacet
facet normal -0.000001 -0.000237 -0.000035
  outer loop
    vertex 2.314999 6.919550 2.487780
    vertex 2.140999 6.920050 2.487860
    vertex 2.140999 6.920250 2.486500
  endloop
endfacet
facet normal 0.000236 0.000644 -0.000126
  outer loop
    vertex 1.963500 6.945650 2.485150
    vertex 1.799799 7.004650 2.479900
    vertex 1.800000 7.005350 2.483840
  endloop
endfacet
facet normal 0.000081 0.000221 -0.000039
  outer loop
    vertex 1.963500 6.945650 2.485150
    vertex 1.800000 7.005350 2.483840
    vertex 1.963601 6.945850 2.486500
  endloop
endfacet
facet normal 0.000236 0.000644 -0.000110
  outer loop
    vertex 1.963601 6.945850 2.486500
    vertex 1.800000 7.005350 2.483840
    vertex 1.800200 7.005951 2.487780
  endloop
endfacet
facet normal 0.000081 0.000222 -0.000033
  outer loop
    vertex 1.963601 6.945850 2.486500
    vertex 1.800200 7.005951 2.487780
    vertex 1.963601 6.946051 2.487860
  endloop
endfacet
endsolid inlet_source_sink
