solid outlet_source_sink
facet normal 0.000117 -0.000676 -0.000126
  outer loop
    vertex 2.310299 8.822049 2.480100
    vertex 2.310500 8.821349 2.484040
    vertex 2.139000 8.791351 2.485350
  endloop
endfacet
facet normal 0.000040 -0.000232 -0.000038
  outer loop
    vertex 2.139000 8.791351 2.485350
    vertex 2.310500 8.821349 2.484040
    vertex 2.139100 8.791150 2.486700
  endloop
endfacet
facet normal 0.000117 -0.000676 -0.000123
  outer loop
    vertex 2.310500 8.821349 2.484040
    vertex 2.310601 8.820649 2.487980
    vertex 2.139100 8.791150 2.486700
  endloop
endfacet
facet normal 0.000041 -0.000233 -0.000051
  outer loop
    vertex 2.310601 8.820649 2.487980
    vertex 2.139100 8.790851 2.488060
    vertex 2.139100 8.791150 2.486700
  endloop
endfacet
facet normal 0.000233 -0.000645 -0.000110
  outer loop
    vertex 2.134400 8.806550 2.485350
    vertex 2.297801 8.866451 2.480100
    vertex 2.298001 8.865850 2.484040
  endloop
endfacet
facet normal 0.000080 -0.000221 -0.000055
  outer loop
    vertex 2.134400 8.806550 2.485350
    vertex 2.298001 8.865850 2.484040
    vertex 2.134499 8.806251 2.486700
  endloop
endfacet
facet normal 0.000233 -0.000645 -0.000132
  outer loop
    vertex 2.134499 8.806251 2.486700
    vertex 2.298001 8.865850 2.484040
    vertex 2.298300 8.865150 2.487980
  endloop
endfacet
facet normal 0.000080 -0.000223 -0.000039
  outer loop
    vertex 2.134499 8.806251 2.486700
    vertex 2.298300 8.865150 2.487980
    vertex 2.134600 8.806050 2.488060
  endloop
endfacet
facet normal 0.000341 -0.000595 -0.000116
  outer loop
    vertex 2.127200 8.820649 2.485350
    vertex 2.277701 8.908050 2.480100
    vertex 2.278000 8.907451 2.484040
  endloop
endfacet
facet normal 0.000117 -0.000204 -0.000039
  outer loop
    vertex 2.127200 8.820649 2.485350
    vertex 2.278000 8.907451 2.484040
    vertex 2.127301 8.820449 2.486700
  endloop
endfacet
facet normal 0.000341 -0.000595 -0.000125
  outer loop
    vertex 2.127301 8.820449 2.486700
    vertex 2.278000 8.907451 2.484040
    vertex 2.278401 8.906850 2.487980
  endloop
endfacet
facet normal 0.000118 -0.000205 -0.000047
  outer loop
    vertex 2.127301 8.820449 2.486700
    vertex 2.278401 8.906850 2.487980
    vertex 2.127499 8.820251 2.488060
  endloop
endfacet
facet normal 0.000439 -0.000526 -0.000111
  outer loop
    vertex 2.117699 8.833350 2.485350
    vertex 2.250700 8.945550 2.480100
    vertex 2.251099 8.945050 2.484040
  endloop
endfacet
facet normal 0.000151 -0.000180 -0.000038
  outer loop
    vertex 2.117699 8.833350 2.485350
    vertex 2.251099 8.945050 2.484040
    vertex 2.117800 8.833150 2.486700
  endloop
endfacet
facet normal 0.000440 -0.000527 -0.000123
  outer loop
    vertex 2.117800 8.833150 2.486700
    vertex 2.251099 8.945050 2.484040
    vertex 2.251601 8.944551 2.487980
  endloop
endfacet
facet normal 0.000152 -0.000182 -0.000049
  outer loop
    vertex 2.117800 8.833150 2.486700
    vertex 2.251601 8.944551 2.487980
    vertex 2.118000 8.832950 2.488060
  endloop
endfacet
facet normal 0.000524 -0.000442 -0.000111
  outer loop
    vertex 2.218100 8.977349 2.484040
    vertex 2.106101 8.844150 2.485350
    vertex 2.217600 8.977750 2.480100
  endloop
endfacet
facet normal 0.000180 -0.000151 -0.000038
  outer loop
    vertex 2.218100 8.977349 2.484040
    vertex 2.106301 8.844051 2.486700
    vertex 2.106101 8.844150 2.485350
  endloop
endfacet
facet normal 0.000524 -0.000442 -0.000136
  outer loop
    vertex 2.218701 8.976850 2.487980
    vertex 2.106301 8.844051 2.486700
    vertex 2.218100 8.977349 2.484040
  endloop
endfacet
facet normal 0.000181 -0.000153 -0.000049
  outer loop
    vertex 2.218701 8.976850 2.487980
    vertex 2.106499 8.843850 2.488060
    vertex 2.106301 8.844051 2.486700
  endloop
endfacet
facet normal 0.000593 -0.000344 -0.000117
  outer loop
    vertex 2.180001 9.003450 2.484040
    vertex 2.092801 8.852849 2.485350
    vertex 2.179400 9.003749 2.480100
  endloop
endfacet
facet normal 0.000203 -0.000118 -0.000039
  outer loop
    vertex 2.180001 9.003450 2.484040
    vertex 2.093001 8.852750 2.486700
    vertex 2.092801 8.852849 2.485350
  endloop
endfacet
facet normal 0.000593 -0.000344 -0.000125
  outer loop
    vertex 2.180600 9.003049 2.487980
    vertex 2.093001 8.852750 2.486700
    vertex 2.180001 9.003450 2.484040
  endloop
endfacet
facet normal 0.000205 -0.000119 -0.000047
  outer loop
    vertex 2.180600 9.003049 2.487980
    vertex 2.093199 8.852550 2.488060
    vertex 2.093001 8.852750 2.486700
  endloop
endfacet
facet normal 0.000643 -0.000236 -0.000116
  outer loop
    vertex 2.137900 9.022451 2.484040
    vertex 2.078200 8.859050 2.485350
    vertex 2.137301 9.022750 2.480100
  endloop
endfacet
facet normal 0.000220 -0.000081 -0.000039
  outer loop
    vertex 2.137900 9.022451 2.484040
    vertex 2.078400 8.858951 2.486700
    vertex 2.078200 8.859050 2.485350
  endloop
endfacet
facet normal 0.000644 -0.000236 -0.000126
  outer loop
    vertex 2.138600 9.022250 2.487980
    vertex 2.078400 8.858951 2.486700
    vertex 2.137900 9.022451 2.484040
  endloop
endfacet
facet normal 0.000222 -0.000082 -0.000039
  outer loop
    vertex 2.138600 9.022250 2.487980
    vertex 2.078600 8.858850 2.488060
    vertex 2.078400 8.858951 2.486700
  endloop
endfacet
facet normal 0.000675 -0.000121 -0.000123
  outer loop
    vertex 2.062800 8.862649 2.485350
    vertex 2.092499 9.034049 2.480100
    vertex 2.093199 9.033950 2.484040
  endloop
endfacet
facet normal 0.000231 -0.000041 -0.000037
  outer loop
    vertex 2.093199 9.033950 2.484040
    vertex 2.063000 8.862550 2.486700
    vertex 2.062800 8.862649 2.485350
  endloop
endfacet
facet normal 0.000675 -0.000121 -0.000123
  outer loop
    vertex 2.063000 8.862550 2.486700
    vertex 2.093199 9.033950 2.484040
    vertex 2.093899 9.033851 2.487980
  endloop
endfacet
facet normal 0.000233 -0.000042 -0.000034
  outer loop
    vertex 2.093899 9.033851 2.487980
    vertex 2.063200 8.862550 2.488060
    vertex 2.063000 8.862550 2.486700
  endloop
endfacet
facet normal 0.000686 -0.000002 -0.000105
  outer loop
    vertex 2.046900 8.863450 2.485350
    vertex 2.046500 9.037450 2.480100
    vertex 2.047101 9.037450 2.484040
  endloop
endfacet
facet normal 0.000235 -0.000001 -0.000035
  outer loop
    vertex 2.047101 8.863450 2.486700
    vertex 2.046900 8.863450 2.485350
    vertex 2.047101 9.037450 2.484040
  endloop
endfacet
facet normal 0.000686 -0.000002 -0.000122
  outer loop
    vertex 2.047101 8.863450 2.486700
    vertex 2.047101 9.037450 2.484040
    vertex 2.047801 9.037450 2.487980
  endloop
endfacet
facet normal 0.000237 -0.000001 -0.000052
  outer loop
    vertex 2.047400 8.863450 2.488060
    vertex 2.047101 8.863450 2.486700
    vertex 2.047801 9.037450 2.487980
  endloop
endfacet
facet normal 0.000675 0.000117 -0.000123
  outer loop
    vertex 2.031201 8.861551 2.485350
    vertex 2.000500 9.032850 2.480100
    vertex 2.001200 9.032951 2.484040
  endloop
endfacet
facet normal 0.000231 0.000040 -0.000034
  outer loop
    vertex 2.001200 9.032951 2.484040
    vertex 2.031399 8.861551 2.486700
    vertex 2.031201 8.861551 2.485350
  endloop
endfacet
facet normal 0.000676 0.000117 -0.000106
  outer loop
    vertex 2.001799 9.033050 2.487980
    vertex 2.031399 8.861551 2.486700
    vertex 2.001200 9.032951 2.484040
  endloop
endfacet
facet normal 0.000233 0.000041 -0.000037
  outer loop
    vertex 2.001799 9.033050 2.487980
    vertex 2.031600 8.861650 2.488060
    vertex 2.031399 8.861551 2.486700
  endloop
endfacet
facet normal 0.000645 0.000233 -0.000132
  outer loop
    vertex 1.956700 9.020551 2.484040
    vertex 2.015999 8.856950 2.485350
    vertex 1.956000 9.020250 2.480100
  endloop
endfacet
facet normal 0.000221 0.000080 -0.000039
  outer loop
    vertex 1.956700 9.020551 2.484040
    vertex 2.016200 8.857049 2.486700
    vertex 2.015999 8.856950 2.485350
  endloop
endfacet
facet normal 0.000645 0.000233 -0.000110
  outer loop
    vertex 1.957301 9.020749 2.487980
    vertex 2.016200 8.857049 2.486700
    vertex 1.956700 9.020551 2.484040
  endloop
endfacet
facet normal 0.000223 0.000080 -0.000033
  outer loop
    vertex 1.957301 9.020749 2.487980
    vertex 2.016400 8.857049 2.488060
    vertex 2.016200 8.857049 2.486700
  endloop
endfacet
facet normal 0.000595 0.000342 -0.000116
  outer loop
    vertex 1.914999 9.000550 2.484040
    vertex 2.001900 8.849750 2.485350
    vertex 1.914401 9.000249 2.480100
  endloop
endfacet
facet normal 0.000204 0.000117 -0.000039
  outer loop
    vertex 1.914999 9.000550 2.484040
    vertex 2.002100 8.849851 2.486700
    vertex 2.001900 8.849750 2.485350
  endloop
endfacet
facet normal 0.000595 0.000342 -0.000125
  outer loop
    vertex 1.915600 9.000949 2.487980
    vertex 2.002100 8.849851 2.486700
    vertex 1.914999 9.000550 2.484040
  endloop
endfacet
facet normal 0.000205 0.000118 -0.000039
  outer loop
    vertex 1.915600 9.000949 2.487980
    vertex 2.002301 8.849950 2.488060
    vertex 2.002100 8.849851 2.486700
  endloop
endfacet
facet normal 0.000527 0.000439 -0.000111
  outer loop
    vertex 1.877499 8.973649 2.484040
    vertex 1.989199 8.840150 2.485350
    vertex 1.876999 8.973251 2.480100
  endloop
endfacet
facet normal 0.000181 0.000151 -0.000036
  outer loop
    vertex 1.877499 8.973649 2.484040
    vertex 1.989300 8.840350 2.486700
    vertex 1.989199 8.840150 2.485350
  endloop
endfacet
facet normal 0.000526 0.000439 -0.000112
  outer loop
    vertex 1.878001 8.974050 2.487980
    vertex 1.989300 8.840350 2.486700
    vertex 1.877499 8.973649 2.484040
  endloop
endfacet
facet normal 0.000182 0.000152 -0.000049
  outer loop
    vertex 1.878001 8.974050 2.487980
    vertex 1.989501 8.840551 2.488060
    vertex 1.989300 8.840350 2.486700
  endloop
endfacet
facet normal 0.000442 0.000524 -0.000123
  outer loop
    vertex 1.978301 8.828651 2.485350
    vertex 1.844700 8.940150 2.480100
    vertex 1.845200 8.940650 2.484040
  endloop
endfacet
facet normal 0.000151 0.000179 -0.000035
  outer loop
    vertex 1.978301 8.828651 2.485350
    vertex 1.845200 8.940650 2.484040
    vertex 1.978501 8.828750 2.486700
  endloop
endfacet
facet normal 0.000442 0.000524 -0.000111
  outer loop
    vertex 1.978501 8.828750 2.486700
    vertex 1.845200 8.940650 2.484040
    vertex 1.845601 8.941150 2.487980
  endloop
endfacet
facet normal 0.000153 0.000181 -0.000038
  outer loop
    vertex 1.978501 8.828750 2.486700
    vertex 1.845601 8.941150 2.487980
    vertex 1.978600 8.828950 2.488060
  endloop
endfacet
facet normal 0.000344 0.000593 -0.000125
  outer loop
    vertex 1.969700 8.815351 2.485350
    vertex 1.818699 8.901950 2.480100
    vertex 1.819100 8.902551 2.484040
  endloop
endfacet
facet normal 0.000118 0.000203 -0.000039
  outer loop
    vertex 1.969700 8.815351 2.485350
    vertex 1.819100 8.902551 2.484040
    vertex 1.969800 8.815549 2.486700
  endloop
endfacet
facet normal 0.000344 0.000593 -0.000116
  outer loop
    vertex 1.969800 8.815549 2.486700
    vertex 1.819100 8.902551 2.484040
    vertex 1.819399 8.903150 2.487980
  endloop
endfacet
facet normal 0.000119 0.000205 -0.000039
  outer loop
    vertex 1.969800 8.815549 2.486700
    vertex 1.819399 8.903150 2.487980
    vertex 1.969901 8.815749 2.488060
  endloop
endfacet
facet normal 0.000121 0.000675 -0.000106
  outer loop
    vertex 1.959900 8.785251 2.485350
    vertex 1.788399 8.815049 2.480100
    vertex 1.788500 8.815650 2.484040
  endloop
endfacet
facet normal 0.000042 0.000233 -0.000034
  outer loop
    vertex 1.959900 8.785251 2.485350
    vertex 1.788500 8.815650 2.484040
    vertex 1.959900 8.785449 2.486710
  endloop
endfacet
facet normal 0.000121 0.000675 -0.000126
  outer loop
    vertex 1.959900 8.785449 2.486710
    vertex 1.788500 8.815650 2.484040
    vertex 1.788701 8.816350 2.487980
  endloop
endfacet
facet normal 0.000041 0.000231 -0.000055
  outer loop
    vertex 1.960000 8.785751 2.488060
    vertex 1.959900 8.785449 2.486710
    vertex 1.788701 8.816350 2.487980
  endloop
endfacet
facet normal 0.000002 0.000686 -0.000122
  outer loop
    vertex 1.959000 8.769450 2.485350
    vertex 1.785000 8.768951 2.480100
    vertex 1.785000 8.769651 2.484040
  endloop
endfacet
facet normal 0.000001 0.000235 -0.000035
  outer loop
    vertex 1.959000 8.769651 2.486700
    vertex 1.959000 8.769450 2.485350
    vertex 1.785000 8.769651 2.484040
  endloop
endfacet
facet normal 0.000002 0.000686 -0.000122
  outer loop
    vertex 1.959000 8.769651 2.486700
    vertex 1.785000 8.769651 2.484040
    vertex 1.785000 8.770351 2.487980
  endloop
endfacet
facet normal 0.000001 0.000237 -0.000035
  outer loop
    vertex 1.959000 8.769851 2.488060
    vertex 1.959000 8.769651 2.486700
    vertex 1.785000 8.770351 2.487980
  endloop
endfacet
facet normal -0.000117 0.000676 -0.000109
  outer loop
    vertex 1.961001 8.753650 2.485350
    vertex 1.789700 8.723050 2.480100
    vertex 1.789500 8.723649 2.484040
  endloop
endfacet
facet normal -0.000040 0.000232 -0.000054
  outer loop
    vertex 1.960900 8.753949 2.486700
    vertex 1.961001 8.753650 2.485350
    vertex 1.789500 8.723649 2.484040
  endloop
endfacet
facet normal -0.000118 0.000676 -0.000123
  outer loop
    vertex 1.960900 8.753949 2.486700
    vertex 1.789500 8.723649 2.484040
    vertex 1.789401 8.724349 2.487980
  endloop
endfacet
facet normal -0.000041 0.000233 -0.000035
  outer loop
    vertex 1.960900 8.753949 2.486700
    vertex 1.789401 8.724349 2.487980
    vertex 1.960900 8.754150 2.488060
  endloop
endfacet
facet normal -0.000233 0.000645 -0.000110
  outer loop
    vertex 1.965600 8.738549 2.485350
    vertex 1.802201 8.678550 2.480100
    vertex 1.802001 8.679151 2.484040
  endloop
endfacet
facet normal -0.000080 0.000221 -0.000039
  outer loop
    vertex 1.965600 8.738549 2.485350
    vertex 1.802001 8.679151 2.484040
    vertex 1.965500 8.738750 2.486700
  endloop
endfacet
facet normal -0.000233 0.000645 -0.000132
  outer loop
    vertex 1.965500 8.738750 2.486700
    vertex 1.802001 8.679151 2.484040
    vertex 1.801699 8.679851 2.487980
  endloop
endfacet
facet normal -0.000080 0.000223 -0.000039
  outer loop
    vertex 1.965500 8.738750 2.486700
    vertex 1.801699 8.679851 2.487980
    vertex 1.965399 8.738950 2.488060
  endloop
endfacet
facet normal -0.000341 0.000595 -0.000125
  outer loop
    vertex 1.972800 8.724349 2.485350
    vertex 1.822300 8.636951 2.480100
    vertex 1.821900 8.637550 2.484040
  endloop
endfacet
facet normal -0.000117 0.000204 -0.000048
  outer loop
    vertex 1.972800 8.724349 2.485350
    vertex 1.821900 8.637550 2.484040
    vertex 1.972599 8.724549 2.486700
  endloop
endfacet
facet normal -0.000341 0.000595 -0.000117
  outer loop
    vertex 1.972599 8.724549 2.486700
    vertex 1.821900 8.637550 2.484040
    vertex 1.821600 8.638150 2.487980
  endloop
endfacet
facet normal -0.000118 0.000205 -0.000039
  outer loop
    vertex 1.972599 8.724549 2.486700
    vertex 1.821600 8.638150 2.487980
    vertex 1.972500 8.724750 2.488060
  endloop
endfacet
facet normal -0.000439 0.000527 -0.000123
  outer loop
    vertex 1.982300 8.711650 2.485350
    vertex 1.849301 8.599450 2.480100
    vertex 1.848799 8.599950 2.484040
  endloop
endfacet
facet normal -0.000151 0.000181 -0.000049
  outer loop
    vertex 1.982300 8.711650 2.485350
    vertex 1.848799 8.599950 2.484040
    vertex 1.982100 8.711850 2.486700
  endloop
endfacet
facet normal -0.000439 0.000526 -0.000125
  outer loop
    vertex 1.982100 8.711850 2.486700
    vertex 1.848799 8.599950 2.484040
    vertex 1.848401 8.600551 2.487980
  endloop
endfacet
facet normal -0.000152 0.000182 -0.000038
  outer loop
    vertex 1.982100 8.711850 2.486700
    vertex 1.848401 8.600551 2.487980
    vertex 1.982001 8.712051 2.488060
  endloop
endfacet
facet normal -0.000524 0.000442 -0.000111
  outer loop
    vertex 1.881899 8.567649 2.484040
    vertex 1.993901 8.700851 2.485350
    vertex 1.882399 8.567250 2.480100
  endloop
endfacet
facet normal -0.000180 0.000151 -0.000049
  outer loop
    vertex 1.881899 8.567649 2.484040
    vertex 1.993700 8.701051 2.486700
    vertex 1.993901 8.700851 2.485350
  endloop
endfacet
facet normal -0.000524 0.000442 -0.000136
  outer loop
    vertex 1.881300 8.568151 2.487980
    vertex 1.993700 8.701051 2.486700
    vertex 1.881899 8.567649 2.484040
  endloop
endfacet
facet normal -0.000181 0.000153 -0.000038
  outer loop
    vertex 1.881300 8.568151 2.487980
    vertex 1.993500 8.701150 2.488060
    vertex 1.993700 8.701051 2.486700
  endloop
endfacet
facet normal -0.000593 0.000344 -0.000116
  outer loop
    vertex 1.920001 8.541551 2.484040
    vertex 2.007201 8.692250 2.485350
    vertex 1.920599 8.541249 2.480100
  endloop
endfacet
facet normal -0.000203 0.000118 -0.000039
  outer loop
    vertex 1.920001 8.541551 2.484040
    vertex 2.007000 8.692350 2.486700
    vertex 2.007201 8.692250 2.485350
  endloop
endfacet
facet normal -0.000593 0.000344 -0.000125
  outer loop
    vertex 1.919400 8.541949 2.487980
    vertex 2.007000 8.692350 2.486700
    vertex 1.920001 8.541551 2.484040
  endloop
endfacet
facet normal -0.000205 0.000119 -0.000039
  outer loop
    vertex 1.919400 8.541949 2.487980
    vertex 2.006800 8.692451 2.488060
    vertex 2.007000 8.692350 2.486700
  endloop
endfacet
facet normal -0.000643 0.000237 -0.000132
  outer loop
    vertex 1.962000 8.522550 2.484040
    vertex 2.021800 8.685950 2.485350
    vertex 1.962700 8.522250 2.480100
  endloop
endfacet
facet normal -0.000220 0.000081 -0.000039
  outer loop
    vertex 1.962000 8.522550 2.484040
    vertex 2.021599 8.686050 2.486700
    vertex 2.021800 8.685950 2.485350
  endloop
endfacet
facet normal -0.000644 0.000236 -0.000110
  outer loop
    vertex 1.961400 8.522750 2.487980
    vertex 2.021599 8.686050 2.486700
    vertex 1.962000 8.522550 2.484040
  endloop
endfacet
facet normal -0.000222 0.000081 -0.000055
  outer loop
    vertex 1.961400 8.522750 2.487980
    vertex 2.021300 8.686151 2.488060
    vertex 2.021599 8.686050 2.486700
  endloop
endfacet
facet normal -0.000675 0.000121 -0.000123
  outer loop
    vertex 2.007500 8.510949 2.480100
    vertex 2.006800 8.511050 2.484040
    vertex 2.037199 8.682450 2.485350
  endloop
endfacet
facet normal -0.000231 0.000041 -0.000034
  outer loop
    vertex 2.006800 8.511050 2.484040
    vertex 2.036999 8.682450 2.486700
    vertex 2.037199 8.682450 2.485350
  endloop
endfacet
facet normal -0.000675 0.000121 -0.000123
  outer loop
    vertex 2.006800 8.511050 2.484040
    vertex 2.006100 8.511150 2.487980
    vertex 2.036999 8.682450 2.486700
  endloop
endfacet
facet normal -0.000233 0.000042 -0.000034
  outer loop
    vertex 2.006100 8.511150 2.487980
    vertex 2.036801 8.682450 2.488060
    vertex 2.036999 8.682450 2.486700
  endloop
endfacet
facet normal -0.000686 0.000002 -0.000122
  outer loop
    vertex 2.053500 8.507550 2.480100
    vertex 2.052800 8.507550 2.484040
    vertex 2.053099 8.681550 2.485350
  endloop
endfacet
facet normal -0.000235 0.000001 -0.000052
  outer loop
    vertex 2.052800 8.507550 2.484040
    vertex 2.052800 8.681550 2.486700
    vertex 2.053099 8.681550 2.485350
  endloop
endfacet
facet normal -0.000686 0.000002 -0.000104
  outer loop
    vertex 2.052800 8.507550 2.484040
    vertex 2.052201 8.507550 2.487980
    vertex 2.052800 8.681550 2.486700
  endloop
endfacet
facet normal -0.000237 0.000001 -0.000035
  outer loop
    vertex 2.052201 8.507550 2.487980
    vertex 2.052599 8.681550 2.488060
    vertex 2.052800 8.681550 2.486700
  endloop
endfacet
facet normal -0.000675 -0.000117 -0.000123
  outer loop
    vertex 2.099499 8.512149 2.480100
    vertex 2.098799 8.512050 2.484040
    vertex 2.068800 8.683450 2.485350
  endloop
endfacet
facet normal -0.000231 -0.000040 -0.000034
  outer loop
    vertex 2.098799 8.512050 2.484040
    vertex 2.068600 8.683450 2.486700
    vertex 2.068800 8.683450 2.485350
  endloop
endfacet
facet normal -0.000676 -0.000117 -0.000123
  outer loop
    vertex 2.098799 8.512050 2.484040
    vertex 2.098099 8.511951 2.487980
    vertex 2.068600 8.683450 2.486700
  endloop
endfacet
facet normal -0.000233 -0.000040 -0.000037
  outer loop
    vertex 2.098099 8.511951 2.487980
    vertex 2.068400 8.683351 2.488060
    vertex 2.068600 8.683450 2.486700
  endloop
endfacet
facet normal -0.000645 -0.000233 -0.000116
  outer loop
    vertex 2.143300 8.524450 2.484040
    vertex 2.084000 8.688050 2.485350
    vertex 2.143900 8.524751 2.480100
  endloop
endfacet
facet normal -0.000221 -0.000080 -0.000033
  outer loop
    vertex 2.143300 8.524450 2.484040
    vertex 2.083800 8.688050 2.486700
    vertex 2.084000 8.688050 2.485350
  endloop
endfacet
facet normal -0.000645 -0.000233 -0.000110
  outer loop
    vertex 2.142701 8.524249 2.487980
    vertex 2.083800 8.688050 2.486700
    vertex 2.143300 8.524450 2.484040
  endloop
endfacet
facet normal -0.000223 -0.000080 -0.000039
  outer loop
    vertex 2.142701 8.524249 2.487980
    vertex 2.083600 8.687949 2.488060
    vertex 2.083800 8.688050 2.486700
  endloop
endfacet
facet normal -0.000595 -0.000342 -0.000101
  outer loop
    vertex 2.185000 8.544450 2.484040
    vertex 2.098099 8.695251 2.485350
    vertex 2.185500 8.544749 2.480100
  endloop
endfacet
facet normal -0.000204 -0.000117 -0.000039
  outer loop
    vertex 2.185000 8.544450 2.484040
    vertex 2.097901 8.695150 2.486700
    vertex 2.098099 8.695251 2.485350
  endloop
endfacet
facet normal -0.000595 -0.000342 -0.000117
  outer loop
    vertex 2.184399 8.544151 2.487980
    vertex 2.097901 8.695150 2.486700
    vertex 2.185000 8.544450 2.484040
  endloop
endfacet
facet normal -0.000205 -0.000118 -0.000039
  outer loop
    vertex 2.184399 8.544151 2.487980
    vertex 2.097701 8.695050 2.488060
    vertex 2.097901 8.695150 2.486700
  endloop
endfacet
facet normal -0.000527 -0.000439 -0.000111
  outer loop
    vertex 2.222500 8.571349 2.484040
    vertex 2.110800 8.704850 2.485350
    vertex 2.223000 8.571750 2.480100
  endloop
endfacet
facet normal -0.000181 -0.000151 -0.000049
  outer loop
    vertex 2.222500 8.571349 2.484040
    vertex 2.110600 8.704650 2.486700
    vertex 2.110800 8.704850 2.485350
  endloop
endfacet
facet normal -0.000526 -0.000440 -0.000111
  outer loop
    vertex 2.222001 8.570951 2.487980
    vertex 2.110600 8.704650 2.486700
    vertex 2.222500 8.571349 2.484040
  endloop
endfacet
facet normal -0.000182 -0.000152 -0.000024
  outer loop
    vertex 2.222001 8.570951 2.487980
    vertex 2.110501 8.704551 2.488060
    vertex 2.110600 8.704650 2.486700
  endloop
endfacet
facet normal -0.000442 -0.000524 -0.000123
  outer loop
    vertex 2.121600 8.716451 2.485350
    vertex 2.255299 8.604850 2.480100
    vertex 2.254799 8.604350 2.484040
  endloop
endfacet
facet normal -0.000152 -0.000180 -0.000038
  outer loop
    vertex 2.121600 8.716451 2.485350
    vertex 2.254799 8.604350 2.484040
    vertex 2.121500 8.716251 2.486700
  endloop
endfacet
facet normal -0.000442 -0.000524 -0.000111
  outer loop
    vertex 2.121500 8.716251 2.486700
    vertex 2.254799 8.604350 2.484040
    vertex 2.254401 8.603851 2.487980
  endloop
endfacet
facet normal -0.000153 -0.000181 -0.000038
  outer loop
    vertex 2.121500 8.716251 2.486700
    vertex 2.254401 8.603851 2.487980
    vertex 2.121399 8.716050 2.488060
  endloop
endfacet
facet normal -0.000345 -0.000593 -0.000117
  outer loop
    vertex 2.130299 8.729751 2.485350
    vertex 2.281201 8.643050 2.480100
    vertex 2.280900 8.642450 2.484040
  endloop
endfacet
facet normal -0.000118 -0.000203 -0.000054
  outer loop
    vertex 2.130299 8.729751 2.485350
    vertex 2.280900 8.642450 2.484040
    vertex 2.130200 8.729449 2.486700
  endloop
endfacet
facet normal -0.000344 -0.000593 -0.000116
  outer loop
    vertex 2.130200 8.729449 2.486700
    vertex 2.280900 8.642450 2.484040
    vertex 2.280600 8.641851 2.487980
  endloop
endfacet
facet normal -0.000119 -0.000205 -0.000039
  outer loop
    vertex 2.130200 8.729449 2.486700
    vertex 2.280600 8.641851 2.487980
    vertex 2.130101 8.729249 2.488060
  endloop
endfacet
facet normal -0.000236 -0.000644 -0.000126
  outer loop
    vertex 2.136500 8.744250 2.485350
    vertex 2.300200 8.685250 2.480100
    vertex 2.300000 8.684550 2.484040
  endloop
endfacet
facet normal -0.000081 -0.000221 -0.000039
  outer loop
    vertex 2.136500 8.744250 2.485350
    vertex 2.300000 8.684550 2.484040
    vertex 2.136401 8.744050 2.486700
  endloop
endfacet
facet normal -0.000236 -0.000644 -0.000116
  outer loop
    vertex 2.136401 8.744050 2.486700
    vertex 2.300000 8.684550 2.484040
    vertex 2.299700 8.683950 2.487980
  endloop
endfacet
facet normal -0.000081 -0.000222 -0.000033
  outer loop
    vertex 2.136401 8.744050 2.486700
    vertex 2.299700 8.683950 2.487980
    vertex 2.136401 8.743850 2.488060
  endloop
endfacet
facet normal -0.000121 -0.000675 -0.000106
  outer loop
    vertex 2.140101 8.759750 2.485350
    vertex 2.311600 8.729949 2.480100
    vertex 2.311499 8.729350 2.484040
  endloop
endfacet
facet normal -0.000041 -0.000231 -0.000034
  outer loop
    vertex 2.140101 8.759750 2.485350
    vertex 2.311499 8.729350 2.484040
    vertex 2.140101 8.759549 2.486700
  endloop
endfacet
facet normal -0.000121 -0.000675 -0.000126
  outer loop
    vertex 2.311499 8.729350 2.484040
    vertex 2.311301 8.728650 2.487980
    vertex 2.140101 8.759549 2.486700
  endloop
endfacet
facet normal -0.000042 -0.000233 -0.000054
  outer loop
    vertex 2.311301 8.728650 2.487980
    vertex 2.140000 8.759250 2.488060
    vertex 2.140101 8.759549 2.486700
  endloop
endfacet
facet normal -0.000002 -0.000686 -0.000122
  outer loop
    vertex 2.314999 8.776050 2.480100
    vertex 2.314999 8.775350 2.484040
    vertex 2.140900 8.775550 2.485350
  endloop
endfacet
facet normal -0.000001 -0.000235 -0.000035
  outer loop
    vertex 2.314999 8.775350 2.484040
    vertex 2.140999 8.775350 2.486700
    vertex 2.140900 8.775550 2.485350
  endloop
endfacet
facet normal -0.000002 -0.000686 -0.000122
  outer loop
    vertex 2.314999 8.775350 2.484040
    vertex 2.314999 8.774650 2.487980
    vertex 2.140999 8.775350 2.486700
  endloop
endfacet
facet normal -0.000001 -0.000237 -0.000035
  outer loop
    vertex 2.314999 8.774650 2.487980
    vertex 2.140999 8.775150 2.488060
    vertex 2.140999 8.775350 2.486700
  endloop
endfacet
facet normal 0.000236 0.000644 -0.000126
  outer loop
    vertex 1.963500 8.800750 2.485350
    vertex 1.799799 8.859750 2.480100
    vertex 1.800000 8.860450 2.484040
  endloop
endfacet
facet normal 0.000081 0.000221 -0.000039
  outer loop
    vertex 1.963500 8.800750 2.485350
    vertex 1.800000 8.860450 2.484040
    vertex 1.963601 8.800950 2.486700
  endloop
endfacet
facet normal 0.000236 0.000644 -0.000110
  outer loop
    vertex 1.963601 8.800950 2.486700
    vertex 1.800000 8.860450 2.484040
    vertex 1.800200 8.861051 2.487980
  endloop
endfacet
facet normal 0.000081 0.000222 -0.000033
  outer loop
    vertex 1.963601 8.800950 2.486700
    vertex 1.800200 8.861051 2.487980
    vertex 1.963601 8.801151 2.488060
  endloop
endfacet
endsolid outlet_source_sink
