solid b'origin-inlet'
facet normal 0.000117 -0.000676 -0.000126
  outer loop
    vertex 21.408300 30.685101 9.695250
    vertex 21.579599 30.715799 9.690000
    vertex 21.579800 30.715099 9.693940
  endloop
endfacet
facet normal 0.000040 -0.000232 -0.000037
  outer loop
    vertex 21.408300 30.685101 9.695250
    vertex 21.579800 30.715099 9.693940
    vertex 21.408400 30.684900 9.696600
  endloop
endfacet
facet normal 0.000117 -0.000676 -0.000123
  outer loop
    vertex 21.579800 30.715099 9.693940
    vertex 21.579901 30.714399 9.697880
    vertex 21.408400 30.684900 9.696600
  endloop
endfacet
facet normal 0.000041 -0.000233 -0.000051
  outer loop
    vertex 21.408400 30.684900 9.696600
    vertex 21.579901 30.714399 9.697880
    vertex 21.408400 30.684601 9.697960
  endloop
endfacet
facet normal 0.000233 -0.000645 -0.000110
  outer loop
    vertex 21.403700 30.700300 9.695250
    vertex 21.567101 30.760201 9.690000
    vertex 21.567301 30.759600 9.693940
  endloop
endfacet
facet normal 0.000080 -0.000221 -0.000055
  outer loop
    vertex 21.403700 30.700300 9.695250
    vertex 21.567301 30.759600 9.693940
    vertex 21.403799 30.700001 9.696600
  endloop
endfacet
facet normal 0.000233 -0.000645 -0.000132
  outer loop
    vertex 21.567301 30.759600 9.693940
    vertex 21.567600 30.758900 9.697880
    vertex 21.403799 30.700001 9.696600
  endloop
endfacet
facet normal 0.000080 -0.000223 -0.000039
  outer loop
    vertex 21.403799 30.700001 9.696600
    vertex 21.567600 30.758900 9.697880
    vertex 21.403900 30.699800 9.697960
  endloop
endfacet
facet normal 0.000341 -0.000595 -0.000116
  outer loop
    vertex 21.547001 30.801800 9.690000
    vertex 21.547300 30.801201 9.693940
    vertex 21.396500 30.714399 9.695250
  endloop
endfacet
facet normal 0.000117 -0.000204 -0.000039
  outer loop
    vertex 21.396500 30.714399 9.695250
    vertex 21.547300 30.801201 9.693940
    vertex 21.396601 30.714199 9.696600
  endloop
endfacet
facet normal 0.000341 -0.000595 -0.000125
  outer loop
    vertex 21.547300 30.801201 9.693940
    vertex 21.547701 30.800600 9.697880
    vertex 21.396601 30.714199 9.696600
  endloop
endfacet
facet normal 0.000118 -0.000205 -0.000047
  outer loop
    vertex 21.396601 30.714199 9.696600
    vertex 21.547701 30.800600 9.697880
    vertex 21.396799 30.714001 9.697960
  endloop
endfacet
facet normal 0.000440 -0.000526 -0.000111
  outer loop
    vertex 21.386999 30.727100 9.695250
    vertex 21.520000 30.839300 9.690000
    vertex 21.520399 30.838800 9.693940
  endloop
endfacet
facet normal 0.000151 -0.000180 -0.000038
  outer loop
    vertex 21.386999 30.727100 9.695250
    vertex 21.520399 30.838800 9.693940
    vertex 21.387100 30.726900 9.696600
  endloop
endfacet
facet normal 0.000440 -0.000526 -0.000123
  outer loop
    vertex 21.520399 30.838800 9.693940
    vertex 21.520901 30.838301 9.697880
    vertex 21.387100 30.726900 9.696600
  endloop
endfacet
facet normal 0.000152 -0.000182 -0.000049
  outer loop
    vertex 21.387100 30.726900 9.696600
    vertex 21.520901 30.838301 9.697880
    vertex 21.387300 30.726700 9.697960
  endloop
endfacet
facet normal 0.000524 -0.000442 -0.000111
  outer loop
    vertex 21.375401 30.737900 9.695250
    vertex 21.486900 30.871500 9.690000
    vertex 21.487400 30.871099 9.693940
  endloop
endfacet
facet normal 0.000180 -0.000152 -0.000038
  outer loop
    vertex 21.375401 30.737900 9.695250
    vertex 21.487400 30.871099 9.693940
    vertex 21.375601 30.737801 9.696600
  endloop
endfacet
facet normal 0.000524 -0.000442 -0.000136
  outer loop
    vertex 21.487400 30.871099 9.693940
    vertex 21.488001 30.870600 9.697880
    vertex 21.375601 30.737801 9.696600
  endloop
endfacet
facet normal 0.000181 -0.000153 -0.000049
  outer loop
    vertex 21.375601 30.737801 9.696600
    vertex 21.488001 30.870600 9.697880
    vertex 21.375799 30.737600 9.697960
  endloop
endfacet
facet normal 0.000593 -0.000344 -0.000117
  outer loop
    vertex 21.362101 30.746599 9.695250
    vertex 21.448700 30.897499 9.690000
    vertex 21.449301 30.897200 9.693940
  endloop
endfacet
facet normal 0.000203 -0.000118 -0.000039
  outer loop
    vertex 21.362101 30.746599 9.695250
    vertex 21.449301 30.897200 9.693940
    vertex 21.362301 30.746500 9.696600
  endloop
endfacet
facet normal 0.000593 -0.000344 -0.000125
  outer loop
    vertex 21.449301 30.897200 9.693940
    vertex 21.449900 30.896799 9.697880
    vertex 21.362301 30.746500 9.696600
  endloop
endfacet
facet normal 0.000205 -0.000119 -0.000047
  outer loop
    vertex 21.362301 30.746500 9.696600
    vertex 21.449900 30.896799 9.697880
    vertex 21.362499 30.746300 9.697960
  endloop
endfacet
facet normal 0.000644 -0.000236 -0.000116
  outer loop
    vertex 21.347500 30.752800 9.695250
    vertex 21.406601 30.916500 9.690000
    vertex 21.407200 30.916201 9.693940
  endloop
endfacet
facet normal 0.000221 -0.000081 -0.000039
  outer loop
    vertex 21.347500 30.752800 9.695250
    vertex 21.407200 30.916201 9.693940
    vertex 21.347700 30.752701 9.696600
  endloop
endfacet
facet normal 0.000644 -0.000236 -0.000126
  outer loop
    vertex 21.407200 30.916201 9.693940
    vertex 21.407900 30.916000 9.697880
    vertex 21.347700 30.752701 9.696600
  endloop
endfacet
facet normal 0.000222 -0.000082 -0.000039
  outer loop
    vertex 21.347700 30.752701 9.696600
    vertex 21.407900 30.916000 9.697880
    vertex 21.347900 30.752600 9.697960
  endloop
endfacet
facet normal 0.000000 -0.000000 0.000000
  outer loop
    vertex 21.332100 30.756399 9.695250
    vertex 21.361799 30.927799 9.690000
    vertex 21.332100 30.756399 9.695250
  endloop
endfacet
facet normal 0.000675 -0.000121 -0.000123
  outer loop
    vertex 21.332100 30.756399 9.695250
    vertex 21.361799 30.927799 9.690000
    vertex 21.362499 30.927700 9.693940
  endloop
endfacet
facet normal 0.000231 -0.000041 -0.000037
  outer loop
    vertex 21.332100 30.756399 9.695250
    vertex 21.362499 30.927700 9.693940
    vertex 21.332300 30.756300 9.696600
  endloop
endfacet
facet normal 0.000675 -0.000121 -0.000123
  outer loop
    vertex 21.362499 30.927700 9.693940
    vertex 21.363199 30.927601 9.697880
    vertex 21.332300 30.756300 9.696600
  endloop
endfacet
facet normal 0.000233 -0.000042 -0.000034
  outer loop
    vertex 21.332300 30.756300 9.696600
    vertex 21.363199 30.927601 9.697880
    vertex 21.332500 30.756300 9.697960
  endloop
endfacet
facet normal 0.000686 -0.000002 -0.000105
  outer loop
    vertex 21.316200 30.757200 9.695250
    vertex 21.315800 30.931200 9.690000
    vertex 21.316401 30.931200 9.693940
  endloop
endfacet
facet normal 0.000235 -0.000001 -0.000035
  outer loop
    vertex 21.316200 30.757200 9.695250
    vertex 21.316401 30.931200 9.693940
    vertex 21.316401 30.757200 9.696600
  endloop
endfacet
facet normal 0.000685 -0.000002 -0.000122
  outer loop
    vertex 21.316401 30.931200 9.693940
    vertex 21.317101 30.931200 9.697880
    vertex 21.316401 30.757200 9.696600
  endloop
endfacet
facet normal 0.000237 -0.000001 -0.000052
  outer loop
    vertex 21.316401 30.757200 9.696600
    vertex 21.317101 30.931200 9.697880
    vertex 21.316700 30.757200 9.697960
  endloop
endfacet
facet normal 0.000676 0.000117 -0.000123
  outer loop
    vertex 21.300501 30.755301 9.695250
    vertex 21.269800 30.926600 9.690000
    vertex 21.270500 30.926701 9.693940
  endloop
endfacet
facet normal 0.000231 0.000040 -0.000034
  outer loop
    vertex 21.300501 30.755301 9.695250
    vertex 21.270500 30.926701 9.693940
    vertex 21.300699 30.755301 9.696600
  endloop
endfacet
facet normal 0.000676 0.000117 -0.000106
  outer loop
    vertex 21.270500 30.926701 9.693940
    vertex 21.271099 30.926800 9.697880
    vertex 21.300699 30.755301 9.696600
  endloop
endfacet
facet normal 0.000233 0.000041 -0.000037
  outer loop
    vertex 21.300699 30.755301 9.696600
    vertex 21.271099 30.926800 9.697880
    vertex 21.300900 30.755400 9.697960
  endloop
endfacet
facet normal 0.000645 0.000233 -0.000132
  outer loop
    vertex 21.285299 30.750700 9.695250
    vertex 21.225300 30.914000 9.690000
    vertex 21.226000 30.914301 9.693940
  endloop
endfacet
facet normal 0.000221 0.000080 -0.000039
  outer loop
    vertex 21.285299 30.750700 9.695250
    vertex 21.226000 30.914301 9.693940
    vertex 21.285500 30.750799 9.696600
  endloop
endfacet
facet normal 0.000645 0.000233 -0.000110
  outer loop
    vertex 21.226000 30.914301 9.693940
    vertex 21.226601 30.914499 9.697880
    vertex 21.285500 30.750799 9.696600
  endloop
endfacet
facet normal 0.000223 0.000080 -0.000033
  outer loop
    vertex 21.285500 30.750799 9.696600
    vertex 21.226601 30.914499 9.697880
    vertex 21.285700 30.750799 9.697960
  endloop
endfacet
facet normal 0.000595 0.000342 -0.000117
  outer loop
    vertex 21.271200 30.743500 9.695250
    vertex 21.183701 30.893999 9.690000
    vertex 21.184299 30.894300 9.693940
  endloop
endfacet
facet normal 0.000204 0.000117 -0.000039
  outer loop
    vertex 21.271200 30.743500 9.695250
    vertex 21.184299 30.894300 9.693940
    vertex 21.271400 30.743601 9.696600
  endloop
endfacet
facet normal 0.000595 0.000342 -0.000125
  outer loop
    vertex 21.184299 30.894300 9.693940
    vertex 21.184900 30.894699 9.697880
    vertex 21.271400 30.743601 9.696600
  endloop
endfacet
facet normal 0.000205 0.000118 -0.000039
  outer loop
    vertex 21.271400 30.743601 9.696600
    vertex 21.184900 30.894699 9.697880
    vertex 21.271601 30.743700 9.697960
  endloop
endfacet
facet normal 0.000527 0.000440 -0.000111
  outer loop
    vertex 21.258499 30.733900 9.695250
    vertex 21.146299 30.867001 9.690000
    vertex 21.146799 30.867399 9.693940
  endloop
endfacet
facet normal 0.000181 0.000151 -0.000036
  outer loop
    vertex 21.258499 30.733900 9.695250
    vertex 21.146799 30.867399 9.693940
    vertex 21.258600 30.734100 9.696600
  endloop
endfacet
facet normal 0.000526 0.000439 -0.000112
  outer loop
    vertex 21.146799 30.867399 9.693940
    vertex 21.147301 30.867800 9.697880
    vertex 21.258600 30.734100 9.696600
  endloop
endfacet
facet normal 0.000182 0.000152 -0.000049
  outer loop
    vertex 21.258600 30.734100 9.696600
    vertex 21.147301 30.867800 9.697880
    vertex 21.258801 30.734301 9.697960
  endloop
endfacet
facet normal 0.000442 0.000524 -0.000122
  outer loop
    vertex 21.247601 30.722401 9.695250
    vertex 21.114000 30.833900 9.690000
    vertex 21.114500 30.834400 9.693940
  endloop
endfacet
facet normal 0.000151 0.000179 -0.000036
  outer loop
    vertex 21.247601 30.722401 9.695250
    vertex 21.114500 30.834400 9.693940
    vertex 21.247801 30.722500 9.696600
  endloop
endfacet
facet normal 0.000442 0.000524 -0.000111
  outer loop
    vertex 21.114500 30.834400 9.693940
    vertex 21.114901 30.834900 9.697880
    vertex 21.247801 30.722500 9.696600
  endloop
endfacet
facet normal 0.000153 0.000181 -0.000038
  outer loop
    vertex 21.247801 30.722500 9.696600
    vertex 21.114901 30.834900 9.697880
    vertex 21.247900 30.722700 9.697960
  endloop
endfacet
facet normal 0.000344 0.000593 -0.000125
  outer loop
    vertex 21.239000 30.709101 9.695250
    vertex 21.087999 30.795700 9.690000
    vertex 21.088400 30.796301 9.693940
  endloop
endfacet
facet normal 0.000118 0.000203 -0.000039
  outer loop
    vertex 21.239000 30.709101 9.695250
    vertex 21.088400 30.796301 9.693940
    vertex 21.239100 30.709299 9.696600
  endloop
endfacet
facet normal 0.000344 0.000593 -0.000116
  outer loop
    vertex 21.088400 30.796301 9.693940
    vertex 21.088699 30.796900 9.697880
    vertex 21.239100 30.709299 9.696600
  endloop
endfacet
facet normal 0.000119 0.000205 -0.000039
  outer loop
    vertex 21.239100 30.709299 9.696600
    vertex 21.088699 30.796900 9.697880
    vertex 21.239201 30.709499 9.697960
  endloop
endfacet
facet normal 0.000121 0.000675 -0.000106
  outer loop
    vertex 21.057699 30.708799 9.690000
    vertex 21.057800 30.709400 9.693940
    vertex 21.229200 30.679001 9.695250
  endloop
endfacet
facet normal 0.000042 0.000233 -0.000034
  outer loop
    vertex 21.229200 30.679001 9.695250
    vertex 21.057800 30.709400 9.693940
    vertex 21.229200 30.679199 9.696610
  endloop
endfacet
facet normal 0.000121 0.000675 -0.000126
  outer loop
    vertex 21.057800 30.709400 9.693940
    vertex 21.058001 30.710100 9.697880
    vertex 21.229200 30.679199 9.696610
  endloop
endfacet
facet normal 0.000041 0.000231 -0.000055
  outer loop
    vertex 21.229200 30.679199 9.696610
    vertex 21.058001 30.710100 9.697880
    vertex 21.229300 30.679501 9.697960
  endloop
endfacet
facet normal 0.000002 0.000686 -0.000122
  outer loop
    vertex 21.228300 30.663200 9.695250
    vertex 21.054300 30.662701 9.690000
    vertex 21.054300 30.663401 9.693940
  endloop
endfacet
facet normal 0.000001 0.000235 -0.000035
  outer loop
    vertex 21.228300 30.663200 9.695250
    vertex 21.054300 30.663401 9.693940
    vertex 21.228300 30.663401 9.696600
  endloop
endfacet
facet normal 0.000002 0.000685 -0.000122
  outer loop
    vertex 21.054300 30.663401 9.693940
    vertex 21.054300 30.664101 9.697880
    vertex 21.228300 30.663401 9.696600
  endloop
endfacet
facet normal 0.000001 0.000237 -0.000035
  outer loop
    vertex 21.228300 30.663401 9.696600
    vertex 21.054300 30.664101 9.697880
    vertex 21.228300 30.663601 9.697960
  endloop
endfacet
facet normal -0.000117 0.000676 -0.000109
  outer loop
    vertex 21.230301 30.647400 9.695250
    vertex 21.059000 30.616800 9.690000
    vertex 21.058800 30.617399 9.693940
  endloop
endfacet
facet normal -0.000040 0.000232 -0.000054
  outer loop
    vertex 21.230301 30.647400 9.695250
    vertex 21.058800 30.617399 9.693940
    vertex 21.230200 30.647699 9.696600
  endloop
endfacet
facet normal -0.000118 0.000676 -0.000123
  outer loop
    vertex 21.058800 30.617399 9.693940
    vertex 21.058701 30.618099 9.697880
    vertex 21.230200 30.647699 9.696600
  endloop
endfacet
facet normal -0.000041 0.000233 -0.000034
  outer loop
    vertex 21.230200 30.647699 9.696600
    vertex 21.058701 30.618099 9.697880
    vertex 21.230200 30.647900 9.697960
  endloop
endfacet
facet normal -0.000233 0.000645 -0.000110
  outer loop
    vertex 21.234900 30.632299 9.695250
    vertex 21.071501 30.572300 9.690000
    vertex 21.071301 30.572901 9.693940
  endloop
endfacet
facet normal -0.000080 0.000221 -0.000039
  outer loop
    vertex 21.234900 30.632299 9.695250
    vertex 21.071301 30.572901 9.693940
    vertex 21.234800 30.632500 9.696600
  endloop
endfacet
facet normal -0.000233 0.000645 -0.000132
  outer loop
    vertex 21.071301 30.572901 9.693940
    vertex 21.070999 30.573601 9.697880
    vertex 21.234800 30.632500 9.696600
  endloop
endfacet
facet normal -0.000080 0.000223 -0.000039
  outer loop
    vertex 21.234800 30.632500 9.696600
    vertex 21.070999 30.573601 9.697880
    vertex 21.234699 30.632700 9.697960
  endloop
endfacet
facet normal -0.000341 0.000595 -0.000125
  outer loop
    vertex 21.242100 30.618099 9.695250
    vertex 21.091600 30.530701 9.690000
    vertex 21.091200 30.531300 9.693940
  endloop
endfacet
facet normal -0.000117 0.000204 -0.000048
  outer loop
    vertex 21.242100 30.618099 9.695250
    vertex 21.091200 30.531300 9.693940
    vertex 21.241899 30.618299 9.696600
  endloop
endfacet
facet normal -0.000341 0.000594 -0.000117
  outer loop
    vertex 21.091200 30.531300 9.693940
    vertex 21.090900 30.531900 9.697880
    vertex 21.241899 30.618299 9.696600
  endloop
endfacet
facet normal -0.000118 0.000205 -0.000039
  outer loop
    vertex 21.241899 30.618299 9.696600
    vertex 21.090900 30.531900 9.697880
    vertex 21.241800 30.618500 9.697960
  endloop
endfacet
facet normal -0.000440 0.000527 -0.000123
  outer loop
    vertex 21.251600 30.605400 9.695250
    vertex 21.118601 30.493200 9.690000
    vertex 21.118099 30.493700 9.693940
  endloop
endfacet
facet normal -0.000151 0.000181 -0.000049
  outer loop
    vertex 21.251600 30.605400 9.695250
    vertex 21.118099 30.493700 9.693940
    vertex 21.251400 30.605600 9.696600
  endloop
endfacet
facet normal -0.000439 0.000526 -0.000125
  outer loop
    vertex 21.118099 30.493700 9.693940
    vertex 21.117701 30.494301 9.697880
    vertex 21.251400 30.605600 9.696600
  endloop
endfacet
facet normal -0.000152 0.000182 -0.000038
  outer loop
    vertex 21.251400 30.605600 9.696600
    vertex 21.117701 30.494301 9.697880
    vertex 21.251301 30.605801 9.697960
  endloop
endfacet
facet normal -0.000524 0.000442 -0.000111
  outer loop
    vertex 21.263201 30.594601 9.695250
    vertex 21.151699 30.461000 9.690000
    vertex 21.151199 30.461399 9.693940
  endloop
endfacet
facet normal -0.000180 0.000152 -0.000049
  outer loop
    vertex 21.263201 30.594601 9.695250
    vertex 21.151199 30.461399 9.693940
    vertex 21.263000 30.594801 9.696600
  endloop
endfacet
facet normal -0.000524 0.000442 -0.000136
  outer loop
    vertex 21.151199 30.461399 9.693940
    vertex 21.150600 30.461901 9.697880
    vertex 21.263000 30.594801 9.696600
  endloop
endfacet
facet normal -0.000181 0.000153 -0.000038
  outer loop
    vertex 21.263000 30.594801 9.696600
    vertex 21.150600 30.461901 9.697880
    vertex 21.262800 30.594900 9.697960
  endloop
endfacet
facet normal -0.000593 0.000344 -0.000117
  outer loop
    vertex 21.276501 30.586000 9.695250
    vertex 21.189899 30.434999 9.690000
    vertex 21.189301 30.435301 9.693940
  endloop
endfacet
facet normal -0.000203 0.000118 -0.000039
  outer loop
    vertex 21.276501 30.586000 9.695250
    vertex 21.189301 30.435301 9.693940
    vertex 21.276300 30.586100 9.696600
  endloop
endfacet
facet normal -0.000593 0.000344 -0.000125
  outer loop
    vertex 21.189301 30.435301 9.693940
    vertex 21.188700 30.435699 9.697880
    vertex 21.276300 30.586100 9.696600
  endloop
endfacet
facet normal -0.000205 0.000119 -0.000039
  outer loop
    vertex 21.276300 30.586100 9.696600
    vertex 21.188700 30.435699 9.697880
    vertex 21.276100 30.586201 9.697960
  endloop
endfacet
facet normal -0.000644 0.000237 -0.000132
  outer loop
    vertex 21.291100 30.579700 9.695250
    vertex 21.232000 30.416000 9.690000
    vertex 21.231300 30.416300 9.693940
  endloop
endfacet
facet normal -0.000221 0.000081 -0.000039
  outer loop
    vertex 21.291100 30.579700 9.695250
    vertex 21.231300 30.416300 9.693940
    vertex 21.290899 30.579800 9.696600
  endloop
endfacet
facet normal -0.000644 0.000236 -0.000110
  outer loop
    vertex 21.231300 30.416300 9.693940
    vertex 21.230700 30.416500 9.697880
    vertex 21.290899 30.579800 9.696600
  endloop
endfacet
facet normal -0.000222 0.000081 -0.000055
  outer loop
    vertex 21.290899 30.579800 9.696600
    vertex 21.230700 30.416500 9.697880
    vertex 21.290600 30.579901 9.697960
  endloop
endfacet
facet normal -0.000675 0.000121 -0.000123
  outer loop
    vertex 21.306499 30.576200 9.695250
    vertex 21.276800 30.404699 9.690000
    vertex 21.276100 30.404800 9.693940
  endloop
endfacet
facet normal -0.000231 0.000041 -0.000034
  outer loop
    vertex 21.306499 30.576200 9.695250
    vertex 21.276100 30.404800 9.693940
    vertex 21.306299 30.576200 9.696600
  endloop
endfacet
facet normal -0.000675 0.000121 -0.000123
  outer loop
    vertex 21.276100 30.404800 9.693940
    vertex 21.275400 30.404900 9.697880
    vertex 21.306299 30.576200 9.696600
  endloop
endfacet
facet normal -0.000233 0.000042 -0.000034
  outer loop
    vertex 21.306299 30.576200 9.696600
    vertex 21.275400 30.404900 9.697880
    vertex 21.306101 30.576200 9.697960
  endloop
endfacet
facet normal -0.000686 0.000002 -0.000122
  outer loop
    vertex 21.322399 30.575300 9.695250
    vertex 21.322800 30.401300 9.690000
    vertex 21.322100 30.401300 9.693940
  endloop
endfacet
facet normal -0.000235 0.000001 -0.000052
  outer loop
    vertex 21.322399 30.575300 9.695250
    vertex 21.322100 30.401300 9.693940
    vertex 21.322100 30.575300 9.696600
  endloop
endfacet
facet normal -0.000685 0.000002 -0.000104
  outer loop
    vertex 21.322100 30.401300 9.693940
    vertex 21.321501 30.401300 9.697880
    vertex 21.322100 30.575300 9.696600
  endloop
endfacet
facet normal -0.000237 0.000001 -0.000035
  outer loop
    vertex 21.322100 30.575300 9.696600
    vertex 21.321501 30.401300 9.697880
    vertex 21.321899 30.575300 9.697960
  endloop
endfacet
facet normal -0.000676 -0.000117 -0.000123
  outer loop
    vertex 21.338100 30.577200 9.695250
    vertex 21.368799 30.405899 9.690000
    vertex 21.368099 30.405800 9.693940
  endloop
endfacet
facet normal -0.000231 -0.000040 -0.000034
  outer loop
    vertex 21.338100 30.577200 9.695250
    vertex 21.368099 30.405800 9.693940
    vertex 21.337900 30.577200 9.696600
  endloop
endfacet
facet normal -0.000676 -0.000117 -0.000123
  outer loop
    vertex 21.368099 30.405800 9.693940
    vertex 21.367399 30.405701 9.697880
    vertex 21.337900 30.577200 9.696600
  endloop
endfacet
facet normal -0.000233 -0.000040 -0.000037
  outer loop
    vertex 21.337900 30.577200 9.696600
    vertex 21.367399 30.405701 9.697880
    vertex 21.337700 30.577101 9.697960
  endloop
endfacet
facet normal -0.000645 -0.000233 -0.000116
  outer loop
    vertex 21.353300 30.581800 9.695250
    vertex 21.413200 30.418501 9.690000
    vertex 21.412600 30.418200 9.693940
  endloop
endfacet
facet normal -0.000221 -0.000080 -0.000033
  outer loop
    vertex 21.353300 30.581800 9.695250
    vertex 21.412600 30.418200 9.693940
    vertex 21.353100 30.581800 9.696600
  endloop
endfacet
facet normal -0.000645 -0.000233 -0.000110
  outer loop
    vertex 21.412600 30.418200 9.693940
    vertex 21.412001 30.417999 9.697880
    vertex 21.353100 30.581800 9.696600
  endloop
endfacet
facet normal -0.000223 -0.000080 -0.000039
  outer loop
    vertex 21.353100 30.581800 9.696600
    vertex 21.412001 30.417999 9.697880
    vertex 21.352900 30.581699 9.697960
  endloop
endfacet
facet normal -0.000595 -0.000342 -0.000101
  outer loop
    vertex 21.367399 30.589001 9.695250
    vertex 21.454800 30.438499 9.690000
    vertex 21.454300 30.438200 9.693940
  endloop
endfacet
facet normal -0.000204 -0.000117 -0.000039
  outer loop
    vertex 21.367399 30.589001 9.695250
    vertex 21.454300 30.438200 9.693940
    vertex 21.367201 30.588900 9.696600
  endloop
endfacet
facet normal -0.000594 -0.000342 -0.000117
  outer loop
    vertex 21.454300 30.438200 9.693940
    vertex 21.453699 30.437901 9.697880
    vertex 21.367201 30.588900 9.696600
  endloop
endfacet
facet normal -0.000205 -0.000118 -0.000039
  outer loop
    vertex 21.367201 30.588900 9.696600
    vertex 21.453699 30.437901 9.697880
    vertex 21.367001 30.588800 9.697960
  endloop
endfacet
facet normal -0.000527 -0.000440 -0.000111
  outer loop
    vertex 21.380100 30.598600 9.695250
    vertex 21.492300 30.465500 9.690000
    vertex 21.491800 30.465099 9.693940
  endloop
endfacet
facet normal -0.000181 -0.000151 -0.000049
  outer loop
    vertex 21.380100 30.598600 9.695250
    vertex 21.491800 30.465099 9.693940
    vertex 21.379900 30.598400 9.696600
  endloop
endfacet
facet normal -0.000526 -0.000440 -0.000111
  outer loop
    vertex 21.491800 30.465099 9.693940
    vertex 21.491301 30.464701 9.697880
    vertex 21.379900 30.598400 9.696600
  endloop
endfacet
facet normal -0.000182 -0.000152 -0.000024
  outer loop
    vertex 21.379900 30.598400 9.696600
    vertex 21.491301 30.464701 9.697880
    vertex 21.379801 30.598301 9.697960
  endloop
endfacet
facet normal -0.000442 -0.000524 -0.000123
  outer loop
    vertex 21.390900 30.610201 9.695250
    vertex 21.524599 30.498600 9.690000
    vertex 21.524099 30.498100 9.693940
  endloop
endfacet
facet normal -0.000152 -0.000180 -0.000038
  outer loop
    vertex 21.390900 30.610201 9.695250
    vertex 21.524099 30.498100 9.693940
    vertex 21.390800 30.610001 9.696600
  endloop
endfacet
facet normal -0.000442 -0.000524 -0.000111
  outer loop
    vertex 21.524099 30.498100 9.693940
    vertex 21.523701 30.497601 9.697880
    vertex 21.390800 30.610001 9.696600
  endloop
endfacet
facet normal -0.000153 -0.000181 -0.000038
  outer loop
    vertex 21.390800 30.610001 9.696600
    vertex 21.523701 30.497601 9.697880
    vertex 21.390699 30.609800 9.697960
  endloop
endfacet
facet normal -0.000345 -0.000593 -0.000117
  outer loop
    vertex 21.399599 30.623501 9.695250
    vertex 21.550501 30.536800 9.690000
    vertex 21.550200 30.536200 9.693940
  endloop
endfacet
facet normal -0.000118 -0.000203 -0.000054
  outer loop
    vertex 21.399599 30.623501 9.695250
    vertex 21.550200 30.536200 9.693940
    vertex 21.399500 30.623199 9.696600
  endloop
endfacet
facet normal -0.000344 -0.000593 -0.000116
  outer loop
    vertex 21.550200 30.536200 9.693940
    vertex 21.549900 30.535601 9.697880
    vertex 21.399500 30.623199 9.696600
  endloop
endfacet
facet normal -0.000119 -0.000205 -0.000039
  outer loop
    vertex 21.399500 30.623199 9.696600
    vertex 21.549900 30.535601 9.697880
    vertex 21.399401 30.622999 9.697960
  endloop
endfacet
facet normal -0.000236 -0.000644 -0.000126
  outer loop
    vertex 21.405800 30.638000 9.695250
    vertex 21.569500 30.579000 9.690000
    vertex 21.569300 30.578300 9.693940
  endloop
endfacet
facet normal -0.000081 -0.000221 -0.000039
  outer loop
    vertex 21.405800 30.638000 9.695250
    vertex 21.569300 30.578300 9.693940
    vertex 21.405701 30.637800 9.696600
  endloop
endfacet
facet normal -0.000236 -0.000644 -0.000116
  outer loop
    vertex 21.569300 30.578300 9.693940
    vertex 21.569000 30.577700 9.697880
    vertex 21.405701 30.637800 9.696600
  endloop
endfacet
facet normal -0.000081 -0.000222 -0.000033
  outer loop
    vertex 21.405701 30.637800 9.696600
    vertex 21.569000 30.577700 9.697880
    vertex 21.405701 30.637600 9.697960
  endloop
endfacet
facet normal 0.000000 -0.000000 0.000000
  outer loop
    vertex 21.409401 30.653500 9.695250
    vertex 21.580900 30.623699 9.690000
    vertex 21.409401 30.653500 9.695250
  endloop
endfacet
facet normal -0.000121 -0.000675 -0.000106
  outer loop
    vertex 21.409401 30.653500 9.695250
    vertex 21.580900 30.623699 9.690000
    vertex 21.580799 30.623100 9.693940
  endloop
endfacet
facet normal 0.000000 -0.000000 0.000000
  outer loop
    vertex 21.409401 30.653500 9.695250
    vertex 21.580799 30.623100 9.693940
    vertex 21.409401 30.653500 9.695250
  endloop
endfacet
facet normal -0.000041 -0.000231 -0.000034
  outer loop
    vertex 21.409401 30.653500 9.695250
    vertex 21.580799 30.623100 9.693940
    vertex 21.409401 30.653299 9.696600
  endloop
endfacet
facet normal -0.000121 -0.000675 -0.000126
  outer loop
    vertex 21.580799 30.623100 9.693940
    vertex 21.580601 30.622400 9.697880
    vertex 21.409401 30.653299 9.696600
  endloop
endfacet
facet normal -0.000042 -0.000233 -0.000054
  outer loop
    vertex 21.409401 30.653299 9.696600
    vertex 21.580601 30.622400 9.697880
    vertex 21.409300 30.653000 9.697960
  endloop
endfacet
facet normal -0.000002 -0.000686 -0.000122
  outer loop
    vertex 21.410200 30.669300 9.695250
    vertex 21.584299 30.669800 9.690000
    vertex 21.584299 30.669100 9.693940
  endloop
endfacet
facet normal -0.000001 -0.000235 -0.000035
  outer loop
    vertex 21.410200 30.669300 9.695250
    vertex 21.584299 30.669100 9.693940
    vertex 21.410299 30.669100 9.696600
  endloop
endfacet
facet normal -0.000002 -0.000685 -0.000122
  outer loop
    vertex 21.584299 30.669100 9.693940
    vertex 21.584299 30.668400 9.697880
    vertex 21.410299 30.669100 9.696600
  endloop
endfacet
facet normal -0.000001 -0.000237 -0.000035
  outer loop
    vertex 21.410299 30.669100 9.696600
    vertex 21.584299 30.668400 9.697880
    vertex 21.410299 30.668900 9.697960
  endloop
endfacet
facet normal 0.000236 0.000644 -0.000126
  outer loop
    vertex 21.232800 30.694500 9.695250
    vertex 21.069099 30.753500 9.690000
    vertex 21.069300 30.754200 9.693940
  endloop
endfacet
facet normal 0.000081 0.000221 -0.000039
  outer loop
    vertex 21.232800 30.694500 9.695250
    vertex 21.069300 30.754200 9.693940
    vertex 21.232901 30.694700 9.696600
  endloop
endfacet
facet normal 0.000236 0.000644 -0.000110
  outer loop
    vertex 21.069300 30.754200 9.693940
    vertex 21.069500 30.754801 9.697880
    vertex 21.232901 30.694700 9.696600
  endloop
endfacet
facet normal 0.000081 0.000222 -0.000033
  outer loop
    vertex 21.232901 30.694700 9.696600
    vertex 21.069500 30.754801 9.697880
    vertex 21.232901 30.694901 9.697960
  endloop
endfacet
endsolid b'origin-inlet'
