solid inlet_source_sink
facet normal 0.000117 -0.000676 -0.000126
  outer loop
    vertex 2.310299 6.966999 2.480000
    vertex 2.310500 6.966299 2.483940
    vertex 2.139000 6.936301 2.485250
  endloop
endfacet
facet normal 0.000040 -0.000232 -0.000038
  outer loop
    vertex 2.139000 6.936301 2.485250
    vertex 2.310500 6.966299 2.483940
    vertex 2.139100 6.936100 2.486600
  endloop
endfacet
facet normal 0.000117 -0.000676 -0.000123
  outer loop
    vertex 2.310500 6.966299 2.483940
    vertex 2.310601 6.965599 2.487880
    vertex 2.139100 6.936100 2.486600
  endloop
endfacet
facet normal 0.000041 -0.000233 -0.000051
  outer loop
    vertex 2.310601 6.965599 2.487880
    vertex 2.139100 6.935801 2.487960
    vertex 2.139100 6.936100 2.486600
  endloop
endfacet
facet normal 0.000233 -0.000645 -0.000110
  outer loop
    vertex 2.134400 6.951500 2.485250
    vertex 2.297801 7.011401 2.480000
    vertex 2.298001 7.010800 2.483940
  endloop
endfacet
facet normal 0.000080 -0.000221 -0.000055
  outer loop
    vertex 2.134400 6.951500 2.485250
    vertex 2.298001 7.010800 2.483940
    vertex 2.134499 6.951201 2.486600
  endloop
endfacet
facet normal 0.000233 -0.000645 -0.000132
  outer loop
    vertex 2.134499 6.951201 2.486600
    vertex 2.298001 7.010800 2.483940
    vertex 2.298300 7.010100 2.487880
  endloop
endfacet
facet normal 0.000080 -0.000223 -0.000039
  outer loop
    vertex 2.134499 6.951201 2.486600
    vertex 2.298300 7.010100 2.487880
    vertex 2.134600 6.951000 2.487960
  endloop
endfacet
facet normal 0.000341 -0.000595 -0.000116
  outer loop
    vertex 2.127200 6.965599 2.485250
    vertex 2.277701 7.053000 2.480000
    vertex 2.278000 7.052401 2.483940
  endloop
endfacet
facet normal 0.000117 -0.000204 -0.000039
  outer loop
    vertex 2.127200 6.965599 2.485250
    vertex 2.278000 7.052401 2.483940
    vertex 2.127301 6.965399 2.486600
  endloop
endfacet
facet normal 0.000341 -0.000595 -0.000125
  outer loop
    vertex 2.127301 6.965399 2.486600
    vertex 2.278000 7.052401 2.483940
    vertex 2.278401 7.051800 2.487880
  endloop
endfacet
facet normal 0.000118 -0.000205 -0.000047
  outer loop
    vertex 2.127301 6.965399 2.486600
    vertex 2.278401 7.051800 2.487880
    vertex 2.127499 6.965201 2.487960
  endloop
endfacet
facet normal 0.000439 -0.000526 -0.000111
  outer loop
    vertex 2.117699 6.978300 2.485250
    vertex 2.250700 7.090500 2.480000
    vertex 2.251099 7.090000 2.483940
  endloop
endfacet
facet normal 0.000151 -0.000180 -0.000038
  outer loop
    vertex 2.117699 6.978300 2.485250
    vertex 2.251099 7.090000 2.483940
    vertex 2.117800 6.978100 2.486600
  endloop
endfacet
facet normal 0.000440 -0.000527 -0.000123
  outer loop
    vertex 2.117800 6.978100 2.486600
    vertex 2.251099 7.090000 2.483940
    vertex 2.251601 7.089501 2.487880
  endloop
endfacet
facet normal 0.000152 -0.000182 -0.000049
  outer loop
    vertex 2.117800 6.978100 2.486600
    vertex 2.251601 7.089501 2.487880
    vertex 2.118000 6.977900 2.487960
  endloop
endfacet
facet normal 0.000524 -0.000442 -0.000112
  outer loop
    vertex 2.218100 7.122299 2.483940
    vertex 2.106101 6.989100 2.485250
    vertex 2.217600 7.122700 2.480000
  endloop
endfacet
facet normal 0.000180 -0.000151 -0.000038
  outer loop
    vertex 2.218100 7.122299 2.483940
    vertex 2.106301 6.989001 2.486600
    vertex 2.106101 6.989100 2.485250
  endloop
endfacet
facet normal 0.000524 -0.000442 -0.000136
  outer loop
    vertex 2.218701 7.121800 2.487880
    vertex 2.106301 6.989001 2.486600
    vertex 2.218100 7.122299 2.483940
  endloop
endfacet
facet normal 0.000181 -0.000153 -0.000049
  outer loop
    vertex 2.218701 7.121800 2.487880
    vertex 2.106499 6.988800 2.487960
    vertex 2.106301 6.989001 2.486600
  endloop
endfacet
facet normal 0.000593 -0.000344 -0.000117
  outer loop
    vertex 2.180001 7.148400 2.483940
    vertex 2.092801 6.997799 2.485250
    vertex 2.179400 7.148699 2.480000
  endloop
endfacet
facet normal 0.000203 -0.000118 -0.000039
  outer loop
    vertex 2.180001 7.148400 2.483940
    vertex 2.093001 6.997700 2.486600
    vertex 2.092801 6.997799 2.485250
  endloop
endfacet
facet normal 0.000593 -0.000344 -0.000125
  outer loop
    vertex 2.180600 7.147999 2.487880
    vertex 2.093001 6.997700 2.486600
    vertex 2.180001 7.148400 2.483940
  endloop
endfacet
facet normal 0.000205 -0.000119 -0.000047
  outer loop
    vertex 2.180600 7.147999 2.487880
    vertex 2.093199 6.997500 2.487960
    vertex 2.093001 6.997700 2.486600
  endloop
endfacet
facet normal 0.000643 -0.000236 -0.000116
  outer loop
    vertex 2.137900 7.167401 2.483940
    vertex 2.078200 7.004000 2.485250
    vertex 2.137301 7.167700 2.480000
  endloop
endfacet
facet normal 0.000220 -0.000081 -0.000039
  outer loop
    vertex 2.137900 7.167401 2.483940
    vertex 2.078400 7.003901 2.486600
    vertex 2.078200 7.004000 2.485250
  endloop
endfacet
facet normal 0.000644 -0.000236 -0.000126
  outer loop
    vertex 2.138600 7.167200 2.487880
    vertex 2.078400 7.003901 2.486600
    vertex 2.137900 7.167401 2.483940
  endloop
endfacet
facet normal 0.000222 -0.000082 -0.000039
  outer loop
    vertex 2.138600 7.167200 2.487880
    vertex 2.078600 7.003800 2.487960
    vertex 2.078400 7.003901 2.486600
  endloop
endfacet
facet normal 0.000675 -0.000121 -0.000123
  outer loop
    vertex 2.062800 7.007599 2.485250
    vertex 2.092499 7.178999 2.480000
    vertex 2.093199 7.178900 2.483940
  endloop
endfacet
facet normal 0.000231 -0.000041 -0.000037
  outer loop
    vertex 2.093199 7.178900 2.483940
    vertex 2.063000 7.007500 2.486600
    vertex 2.062800 7.007599 2.485250
  endloop
endfacet
facet normal 0.000675 -0.000121 -0.000123
  outer loop
    vertex 2.063000 7.007500 2.486600
    vertex 2.093199 7.178900 2.483940
    vertex 2.093899 7.178801 2.487880
  endloop
endfacet
facet normal 0.000233 -0.000042 -0.000034
  outer loop
    vertex 2.093899 7.178801 2.487880
    vertex 2.063200 7.007500 2.487960
    vertex 2.063000 7.007500 2.486600
  endloop
endfacet
facet normal 0.000686 -0.000002 -0.000105
  outer loop
    vertex 2.046900 7.008400 2.485250
    vertex 2.046500 7.182400 2.480000
    vertex 2.047101 7.182400 2.483940
  endloop
endfacet
facet normal 0.000235 -0.000001 -0.000035
  outer loop
    vertex 2.047101 7.008400 2.486600
    vertex 2.046900 7.008400 2.485250
    vertex 2.047101 7.182400 2.483940
  endloop
endfacet
facet normal 0.000686 -0.000002 -0.000122
  outer loop
    vertex 2.047101 7.008400 2.486600
    vertex 2.047101 7.182400 2.483940
    vertex 2.047801 7.182400 2.487880
  endloop
endfacet
facet normal 0.000237 -0.000001 -0.000052
  outer loop
    vertex 2.047400 7.008400 2.487960
    vertex 2.047101 7.008400 2.486600
    vertex 2.047801 7.182400 2.487880
  endloop
endfacet
facet normal 0.000675 0.000117 -0.000123
  outer loop
    vertex 2.031201 7.006501 2.485250
    vertex 2.000500 7.177800 2.480000
    vertex 2.001200 7.177901 2.483940
  endloop
endfacet
facet normal 0.000231 0.000040 -0.000034
  outer loop
    vertex 2.001200 7.177901 2.483940
    vertex 2.031399 7.006501 2.486600
    vertex 2.031201 7.006501 2.485250
  endloop
endfacet
facet normal 0.000676 0.000117 -0.000106
  outer loop
    vertex 2.001799 7.178000 2.487880
    vertex 2.031399 7.006501 2.486600
    vertex 2.001200 7.177901 2.483940
  endloop
endfacet
facet normal 0.000233 0.000041 -0.000037
  outer loop
    vertex 2.001799 7.178000 2.487880
    vertex 2.031600 7.006600 2.487960
    vertex 2.031399 7.006501 2.486600
  endloop
endfacet
facet normal 0.000645 0.000233 -0.000132
  outer loop
    vertex 1.956700 7.165501 2.483940
    vertex 2.015999 7.001900 2.485250
    vertex 1.956000 7.165200 2.480000
  endloop
endfacet
facet normal 0.000221 0.000080 -0.000039
  outer loop
    vertex 1.956700 7.165501 2.483940
    vertex 2.016200 7.001999 2.486600
    vertex 2.015999 7.001900 2.485250
  endloop
endfacet
facet normal 0.000645 0.000233 -0.000110
  outer loop
    vertex 1.957301 7.165699 2.487880
    vertex 2.016200 7.001999 2.486600
    vertex 1.956700 7.165501 2.483940
  endloop
endfacet
facet normal 0.000223 0.000080 -0.000033
  outer loop
    vertex 1.957301 7.165699 2.487880
    vertex 2.016400 7.001999 2.487960
    vertex 2.016200 7.001999 2.486600
  endloop
endfacet
facet normal 0.000595 0.000342 -0.000116
  outer loop
    vertex 1.914999 7.145500 2.483940
    vertex 2.001900 6.994700 2.485250
    vertex 1.914401 7.145199 2.480000
  endloop
endfacet
facet normal 0.000204 0.000117 -0.000039
  outer loop
    vertex 1.914999 7.145500 2.483940
    vertex 2.002100 6.994801 2.486600
    vertex 2.001900 6.994700 2.485250
  endloop
endfacet
facet normal 0.000595 0.000342 -0.000125
  outer loop
    vertex 1.915600 7.145899 2.487880
    vertex 2.002100 6.994801 2.486600
    vertex 1.914999 7.145500 2.483940
  endloop
endfacet
facet normal 0.000205 0.000118 -0.000039
  outer loop
    vertex 1.915600 7.145899 2.487880
    vertex 2.002301 6.994900 2.487960
    vertex 2.002100 6.994801 2.486600
  endloop
endfacet
facet normal 0.000526 0.000439 -0.000111
  outer loop
    vertex 1.877499 7.118599 2.483940
    vertex 1.989199 6.985100 2.485250
    vertex 1.876999 7.118201 2.480000
  endloop
endfacet
facet normal 0.000180 0.000151 -0.000036
  outer loop
    vertex 1.877499 7.118599 2.483940
    vertex 1.989300 6.985300 2.486600
    vertex 1.989199 6.985100 2.485250
  endloop
endfacet
facet normal 0.000526 0.000439 -0.000112
  outer loop
    vertex 1.878001 7.119000 2.487880
    vertex 1.989300 6.985300 2.486600
    vertex 1.877499 7.118599 2.483940
  endloop
endfacet
facet normal 0.000182 0.000152 -0.000049
  outer loop
    vertex 1.878001 7.119000 2.487880
    vertex 1.989501 6.985501 2.487960
    vertex 1.989300 6.985300 2.486600
  endloop
endfacet
facet normal 0.000442 0.000524 -0.000123
  outer loop
    vertex 1.978301 6.973601 2.485250
    vertex 1.844700 7.085100 2.480000
    vertex 1.845200 7.085600 2.483940
  endloop
endfacet
facet normal 0.000151 0.000179 -0.000036
  outer loop
    vertex 1.978301 6.973601 2.485250
    vertex 1.845200 7.085600 2.483940
    vertex 1.978501 6.973700 2.486600
  endloop
endfacet
facet normal 0.000442 0.000524 -0.000112
  outer loop
    vertex 1.978501 6.973700 2.486600
    vertex 1.845200 7.085600 2.483940
    vertex 1.845601 7.086100 2.487880
  endloop
endfacet
facet normal 0.000153 0.000181 -0.000038
  outer loop
    vertex 1.978501 6.973700 2.486600
    vertex 1.845601 7.086100 2.487880
    vertex 1.978600 6.973900 2.487960
  endloop
endfacet
facet normal 0.000344 0.000593 -0.000126
  outer loop
    vertex 1.969700 6.960301 2.485250
    vertex 1.818699 7.046900 2.480000
    vertex 1.819100 7.047501 2.483940
  endloop
endfacet
facet normal 0.000118 0.000203 -0.000039
  outer loop
    vertex 1.969700 6.960301 2.485250
    vertex 1.819100 7.047501 2.483940
    vertex 1.969800 6.960499 2.486600
  endloop
endfacet
facet normal 0.000344 0.000593 -0.000116
  outer loop
    vertex 1.969800 6.960499 2.486600
    vertex 1.819100 7.047501 2.483940
    vertex 1.819399 7.048100 2.487880
  endloop
endfacet
facet normal 0.000119 0.000205 -0.000039
  outer loop
    vertex 1.969800 6.960499 2.486600
    vertex 1.819399 7.048100 2.487880
    vertex 1.969901 6.960699 2.487960
  endloop
endfacet
facet normal 0.000121 0.000675 -0.000106
  outer loop
    vertex 1.959900 6.930201 2.485250
    vertex 1.788399 6.959999 2.480000
    vertex 1.788500 6.960600 2.483940
  endloop
endfacet
facet normal 0.000042 0.000233 -0.000034
  outer loop
    vertex 1.959900 6.930201 2.485250
    vertex 1.788500 6.960600 2.483940
    vertex 1.959900 6.930399 2.486610
  endloop
endfacet
facet normal 0.000121 0.000675 -0.000126
  outer loop
    vertex 1.959900 6.930399 2.486610
    vertex 1.788500 6.960600 2.483940
    vertex 1.788701 6.961300 2.487880
  endloop
endfacet
facet normal 0.000041 0.000231 -0.000055
  outer loop
    vertex 1.960000 6.930701 2.487960
    vertex 1.959900 6.930399 2.486610
    vertex 1.788701 6.961300 2.487880
  endloop
endfacet
facet normal 0.000002 0.000686 -0.000122
  outer loop
    vertex 1.959000 6.914400 2.485250
    vertex 1.785000 6.913901 2.480000
    vertex 1.785000 6.914601 2.483940
  endloop
endfacet
facet normal 0.000001 0.000235 -0.000035
  outer loop
    vertex 1.959000 6.914601 2.486600
    vertex 1.959000 6.914400 2.485250
    vertex 1.785000 6.914601 2.483940
  endloop
endfacet
facet normal 0.000002 0.000686 -0.000122
  outer loop
    vertex 1.959000 6.914601 2.486600
    vertex 1.785000 6.914601 2.483940
    vertex 1.785000 6.915301 2.487880
  endloop
endfacet
facet normal 0.000001 0.000237 -0.000035
  outer loop
    vertex 1.959000 6.914801 2.487960
    vertex 1.959000 6.914601 2.486600
    vertex 1.785000 6.915301 2.487880
  endloop
endfacet
facet normal -0.000117 0.000676 -0.000109
  outer loop
    vertex 1.961001 6.898600 2.485250
    vertex 1.789700 6.868000 2.480000
    vertex 1.789500 6.868599 2.483940
  endloop
endfacet
facet normal -0.000040 0.000232 -0.000054
  outer loop
    vertex 1.960900 6.898899 2.486600
    vertex 1.961001 6.898600 2.485250
    vertex 1.789500 6.868599 2.483940
  endloop
endfacet
facet normal -0.000118 0.000676 -0.000123
  outer loop
    vertex 1.960900 6.898899 2.486600
    vertex 1.789500 6.868599 2.483940
    vertex 1.789401 6.869299 2.487880
  endloop
endfacet
facet normal -0.000041 0.000233 -0.000034
  outer loop
    vertex 1.960900 6.898899 2.486600
    vertex 1.789401 6.869299 2.487880
    vertex 1.960900 6.899100 2.487960
  endloop
endfacet
facet normal -0.000233 0.000645 -0.000110
  outer loop
    vertex 1.965600 6.883499 2.485250
    vertex 1.802201 6.823500 2.480000
    vertex 1.802001 6.824101 2.483940
  endloop
endfacet
facet normal -0.000080 0.000221 -0.000039
  outer loop
    vertex 1.965600 6.883499 2.485250
    vertex 1.802001 6.824101 2.483940
    vertex 1.965500 6.883700 2.486600
  endloop
endfacet
facet normal -0.000233 0.000645 -0.000132
  outer loop
    vertex 1.965500 6.883700 2.486600
    vertex 1.802001 6.824101 2.483940
    vertex 1.801699 6.824801 2.487880
  endloop
endfacet
facet normal -0.000080 0.000223 -0.000039
  outer loop
    vertex 1.965500 6.883700 2.486600
    vertex 1.801699 6.824801 2.487880
    vertex 1.965399 6.883900 2.487960
  endloop
endfacet
facet normal -0.000341 0.000595 -0.000125
  outer loop
    vertex 1.972800 6.869299 2.485250
    vertex 1.822300 6.781901 2.480000
    vertex 1.821900 6.782500 2.483940
  endloop
endfacet
facet normal -0.000117 0.000204 -0.000048
  outer loop
    vertex 1.972800 6.869299 2.485250
    vertex 1.821900 6.782500 2.483940
    vertex 1.972599 6.869499 2.486600
  endloop
endfacet
facet normal -0.000341 0.000595 -0.000117
  outer loop
    vertex 1.972599 6.869499 2.486600
    vertex 1.821900 6.782500 2.483940
    vertex 1.821600 6.783100 2.487880
  endloop
endfacet
facet normal -0.000118 0.000205 -0.000039
  outer loop
    vertex 1.972599 6.869499 2.486600
    vertex 1.821600 6.783100 2.487880
    vertex 1.972500 6.869700 2.487960
  endloop
endfacet
facet normal -0.000439 0.000527 -0.000123
  outer loop
    vertex 1.982300 6.856600 2.485250
    vertex 1.849301 6.744400 2.480000
    vertex 1.848799 6.744900 2.483940
  endloop
endfacet
facet normal -0.000151 0.000180 -0.000049
  outer loop
    vertex 1.982300 6.856600 2.485250
    vertex 1.848799 6.744900 2.483940
    vertex 1.982100 6.856800 2.486600
  endloop
endfacet
facet normal -0.000439 0.000526 -0.000125
  outer loop
    vertex 1.982100 6.856800 2.486600
    vertex 1.848799 6.744900 2.483940
    vertex 1.848401 6.745501 2.487880
  endloop
endfacet
facet normal -0.000152 0.000182 -0.000038
  outer loop
    vertex 1.982100 6.856800 2.486600
    vertex 1.848401 6.745501 2.487880
    vertex 1.982001 6.857001 2.487960
  endloop
endfacet
facet normal -0.000524 0.000442 -0.000111
  outer loop
    vertex 1.881899 6.712599 2.483940
    vertex 1.993901 6.845801 2.485250
    vertex 1.882399 6.712200 2.480000
  endloop
endfacet
facet normal -0.000180 0.000151 -0.000049
  outer loop
    vertex 1.881899 6.712599 2.483940
    vertex 1.993700 6.846001 2.486600
    vertex 1.993901 6.845801 2.485250
  endloop
endfacet
facet normal -0.000524 0.000442 -0.000136
  outer loop
    vertex 1.881300 6.713101 2.487880
    vertex 1.993700 6.846001 2.486600
    vertex 1.881899 6.712599 2.483940
  endloop
endfacet
facet normal -0.000181 0.000153 -0.000038
  outer loop
    vertex 1.881300 6.713101 2.487880
    vertex 1.993500 6.846100 2.487960
    vertex 1.993700 6.846001 2.486600
  endloop
endfacet
facet normal -0.000593 0.000344 -0.000116
  outer loop
    vertex 1.920001 6.686501 2.483940
    vertex 2.007201 6.837200 2.485250
    vertex 1.920599 6.686199 2.480000
  endloop
endfacet
facet normal -0.000203 0.000118 -0.000039
  outer loop
    vertex 1.920001 6.686501 2.483940
    vertex 2.007000 6.837300 2.486600
    vertex 2.007201 6.837200 2.485250
  endloop
endfacet
facet normal -0.000593 0.000344 -0.000125
  outer loop
    vertex 1.919400 6.686899 2.487880
    vertex 2.007000 6.837300 2.486600
    vertex 1.920001 6.686501 2.483940
  endloop
endfacet
facet normal -0.000205 0.000119 -0.000039
  outer loop
    vertex 1.919400 6.686899 2.487880
    vertex 2.006800 6.837401 2.487960
    vertex 2.007000 6.837300 2.486600
  endloop
endfacet
facet normal -0.000643 0.000237 -0.000132
  outer loop
    vertex 1.962000 6.667500 2.483940
    vertex 2.021800 6.830900 2.485250
    vertex 1.962700 6.667200 2.480000
  endloop
endfacet
facet normal -0.000220 0.000081 -0.000039
  outer loop
    vertex 1.962000 6.667500 2.483940
    vertex 2.021599 6.831000 2.486600
    vertex 2.021800 6.830900 2.485250
  endloop
endfacet
facet normal -0.000644 0.000236 -0.000110
  outer loop
    vertex 1.961400 6.667700 2.487880
    vertex 2.021599 6.831000 2.486600
    vertex 1.962000 6.667500 2.483940
  endloop
endfacet
facet normal -0.000222 0.000081 -0.000055
  outer loop
    vertex 1.961400 6.667700 2.487880
    vertex 2.021300 6.831101 2.487960
    vertex 2.021599 6.831000 2.486600
  endloop
endfacet
facet normal -0.000675 0.000121 -0.000123
  outer loop
    vertex 2.007500 6.655899 2.480000
    vertex 2.006800 6.656000 2.483940
    vertex 2.037199 6.827400 2.485250
  endloop
endfacet
facet normal -0.000231 0.000041 -0.000034
  outer loop
    vertex 2.006800 6.656000 2.483940
    vertex 2.036999 6.827400 2.486600
    vertex 2.037199 6.827400 2.485250
  endloop
endfacet
facet normal -0.000675 0.000121 -0.000123
  outer loop
    vertex 2.006800 6.656000 2.483940
    vertex 2.006100 6.656100 2.487880
    vertex 2.036999 6.827400 2.486600
  endloop
endfacet
facet normal -0.000233 0.000042 -0.000034
  outer loop
    vertex 2.006100 6.656100 2.487880
    vertex 2.036801 6.827400 2.487960
    vertex 2.036999 6.827400 2.486600
  endloop
endfacet
facet normal -0.000686 0.000002 -0.000122
  outer loop
    vertex 2.053500 6.652500 2.480000
    vertex 2.052800 6.652500 2.483940
    vertex 2.053099 6.826500 2.485250
  endloop
endfacet
facet normal -0.000235 0.000001 -0.000052
  outer loop
    vertex 2.052800 6.652500 2.483940
    vertex 2.052800 6.826500 2.486600
    vertex 2.053099 6.826500 2.485250
  endloop
endfacet
facet normal -0.000686 0.000002 -0.000104
  outer loop
    vertex 2.052800 6.652500 2.483940
    vertex 2.052201 6.652500 2.487880
    vertex 2.052800 6.826500 2.486600
  endloop
endfacet
facet normal -0.000237 0.000001 -0.000035
  outer loop
    vertex 2.052201 6.652500 2.487880
    vertex 2.052599 6.826500 2.487960
    vertex 2.052800 6.826500 2.486600
  endloop
endfacet
facet normal -0.000675 -0.000117 -0.000123
  outer loop
    vertex 2.099499 6.657099 2.480000
    vertex 2.098799 6.657000 2.483940
    vertex 2.068800 6.828400 2.485250
  endloop
endfacet
facet normal -0.000231 -0.000040 -0.000034
  outer loop
    vertex 2.098799 6.657000 2.483940
    vertex 2.068600 6.828400 2.486600
    vertex 2.068800 6.828400 2.485250
  endloop
endfacet
facet normal -0.000676 -0.000117 -0.000123
  outer loop
    vertex 2.098799 6.657000 2.483940
    vertex 2.098099 6.656901 2.487880
    vertex 2.068600 6.828400 2.486600
  endloop
endfacet
facet normal -0.000233 -0.000040 -0.000037
  outer loop
    vertex 2.098099 6.656901 2.487880
    vertex 2.068400 6.828301 2.487960
    vertex 2.068600 6.828400 2.486600
  endloop
endfacet
facet normal -0.000645 -0.000233 -0.000116
  outer loop
    vertex 2.143300 6.669400 2.483940
    vertex 2.084000 6.833000 2.485250
    vertex 2.143900 6.669701 2.480000
  endloop
endfacet
facet normal -0.000221 -0.000080 -0.000033
  outer loop
    vertex 2.143300 6.669400 2.483940
    vertex 2.083800 6.833000 2.486600
    vertex 2.084000 6.833000 2.485250
  endloop
endfacet
facet normal -0.000645 -0.000233 -0.000110
  outer loop
    vertex 2.142701 6.669199 2.487880
    vertex 2.083800 6.833000 2.486600
    vertex 2.143300 6.669400 2.483940
  endloop
endfacet
facet normal -0.000223 -0.000080 -0.000039
  outer loop
    vertex 2.142701 6.669199 2.487880
    vertex 2.083600 6.832899 2.487960
    vertex 2.083800 6.833000 2.486600
  endloop
endfacet
facet normal -0.000595 -0.000342 -0.000101
  outer loop
    vertex 2.185000 6.689400 2.483940
    vertex 2.098099 6.840201 2.485250
    vertex 2.185500 6.689699 2.480000
  endloop
endfacet
facet normal -0.000204 -0.000117 -0.000039
  outer loop
    vertex 2.185000 6.689400 2.483940
    vertex 2.097901 6.840100 2.486600
    vertex 2.098099 6.840201 2.485250
  endloop
endfacet
facet normal -0.000595 -0.000342 -0.000117
  outer loop
    vertex 2.184399 6.689101 2.487880
    vertex 2.097901 6.840100 2.486600
    vertex 2.185000 6.689400 2.483940
  endloop
endfacet
facet normal -0.000205 -0.000118 -0.000039
  outer loop
    vertex 2.184399 6.689101 2.487880
    vertex 2.097701 6.840000 2.487960
    vertex 2.097901 6.840100 2.486600
  endloop
endfacet
facet normal -0.000527 -0.000439 -0.000112
  outer loop
    vertex 2.222500 6.716299 2.483940
    vertex 2.110800 6.849800 2.485250
    vertex 2.223000 6.716700 2.480000
  endloop
endfacet
facet normal -0.000180 -0.000151 -0.000049
  outer loop
    vertex 2.222500 6.716299 2.483940
    vertex 2.110600 6.849600 2.486600
    vertex 2.110800 6.849800 2.485250
  endloop
endfacet
facet normal -0.000526 -0.000440 -0.000111
  outer loop
    vertex 2.222001 6.715901 2.487880
    vertex 2.110600 6.849600 2.486600
    vertex 2.222500 6.716299 2.483940
  endloop
endfacet
facet normal -0.000182 -0.000152 -0.000024
  outer loop
    vertex 2.222001 6.715901 2.487880
    vertex 2.110501 6.849501 2.487960
    vertex 2.110600 6.849600 2.486600
  endloop
endfacet
facet normal -0.000442 -0.000524 -0.000123
  outer loop
    vertex 2.121600 6.861401 2.485250
    vertex 2.255299 6.749800 2.480000
    vertex 2.254799 6.749300 2.483940
  endloop
endfacet
facet normal -0.000152 -0.000180 -0.000038
  outer loop
    vertex 2.121600 6.861401 2.485250
    vertex 2.254799 6.749300 2.483940
    vertex 2.121500 6.861201 2.486600
  endloop
endfacet
facet normal -0.000442 -0.000524 -0.000111
  outer loop
    vertex 2.121500 6.861201 2.486600
    vertex 2.254799 6.749300 2.483940
    vertex 2.254401 6.748801 2.487880
  endloop
endfacet
facet normal -0.000153 -0.000181 -0.000038
  outer loop
    vertex 2.121500 6.861201 2.486600
    vertex 2.254401 6.748801 2.487880
    vertex 2.121399 6.861000 2.487960
  endloop
endfacet
facet normal -0.000345 -0.000593 -0.000117
  outer loop
    vertex 2.130299 6.874701 2.485250
    vertex 2.281201 6.788000 2.480000
    vertex 2.280900 6.787400 2.483940
  endloop
endfacet
facet normal -0.000118 -0.000203 -0.000054
  outer loop
    vertex 2.130299 6.874701 2.485250
    vertex 2.280900 6.787400 2.483940
    vertex 2.130200 6.874399 2.486600
  endloop
endfacet
facet normal -0.000344 -0.000593 -0.000116
  outer loop
    vertex 2.130200 6.874399 2.486600
    vertex 2.280900 6.787400 2.483940
    vertex 2.280600 6.786801 2.487880
  endloop
endfacet
facet normal -0.000119 -0.000205 -0.000039
  outer loop
    vertex 2.130200 6.874399 2.486600
    vertex 2.280600 6.786801 2.487880
    vertex 2.130101 6.874199 2.487960
  endloop
endfacet
facet normal -0.000236 -0.000644 -0.000126
  outer loop
    vertex 2.136500 6.889200 2.485250
    vertex 2.300200 6.830200 2.480000
    vertex 2.300000 6.829500 2.483940
  endloop
endfacet
facet normal -0.000081 -0.000221 -0.000039
  outer loop
    vertex 2.136500 6.889200 2.485250
    vertex 2.300000 6.829500 2.483940
    vertex 2.136401 6.889000 2.486600
  endloop
endfacet
facet normal -0.000236 -0.000644 -0.000116
  outer loop
    vertex 2.136401 6.889000 2.486600
    vertex 2.300000 6.829500 2.483940
    vertex 2.299700 6.828900 2.487880
  endloop
endfacet
facet normal -0.000081 -0.000222 -0.000033
  outer loop
    vertex 2.136401 6.889000 2.486600
    vertex 2.299700 6.828900 2.487880
    vertex 2.136401 6.888800 2.487960
  endloop
endfacet
facet normal -0.000121 -0.000675 -0.000106
  outer loop
    vertex 2.140101 6.904700 2.485250
    vertex 2.311600 6.874899 2.480000
    vertex 2.311499 6.874300 2.483940
  endloop
endfacet
facet normal -0.000041 -0.000231 -0.000034
  outer loop
    vertex 2.140101 6.904700 2.485250
    vertex 2.311499 6.874300 2.483940
    vertex 2.140101 6.904499 2.486600
  endloop
endfacet
facet normal -0.000121 -0.000675 -0.000126
  outer loop
    vertex 2.311499 6.874300 2.483940
    vertex 2.311301 6.873600 2.487880
    vertex 2.140101 6.904499 2.486600
  endloop
endfacet
facet normal -0.000042 -0.000233 -0.000054
  outer loop
    vertex 2.311301 6.873600 2.487880
    vertex 2.140000 6.904200 2.487960
    vertex 2.140101 6.904499 2.486600
  endloop
endfacet
facet normal -0.000002 -0.000686 -0.000122
  outer loop
    vertex 2.314999 6.921000 2.480000
    vertex 2.314999 6.920300 2.483940
    vertex 2.140900 6.920500 2.485250
  endloop
endfacet
facet normal -0.000001 -0.000235 -0.000035
  outer loop
    vertex 2.314999 6.920300 2.483940
    vertex 2.140999 6.920300 2.486600
    vertex 2.140900 6.920500 2.485250
  endloop
endfacet
facet normal -0.000002 -0.000686 -0.000122
  outer loop
    vertex 2.314999 6.920300 2.483940
    vertex 2.314999 6.919600 2.487880
    vertex 2.140999 6.920300 2.486600
  endloop
endfacet
facet normal -0.000001 -0.000237 -0.000035
  outer loop
    vertex 2.314999 6.919600 2.487880
    vertex 2.140999 6.920100 2.487960
    vertex 2.140999 6.920300 2.486600
  endloop
endfacet
facet normal 0.000236 0.000644 -0.000126
  outer loop
    vertex 1.963500 6.945700 2.485250
    vertex 1.799799 7.004700 2.480000
    vertex 1.800000 7.005400 2.483940
  endloop
endfacet
facet normal 0.000081 0.000221 -0.000039
  outer loop
    vertex 1.963500 6.945700 2.485250
    vertex 1.800000 7.005400 2.483940
    vertex 1.963601 6.945900 2.486600
  endloop
endfacet
facet normal 0.000236 0.000644 -0.000110
  outer loop
    vertex 1.963601 6.945900 2.486600
    vertex 1.800000 7.005400 2.483940
    vertex 1.800200 7.006001 2.487880
  endloop
endfacet
facet normal 0.000081 0.000222 -0.000033
  outer loop
    vertex 1.963601 6.945900 2.486600
    vertex 1.800200 7.006001 2.487880
    vertex 1.963601 6.946101 2.487960
  endloop
endfacet
endsolid inlet_source_sink
