solid outlet_source_sink
facet normal 0.000117 -0.000676 -0.000126
  outer loop
    vertex 2.310299 8.821999 2.480000
    vertex 2.310500 8.821299 2.483940
    vertex 2.139000 8.791301 2.485250
  endloop
endfacet
facet normal 0.000040 -0.000232 -0.000038
  outer loop
    vertex 2.139000 8.791301 2.485250
    vertex 2.310500 8.821299 2.483940
    vertex 2.139100 8.791100 2.486600
  endloop
endfacet
facet normal 0.000117 -0.000676 -0.000123
  outer loop
    vertex 2.310500 8.821299 2.483940
    vertex 2.310601 8.820599 2.487880
    vertex 2.139100 8.791100 2.486600
  endloop
endfacet
facet normal 0.000041 -0.000233 -0.000051
  outer loop
    vertex 2.310601 8.820599 2.487880
    vertex 2.139100 8.790801 2.487960
    vertex 2.139100 8.791100 2.486600
  endloop
endfacet
facet normal 0.000233 -0.000645 -0.000110
  outer loop
    vertex 2.134400 8.806500 2.485250
    vertex 2.297801 8.866401 2.480000
    vertex 2.298001 8.865800 2.483940
  endloop
endfacet
facet normal 0.000080 -0.000221 -0.000055
  outer loop
    vertex 2.134400 8.806500 2.485250
    vertex 2.298001 8.865800 2.483940
    vertex 2.134499 8.806201 2.486600
  endloop
endfacet
facet normal 0.000233 -0.000645 -0.000132
  outer loop
    vertex 2.134499 8.806201 2.486600
    vertex 2.298001 8.865800 2.483940
    vertex 2.298300 8.865100 2.487880
  endloop
endfacet
facet normal 0.000080 -0.000223 -0.000039
  outer loop
    vertex 2.134499 8.806201 2.486600
    vertex 2.298300 8.865100 2.487880
    vertex 2.134600 8.806000 2.487960
  endloop
endfacet
facet normal 0.000341 -0.000595 -0.000116
  outer loop
    vertex 2.127200 8.820599 2.485250
    vertex 2.277701 8.908000 2.480000
    vertex 2.278000 8.907401 2.483940
  endloop
endfacet
facet normal 0.000117 -0.000204 -0.000039
  outer loop
    vertex 2.127200 8.820599 2.485250
    vertex 2.278000 8.907401 2.483940
    vertex 2.127301 8.820399 2.486600
  endloop
endfacet
facet normal 0.000341 -0.000595 -0.000125
  outer loop
    vertex 2.127301 8.820399 2.486600
    vertex 2.278000 8.907401 2.483940
    vertex 2.278401 8.906800 2.487880
  endloop
endfacet
facet normal 0.000118 -0.000205 -0.000047
  outer loop
    vertex 2.127301 8.820399 2.486600
    vertex 2.278401 8.906800 2.487880
    vertex 2.127499 8.820201 2.487960
  endloop
endfacet
facet normal 0.000439 -0.000526 -0.000111
  outer loop
    vertex 2.117699 8.833300 2.485250
    vertex 2.250700 8.945500 2.480000
    vertex 2.251099 8.945000 2.483940
  endloop
endfacet
facet normal 0.000151 -0.000180 -0.000038
  outer loop
    vertex 2.117699 8.833300 2.485250
    vertex 2.251099 8.945000 2.483940
    vertex 2.117800 8.833100 2.486600
  endloop
endfacet
facet normal 0.000440 -0.000527 -0.000123
  outer loop
    vertex 2.117800 8.833100 2.486600
    vertex 2.251099 8.945000 2.483940
    vertex 2.251601 8.944501 2.487880
  endloop
endfacet
facet normal 0.000152 -0.000182 -0.000049
  outer loop
    vertex 2.117800 8.833100 2.486600
    vertex 2.251601 8.944501 2.487880
    vertex 2.118000 8.832900 2.487960
  endloop
endfacet
facet normal 0.000524 -0.000442 -0.000112
  outer loop
    vertex 2.218100 8.977299 2.483940
    vertex 2.106101 8.844100 2.485250
    vertex 2.217600 8.977700 2.480000
  endloop
endfacet
facet normal 0.000180 -0.000151 -0.000038
  outer loop
    vertex 2.218100 8.977299 2.483940
    vertex 2.106301 8.844001 2.486600
    vertex 2.106101 8.844100 2.485250
  endloop
endfacet
facet normal 0.000524 -0.000442 -0.000136
  outer loop
    vertex 2.218701 8.976800 2.487880
    vertex 2.106301 8.844001 2.486600
    vertex 2.218100 8.977299 2.483940
  endloop
endfacet
facet normal 0.000181 -0.000153 -0.000049
  outer loop
    vertex 2.218701 8.976800 2.487880
    vertex 2.106499 8.843800 2.487960
    vertex 2.106301 8.844001 2.486600
  endloop
endfacet
facet normal 0.000593 -0.000344 -0.000117
  outer loop
    vertex 2.180001 9.003400 2.483940
    vertex 2.092801 8.852799 2.485250
    vertex 2.179400 9.003699 2.480000
  endloop
endfacet
facet normal 0.000203 -0.000118 -0.000039
  outer loop
    vertex 2.180001 9.003400 2.483940
    vertex 2.093001 8.852700 2.486600
    vertex 2.092801 8.852799 2.485250
  endloop
endfacet
facet normal 0.000593 -0.000344 -0.000125
  outer loop
    vertex 2.180600 9.002999 2.487880
    vertex 2.093001 8.852700 2.486600
    vertex 2.180001 9.003400 2.483940
  endloop
endfacet
facet normal 0.000205 -0.000119 -0.000047
  outer loop
    vertex 2.180600 9.002999 2.487880
    vertex 2.093199 8.852500 2.487960
    vertex 2.093001 8.852700 2.486600
  endloop
endfacet
facet normal 0.000643 -0.000236 -0.000116
  outer loop
    vertex 2.137900 9.022401 2.483940
    vertex 2.078200 8.859000 2.485250
    vertex 2.137301 9.022700 2.480000
  endloop
endfacet
facet normal 0.000220 -0.000081 -0.000039
  outer loop
    vertex 2.137900 9.022401 2.483940
    vertex 2.078400 8.858901 2.486600
    vertex 2.078200 8.859000 2.485250
  endloop
endfacet
facet normal 0.000644 -0.000236 -0.000126
  outer loop
    vertex 2.138600 9.022200 2.487880
    vertex 2.078400 8.858901 2.486600
    vertex 2.137900 9.022401 2.483940
  endloop
endfacet
facet normal 0.000222 -0.000082 -0.000039
  outer loop
    vertex 2.138600 9.022200 2.487880
    vertex 2.078600 8.858800 2.487960
    vertex 2.078400 8.858901 2.486600
  endloop
endfacet
facet normal 0.000675 -0.000121 -0.000123
  outer loop
    vertex 2.062800 8.862599 2.485250
    vertex 2.092499 9.033999 2.480000
    vertex 2.093199 9.033900 2.483940
  endloop
endfacet
facet normal 0.000231 -0.000041 -0.000037
  outer loop
    vertex 2.093199 9.033900 2.483940
    vertex 2.063000 8.862500 2.486600
    vertex 2.062800 8.862599 2.485250
  endloop
endfacet
facet normal 0.000675 -0.000121 -0.000123
  outer loop
    vertex 2.063000 8.862500 2.486600
    vertex 2.093199 9.033900 2.483940
    vertex 2.093899 9.033801 2.487880
  endloop
endfacet
facet normal 0.000233 -0.000042 -0.000034
  outer loop
    vertex 2.093899 9.033801 2.487880
    vertex 2.063200 8.862500 2.487960
    vertex 2.063000 8.862500 2.486600
  endloop
endfacet
facet normal 0.000686 -0.000002 -0.000105
  outer loop
    vertex 2.046900 8.863400 2.485250
    vertex 2.046500 9.037400 2.480000
    vertex 2.047101 9.037400 2.483940
  endloop
endfacet
facet normal 0.000235 -0.000001 -0.000035
  outer loop
    vertex 2.047101 8.863400 2.486600
    vertex 2.046900 8.863400 2.485250
    vertex 2.047101 9.037400 2.483940
  endloop
endfacet
facet normal 0.000686 -0.000002 -0.000122
  outer loop
    vertex 2.047101 8.863400 2.486600
    vertex 2.047101 9.037400 2.483940
    vertex 2.047801 9.037400 2.487880
  endloop
endfacet
facet normal 0.000237 -0.000001 -0.000052
  outer loop
    vertex 2.047400 8.863400 2.487960
    vertex 2.047101 8.863400 2.486600
    vertex 2.047801 9.037400 2.487880
  endloop
endfacet
facet normal 0.000675 0.000117 -0.000123
  outer loop
    vertex 2.031201 8.861501 2.485250
    vertex 2.000500 9.032800 2.480000
    vertex 2.001200 9.032901 2.483940
  endloop
endfacet
facet normal 0.000231 0.000040 -0.000034
  outer loop
    vertex 2.001200 9.032901 2.483940
    vertex 2.031399 8.861501 2.486600
    vertex 2.031201 8.861501 2.485250
  endloop
endfacet
facet normal 0.000676 0.000117 -0.000106
  outer loop
    vertex 2.001799 9.033000 2.487880
    vertex 2.031399 8.861501 2.486600
    vertex 2.001200 9.032901 2.483940
  endloop
endfacet
facet normal 0.000233 0.000041 -0.000037
  outer loop
    vertex 2.001799 9.033000 2.487880
    vertex 2.031600 8.861600 2.487960
    vertex 2.031399 8.861501 2.486600
  endloop
endfacet
facet normal 0.000645 0.000233 -0.000132
  outer loop
    vertex 1.956700 9.020501 2.483940
    vertex 2.015999 8.856900 2.485250
    vertex 1.956000 9.020200 2.480000
  endloop
endfacet
facet normal 0.000221 0.000080 -0.000039
  outer loop
    vertex 1.956700 9.020501 2.483940
    vertex 2.016200 8.856999 2.486600
    vertex 2.015999 8.856900 2.485250
  endloop
endfacet
facet normal 0.000645 0.000233 -0.000110
  outer loop
    vertex 1.957301 9.020699 2.487880
    vertex 2.016200 8.856999 2.486600
    vertex 1.956700 9.020501 2.483940
  endloop
endfacet
facet normal 0.000223 0.000080 -0.000033
  outer loop
    vertex 1.957301 9.020699 2.487880
    vertex 2.016400 8.856999 2.487960
    vertex 2.016200 8.856999 2.486600
  endloop
endfacet
facet normal 0.000595 0.000342 -0.000116
  outer loop
    vertex 1.914999 9.000500 2.483940
    vertex 2.001900 8.849700 2.485250
    vertex 1.914401 9.000199 2.480000
  endloop
endfacet
facet normal 0.000204 0.000117 -0.000039
  outer loop
    vertex 1.914999 9.000500 2.483940
    vertex 2.002100 8.849801 2.486600
    vertex 2.001900 8.849700 2.485250
  endloop
endfacet
facet normal 0.000595 0.000342 -0.000125
  outer loop
    vertex 1.915600 9.000899 2.487880
    vertex 2.002100 8.849801 2.486600
    vertex 1.914999 9.000500 2.483940
  endloop
endfacet
facet normal 0.000205 0.000118 -0.000039
  outer loop
    vertex 1.915600 9.000899 2.487880
    vertex 2.002301 8.849900 2.487960
    vertex 2.002100 8.849801 2.486600
  endloop
endfacet
facet normal 0.000526 0.000439 -0.000111
  outer loop
    vertex 1.877499 8.973599 2.483940
    vertex 1.989199 8.840100 2.485250
    vertex 1.876999 8.973201 2.480000
  endloop
endfacet
facet normal 0.000180 0.000151 -0.000036
  outer loop
    vertex 1.877499 8.973599 2.483940
    vertex 1.989300 8.840300 2.486600
    vertex 1.989199 8.840100 2.485250
  endloop
endfacet
facet normal 0.000526 0.000439 -0.000112
  outer loop
    vertex 1.878001 8.974000 2.487880
    vertex 1.989300 8.840300 2.486600
    vertex 1.877499 8.973599 2.483940
  endloop
endfacet
facet normal 0.000182 0.000152 -0.000049
  outer loop
    vertex 1.878001 8.974000 2.487880
    vertex 1.989501 8.840501 2.487960
    vertex 1.989300 8.840300 2.486600
  endloop
endfacet
facet normal 0.000442 0.000524 -0.000123
  outer loop
    vertex 1.978301 8.828601 2.485250
    vertex 1.844700 8.940100 2.480000
    vertex 1.845200 8.940600 2.483940
  endloop
endfacet
facet normal 0.000151 0.000179 -0.000036
  outer loop
    vertex 1.978301 8.828601 2.485250
    vertex 1.845200 8.940600 2.483940
    vertex 1.978501 8.828700 2.486600
  endloop
endfacet
facet normal 0.000442 0.000524 -0.000111
  outer loop
    vertex 1.978501 8.828700 2.486600
    vertex 1.845200 8.940600 2.483940
    vertex 1.845601 8.941100 2.487880
  endloop
endfacet
facet normal 0.000153 0.000181 -0.000038
  outer loop
    vertex 1.978501 8.828700 2.486600
    vertex 1.845601 8.941100 2.487880
    vertex 1.978600 8.828900 2.487960
  endloop
endfacet
facet normal 0.000344 0.000593 -0.000125
  outer loop
    vertex 1.969700 8.815301 2.485250
    vertex 1.818699 8.901900 2.480000
    vertex 1.819100 8.902501 2.483940
  endloop
endfacet
facet normal 0.000118 0.000203 -0.000039
  outer loop
    vertex 1.969700 8.815301 2.485250
    vertex 1.819100 8.902501 2.483940
    vertex 1.969800 8.815499 2.486600
  endloop
endfacet
facet normal 0.000344 0.000593 -0.000116
  outer loop
    vertex 1.969800 8.815499 2.486600
    vertex 1.819100 8.902501 2.483940
    vertex 1.819399 8.903100 2.487880
  endloop
endfacet
facet normal 0.000119 0.000205 -0.000039
  outer loop
    vertex 1.969800 8.815499 2.486600
    vertex 1.819399 8.903100 2.487880
    vertex 1.969901 8.815699 2.487960
  endloop
endfacet
facet normal 0.000121 0.000675 -0.000106
  outer loop
    vertex 1.959900 8.785201 2.485250
    vertex 1.788399 8.814999 2.480000
    vertex 1.788500 8.815600 2.483940
  endloop
endfacet
facet normal 0.000042 0.000233 -0.000034
  outer loop
    vertex 1.959900 8.785201 2.485250
    vertex 1.788500 8.815600 2.483940
    vertex 1.959900 8.785399 2.486610
  endloop
endfacet
facet normal 0.000121 0.000675 -0.000126
  outer loop
    vertex 1.959900 8.785399 2.486610
    vertex 1.788500 8.815600 2.483940
    vertex 1.788701 8.816300 2.487880
  endloop
endfacet
facet normal 0.000041 0.000231 -0.000055
  outer loop
    vertex 1.960000 8.785701 2.487960
    vertex 1.959900 8.785399 2.486610
    vertex 1.788701 8.816300 2.487880
  endloop
endfacet
facet normal 0.000002 0.000686 -0.000122
  outer loop
    vertex 1.959000 8.769400 2.485250
    vertex 1.785000 8.768901 2.480000
    vertex 1.785000 8.769601 2.483940
  endloop
endfacet
facet normal 0.000001 0.000235 -0.000035
  outer loop
    vertex 1.959000 8.769601 2.486600
    vertex 1.959000 8.769400 2.485250
    vertex 1.785000 8.769601 2.483940
  endloop
endfacet
facet normal 0.000002 0.000686 -0.000122
  outer loop
    vertex 1.959000 8.769601 2.486600
    vertex 1.785000 8.769601 2.483940
    vertex 1.785000 8.770301 2.487880
  endloop
endfacet
facet normal 0.000001 0.000237 -0.000035
  outer loop
    vertex 1.959000 8.769801 2.487960
    vertex 1.959000 8.769601 2.486600
    vertex 1.785000 8.770301 2.487880
  endloop
endfacet
facet normal -0.000117 0.000676 -0.000109
  outer loop
    vertex 1.961001 8.753600 2.485250
    vertex 1.789700 8.723000 2.480000
    vertex 1.789500 8.723599 2.483940
  endloop
endfacet
facet normal -0.000040 0.000232 -0.000054
  outer loop
    vertex 1.960900 8.753899 2.486600
    vertex 1.961001 8.753600 2.485250
    vertex 1.789500 8.723599 2.483940
  endloop
endfacet
facet normal -0.000118 0.000676 -0.000123
  outer loop
    vertex 1.960900 8.753899 2.486600
    vertex 1.789500 8.723599 2.483940
    vertex 1.789401 8.724299 2.487880
  endloop
endfacet
facet normal -0.000041 0.000233 -0.000035
  outer loop
    vertex 1.960900 8.753899 2.486600
    vertex 1.789401 8.724299 2.487880
    vertex 1.960900 8.754100 2.487960
  endloop
endfacet
facet normal -0.000233 0.000645 -0.000110
  outer loop
    vertex 1.965600 8.738499 2.485250
    vertex 1.802201 8.678500 2.480000
    vertex 1.802001 8.679101 2.483940
  endloop
endfacet
facet normal -0.000080 0.000221 -0.000039
  outer loop
    vertex 1.965600 8.738499 2.485250
    vertex 1.802001 8.679101 2.483940
    vertex 1.965500 8.738700 2.486600
  endloop
endfacet
facet normal -0.000233 0.000645 -0.000132
  outer loop
    vertex 1.965500 8.738700 2.486600
    vertex 1.802001 8.679101 2.483940
    vertex 1.801699 8.679801 2.487880
  endloop
endfacet
facet normal -0.000080 0.000223 -0.000039
  outer loop
    vertex 1.965500 8.738700 2.486600
    vertex 1.801699 8.679801 2.487880
    vertex 1.965399 8.738900 2.487960
  endloop
endfacet
facet normal -0.000341 0.000595 -0.000125
  outer loop
    vertex 1.972800 8.724299 2.485250
    vertex 1.822300 8.636901 2.480000
    vertex 1.821900 8.637500 2.483940
  endloop
endfacet
facet normal -0.000117 0.000204 -0.000048
  outer loop
    vertex 1.972800 8.724299 2.485250
    vertex 1.821900 8.637500 2.483940
    vertex 1.972599 8.724499 2.486600
  endloop
endfacet
facet normal -0.000341 0.000595 -0.000117
  outer loop
    vertex 1.972599 8.724499 2.486600
    vertex 1.821900 8.637500 2.483940
    vertex 1.821600 8.638100 2.487880
  endloop
endfacet
facet normal -0.000118 0.000205 -0.000039
  outer loop
    vertex 1.972599 8.724499 2.486600
    vertex 1.821600 8.638100 2.487880
    vertex 1.972500 8.724700 2.487960
  endloop
endfacet
facet normal -0.000439 0.000527 -0.000123
  outer loop
    vertex 1.982300 8.711600 2.485250
    vertex 1.849301 8.599400 2.480000
    vertex 1.848799 8.599900 2.483940
  endloop
endfacet
facet normal -0.000151 0.000180 -0.000049
  outer loop
    vertex 1.982300 8.711600 2.485250
    vertex 1.848799 8.599900 2.483940
    vertex 1.982100 8.711800 2.486600
  endloop
endfacet
facet normal -0.000439 0.000526 -0.000125
  outer loop
    vertex 1.982100 8.711800 2.486600
    vertex 1.848799 8.599900 2.483940
    vertex 1.848401 8.600501 2.487880
  endloop
endfacet
facet normal -0.000152 0.000182 -0.000038
  outer loop
    vertex 1.982100 8.711800 2.486600
    vertex 1.848401 8.600501 2.487880
    vertex 1.982001 8.712001 2.487960
  endloop
endfacet
facet normal -0.000524 0.000442 -0.000111
  outer loop
    vertex 1.881899 8.567599 2.483940
    vertex 1.993901 8.700801 2.485250
    vertex 1.882399 8.567200 2.480000
  endloop
endfacet
facet normal -0.000180 0.000151 -0.000049
  outer loop
    vertex 1.881899 8.567599 2.483940
    vertex 1.993700 8.701001 2.486600
    vertex 1.993901 8.700801 2.485250
  endloop
endfacet
facet normal -0.000524 0.000442 -0.000136
  outer loop
    vertex 1.881300 8.568101 2.487880
    vertex 1.993700 8.701001 2.486600
    vertex 1.881899 8.567599 2.483940
  endloop
endfacet
facet normal -0.000181 0.000153 -0.000038
  outer loop
    vertex 1.881300 8.568101 2.487880
    vertex 1.993500 8.701100 2.487960
    vertex 1.993700 8.701001 2.486600
  endloop
endfacet
facet normal -0.000593 0.000344 -0.000116
  outer loop
    vertex 1.920001 8.541501 2.483940
    vertex 2.007201 8.692200 2.485250
    vertex 1.920599 8.541199 2.480000
  endloop
endfacet
facet normal -0.000203 0.000118 -0.000039
  outer loop
    vertex 1.920001 8.541501 2.483940
    vertex 2.007000 8.692300 2.486600
    vertex 2.007201 8.692200 2.485250
  endloop
endfacet
facet normal -0.000593 0.000344 -0.000125
  outer loop
    vertex 1.919400 8.541899 2.487880
    vertex 2.007000 8.692300 2.486600
    vertex 1.920001 8.541501 2.483940
  endloop
endfacet
facet normal -0.000205 0.000119 -0.000039
  outer loop
    vertex 1.919400 8.541899 2.487880
    vertex 2.006800 8.692401 2.487960
    vertex 2.007000 8.692300 2.486600
  endloop
endfacet
facet normal -0.000643 0.000237 -0.000132
  outer loop
    vertex 1.962000 8.522500 2.483940
    vertex 2.021800 8.685900 2.485250
    vertex 1.962700 8.522200 2.480000
  endloop
endfacet
facet normal -0.000220 0.000081 -0.000039
  outer loop
    vertex 1.962000 8.522500 2.483940
    vertex 2.021599 8.686000 2.486600
    vertex 2.021800 8.685900 2.485250
  endloop
endfacet
facet normal -0.000644 0.000236 -0.000110
  outer loop
    vertex 1.961400 8.522700 2.487880
    vertex 2.021599 8.686000 2.486600
    vertex 1.962000 8.522500 2.483940
  endloop
endfacet
facet normal -0.000222 0.000081 -0.000055
  outer loop
    vertex 1.961400 8.522700 2.487880
    vertex 2.021300 8.686101 2.487960
    vertex 2.021599 8.686000 2.486600
  endloop
endfacet
facet normal -0.000675 0.000121 -0.000123
  outer loop
    vertex 2.007500 8.510899 2.480000
    vertex 2.006800 8.511000 2.483940
    vertex 2.037199 8.682400 2.485250
  endloop
endfacet
facet normal -0.000231 0.000041 -0.000034
  outer loop
    vertex 2.006800 8.511000 2.483940
    vertex 2.036999 8.682400 2.486600
    vertex 2.037199 8.682400 2.485250
  endloop
endfacet
facet normal -0.000675 0.000121 -0.000123
  outer loop
    vertex 2.006800 8.511000 2.483940
    vertex 2.006100 8.511100 2.487880
    vertex 2.036999 8.682400 2.486600
  endloop
endfacet
facet normal -0.000233 0.000042 -0.000034
  outer loop
    vertex 2.006100 8.511100 2.487880
    vertex 2.036801 8.682400 2.487960
    vertex 2.036999 8.682400 2.486600
  endloop
endfacet
facet normal -0.000686 0.000002 -0.000122
  outer loop
    vertex 2.053500 8.507500 2.480000
    vertex 2.052800 8.507500 2.483940
    vertex 2.053099 8.681500 2.485250
  endloop
endfacet
facet normal -0.000235 0.000001 -0.000052
  outer loop
    vertex 2.052800 8.507500 2.483940
    vertex 2.052800 8.681500 2.486600
    vertex 2.053099 8.681500 2.485250
  endloop
endfacet
facet normal -0.000686 0.000002 -0.000104
  outer loop
    vertex 2.052800 8.507500 2.483940
    vertex 2.052201 8.507500 2.487880
    vertex 2.052800 8.681500 2.486600
  endloop
endfacet
facet normal -0.000237 0.000001 -0.000035
  outer loop
    vertex 2.052201 8.507500 2.487880
    vertex 2.052599 8.681500 2.487960
    vertex 2.052800 8.681500 2.486600
  endloop
endfacet
facet normal -0.000675 -0.000117 -0.000123
  outer loop
    vertex 2.099499 8.512099 2.480000
    vertex 2.098799 8.512000 2.483940
    vertex 2.068800 8.683400 2.485250
  endloop
endfacet
facet normal -0.000231 -0.000040 -0.000034
  outer loop
    vertex 2.098799 8.512000 2.483940
    vertex 2.068600 8.683400 2.486600
    vertex 2.068800 8.683400 2.485250
  endloop
endfacet
facet normal -0.000676 -0.000117 -0.000123
  outer loop
    vertex 2.098799 8.512000 2.483940
    vertex 2.098099 8.511901 2.487880
    vertex 2.068600 8.683400 2.486600
  endloop
endfacet
facet normal -0.000233 -0.000040 -0.000037
  outer loop
    vertex 2.098099 8.511901 2.487880
    vertex 2.068400 8.683301 2.487960
    vertex 2.068600 8.683400 2.486600
  endloop
endfacet
facet normal -0.000645 -0.000233 -0.000116
  outer loop
    vertex 2.143300 8.524400 2.483940
    vertex 2.084000 8.688000 2.485250
    vertex 2.143900 8.524701 2.480000
  endloop
endfacet
facet normal -0.000221 -0.000080 -0.000033
  outer loop
    vertex 2.143300 8.524400 2.483940
    vertex 2.083800 8.688000 2.486600
    vertex 2.084000 8.688000 2.485250
  endloop
endfacet
facet normal -0.000645 -0.000233 -0.000110
  outer loop
    vertex 2.142701 8.524199 2.487880
    vertex 2.083800 8.688000 2.486600
    vertex 2.143300 8.524400 2.483940
  endloop
endfacet
facet normal -0.000223 -0.000080 -0.000039
  outer loop
    vertex 2.142701 8.524199 2.487880
    vertex 2.083600 8.687899 2.487960
    vertex 2.083800 8.688000 2.486600
  endloop
endfacet
facet normal -0.000595 -0.000342 -0.000101
  outer loop
    vertex 2.185000 8.544400 2.483940
    vertex 2.098099 8.695201 2.485250
    vertex 2.185500 8.544699 2.480000
  endloop
endfacet
facet normal -0.000204 -0.000117 -0.000039
  outer loop
    vertex 2.185000 8.544400 2.483940
    vertex 2.097901 8.695100 2.486600
    vertex 2.098099 8.695201 2.485250
  endloop
endfacet
facet normal -0.000595 -0.000342 -0.000117
  outer loop
    vertex 2.184399 8.544101 2.487880
    vertex 2.097901 8.695100 2.486600
    vertex 2.185000 8.544400 2.483940
  endloop
endfacet
facet normal -0.000205 -0.000118 -0.000039
  outer loop
    vertex 2.184399 8.544101 2.487880
    vertex 2.097701 8.695000 2.487960
    vertex 2.097901 8.695100 2.486600
  endloop
endfacet
facet normal -0.000527 -0.000439 -0.000112
  outer loop
    vertex 2.222500 8.571299 2.483940
    vertex 2.110800 8.704800 2.485250
    vertex 2.223000 8.571700 2.480000
  endloop
endfacet
facet normal -0.000180 -0.000151 -0.000049
  outer loop
    vertex 2.222500 8.571299 2.483940
    vertex 2.110600 8.704600 2.486600
    vertex 2.110800 8.704800 2.485250
  endloop
endfacet
facet normal -0.000526 -0.000440 -0.000111
  outer loop
    vertex 2.222001 8.570901 2.487880
    vertex 2.110600 8.704600 2.486600
    vertex 2.222500 8.571299 2.483940
  endloop
endfacet
facet normal -0.000182 -0.000152 -0.000024
  outer loop
    vertex 2.222001 8.570901 2.487880
    vertex 2.110501 8.704501 2.487960
    vertex 2.110600 8.704600 2.486600
  endloop
endfacet
facet normal -0.000442 -0.000524 -0.000123
  outer loop
    vertex 2.121600 8.716401 2.485250
    vertex 2.255299 8.604800 2.480000
    vertex 2.254799 8.604300 2.483940
  endloop
endfacet
facet normal -0.000152 -0.000180 -0.000038
  outer loop
    vertex 2.121600 8.716401 2.485250
    vertex 2.254799 8.604300 2.483940
    vertex 2.121500 8.716201 2.486600
  endloop
endfacet
facet normal -0.000442 -0.000524 -0.000111
  outer loop
    vertex 2.121500 8.716201 2.486600
    vertex 2.254799 8.604300 2.483940
    vertex 2.254401 8.603801 2.487880
  endloop
endfacet
facet normal -0.000153 -0.000181 -0.000038
  outer loop
    vertex 2.121500 8.716201 2.486600
    vertex 2.254401 8.603801 2.487880
    vertex 2.121399 8.716000 2.487960
  endloop
endfacet
facet normal -0.000345 -0.000593 -0.000117
  outer loop
    vertex 2.130299 8.729701 2.485250
    vertex 2.281201 8.643000 2.480000
    vertex 2.280900 8.642400 2.483940
  endloop
endfacet
facet normal -0.000118 -0.000203 -0.000054
  outer loop
    vertex 2.130299 8.729701 2.485250
    vertex 2.280900 8.642400 2.483940
    vertex 2.130200 8.729399 2.486600
  endloop
endfacet
facet normal -0.000344 -0.000593 -0.000116
  outer loop
    vertex 2.130200 8.729399 2.486600
    vertex 2.280900 8.642400 2.483940
    vertex 2.280600 8.641801 2.487880
  endloop
endfacet
facet normal -0.000119 -0.000205 -0.000039
  outer loop
    vertex 2.130200 8.729399 2.486600
    vertex 2.280600 8.641801 2.487880
    vertex 2.130101 8.729199 2.487960
  endloop
endfacet
facet normal -0.000236 -0.000644 -0.000126
  outer loop
    vertex 2.136500 8.744200 2.485250
    vertex 2.300200 8.685200 2.480000
    vertex 2.300000 8.684500 2.483940
  endloop
endfacet
facet normal -0.000081 -0.000221 -0.000038
  outer loop
    vertex 2.136500 8.744200 2.485250
    vertex 2.300000 8.684500 2.483940
    vertex 2.136401 8.744000 2.486600
  endloop
endfacet
facet normal -0.000236 -0.000644 -0.000116
  outer loop
    vertex 2.136401 8.744000 2.486600
    vertex 2.300000 8.684500 2.483940
    vertex 2.299700 8.683900 2.487880
  endloop
endfacet
facet normal -0.000081 -0.000222 -0.000033
  outer loop
    vertex 2.136401 8.744000 2.486600
    vertex 2.299700 8.683900 2.487880
    vertex 2.136401 8.743800 2.487960
  endloop
endfacet
facet normal -0.000121 -0.000675 -0.000106
  outer loop
    vertex 2.140101 8.759700 2.485250
    vertex 2.311600 8.729899 2.480000
    vertex 2.311499 8.729300 2.483940
  endloop
endfacet
facet normal -0.000041 -0.000231 -0.000034
  outer loop
    vertex 2.140101 8.759700 2.485250
    vertex 2.311499 8.729300 2.483940
    vertex 2.140101 8.759499 2.486600
  endloop
endfacet
facet normal -0.000121 -0.000675 -0.000126
  outer loop
    vertex 2.311499 8.729300 2.483940
    vertex 2.311301 8.728600 2.487880
    vertex 2.140101 8.759499 2.486600
  endloop
endfacet
facet normal -0.000042 -0.000233 -0.000054
  outer loop
    vertex 2.311301 8.728600 2.487880
    vertex 2.140000 8.759200 2.487960
    vertex 2.140101 8.759499 2.486600
  endloop
endfacet
facet normal -0.000002 -0.000686 -0.000122
  outer loop
    vertex 2.314999 8.776000 2.480000
    vertex 2.314999 8.775300 2.483940
    vertex 2.140900 8.775500 2.485250
  endloop
endfacet
facet normal -0.000001 -0.000235 -0.000035
  outer loop
    vertex 2.314999 8.775300 2.483940
    vertex 2.140999 8.775300 2.486600
    vertex 2.140900 8.775500 2.485250
  endloop
endfacet
facet normal -0.000002 -0.000686 -0.000122
  outer loop
    vertex 2.314999 8.775300 2.483940
    vertex 2.314999 8.774600 2.487880
    vertex 2.140999 8.775300 2.486600
  endloop
endfacet
facet normal -0.000001 -0.000237 -0.000035
  outer loop
    vertex 2.314999 8.774600 2.487880
    vertex 2.140999 8.775100 2.487960
    vertex 2.140999 8.775300 2.486600
  endloop
endfacet
facet normal 0.000236 0.000644 -0.000126
  outer loop
    vertex 1.963500 8.800700 2.485250
    vertex 1.799799 8.859700 2.480000
    vertex 1.800000 8.860400 2.483940
  endloop
endfacet
facet normal 0.000081 0.000221 -0.000039
  outer loop
    vertex 1.963500 8.800700 2.485250
    vertex 1.800000 8.860400 2.483940
    vertex 1.963601 8.800900 2.486600
  endloop
endfacet
facet normal 0.000236 0.000644 -0.000110
  outer loop
    vertex 1.963601 8.800900 2.486600
    vertex 1.800000 8.860400 2.483940
    vertex 1.800200 8.861001 2.487880
  endloop
endfacet
facet normal 0.000081 0.000222 -0.000033
  outer loop
    vertex 1.963601 8.800900 2.486600
    vertex 1.800200 8.861001 2.487880
    vertex 1.963601 8.801101 2.487960
  endloop
endfacet
endsolid outlet_source_sink
