solid furniture_Desk0
facet normal 0.000000 0.000000 -0.000900
  outer loop
    vertex 67.595047 10.295020 4.900000
    vertex 67.595047 10.325020 4.900000
    vertex 67.625053 10.295020 4.900000
  endloop
endfacet
facet normal 0.000000 0.000000 -0.000900
  outer loop
    vertex 67.595047 10.325020 4.900000
    vertex 67.625053 10.325020 4.900000
    vertex 67.625053 10.295020 4.900000
  endloop
endfacet
facet normal 0.021900 0.000000 -0.000000
  outer loop
    vertex 67.625053 8.955019 4.900000
    vertex 67.625053 8.955019 5.630000
    vertex 67.625053 8.925019 4.900000
  endloop
endfacet
facet normal 0.022800 0.000000 0.000000
  outer loop
    vertex 67.625053 8.925019 4.900000
    vertex 67.625053 8.955019 5.630000
    vertex 67.625053 8.925019 5.660000
  endloop
endfacet
facet normal 0.042000 0.000000 0.000000
  outer loop
    vertex 67.625053 10.325020 5.660000
    vertex 67.625053 8.925019 5.660000
    vertex 67.625053 8.955019 5.630000
  endloop
endfacet
facet normal 0.000000 0.000000 1.120005
  outer loop
    vertex 67.625053 10.325020 5.660000
    vertex 66.825050 8.925019 5.660000
    vertex 67.625053 8.925019 5.660000
  endloop
endfacet
facet normal -0.000000 0.000000 1.120005
  outer loop
    vertex 66.825050 10.325020 5.660000
    vertex 66.825050 8.925019 5.660000
    vertex 67.625053 10.325020 5.660000
  endloop
endfacet
facet normal -0.021900 0.000000 0.000000
  outer loop
    vertex 66.825050 10.325020 4.900000
    vertex 66.825050 10.295020 4.900000
    vertex 66.825050 10.295020 5.630000
  endloop
endfacet
facet normal -0.022800 0.000000 0.000000
  outer loop
    vertex 66.825050 10.325020 4.900000
    vertex 66.825050 10.295020 5.630000
    vertex 66.825050 10.325020 5.660000
  endloop
endfacet
facet normal 0.000000 0.022805 0.000000
  outer loop
    vertex 67.625053 10.325020 5.660000
    vertex 67.625053 10.325020 4.900000
    vertex 67.595047 10.325020 4.900000
  endloop
endfacet
facet normal -0.000000 0.021905 0.000000
  outer loop
    vertex 67.595047 10.325020 5.630000
    vertex 67.625053 10.325020 5.660000
    vertex 67.595047 10.325020 4.900000
  endloop
endfacet
facet normal 0.000000 0.024000 0.000000
  outer loop
    vertex 67.625053 10.325020 5.660000
    vertex 67.595047 10.325020 5.630000
    vertex 66.825050 10.325020 5.660000
  endloop
endfacet
facet normal 0.000000 0.022200 0.000000
  outer loop
    vertex 67.595047 10.325020 5.630000
    vertex 66.855049 10.325020 5.630000
    vertex 66.825050 10.325020 5.660000
  endloop
endfacet
facet normal 0.000000 0.022799 0.000000
  outer loop
    vertex 66.855049 10.325020 5.630000
    vertex 66.825050 10.325020 4.900000
    vertex 66.825050 10.325020 5.660000
  endloop
endfacet
facet normal 0.000000 0.021899 0.000000
  outer loop
    vertex 66.855049 10.325020 5.630000
    vertex 66.855049 10.325020 4.900000
    vertex 66.825050 10.325020 4.900000
  endloop
endfacet
facet normal -0.042000 -0.000000 0.000000
  outer loop
    vertex 66.825050 10.325020 5.660000
    vertex 66.825050 10.295020 5.630000
    vertex 66.825050 8.925019 5.660000
  endloop
endfacet
facet normal -0.022800 0.000000 0.000000
  outer loop
    vertex 66.825050 8.955019 4.900000
    vertex 66.825050 8.925019 4.900000
    vertex 66.825050 8.925019 5.660000
  endloop
endfacet
facet normal -0.021900 -0.000000 -0.000000
  outer loop
    vertex 66.825050 8.955019 5.630000
    vertex 66.825050 8.955019 4.900000
    vertex 66.825050 8.925019 5.660000
  endloop
endfacet
facet normal -0.040200 0.000000 0.000000
  outer loop
    vertex 66.825050 10.295020 5.630000
    vertex 66.825050 8.955019 5.630000
    vertex 66.825050 8.925019 5.660000
  endloop
endfacet
facet normal 0.022800 0.000000 -0.000000
  outer loop
    vertex 67.625053 10.325020 4.900000
    vertex 67.625053 10.325020 5.660000
    vertex 67.625053 10.295020 4.900000
  endloop
endfacet
facet normal 0.021900 0.000000 0.000000
  outer loop
    vertex 67.625053 10.295020 4.900000
    vertex 67.625053 10.325020 5.660000
    vertex 67.625053 10.295020 5.630000
  endloop
endfacet
facet normal 0.040200 0.000000 -0.000000
  outer loop
    vertex 67.625053 10.295020 5.630000
    vertex 67.625053 10.325020 5.660000
    vertex 67.625053 8.955019 5.630000
  endloop
endfacet
facet normal 0.000000 -0.022805 0.000000
  outer loop
    vertex 67.625053 8.925019 4.900000
    vertex 67.625053 8.925019 5.660000
    vertex 67.595047 8.925019 5.630000
  endloop
endfacet
facet normal -0.000000 -0.024000 0.000000
  outer loop
    vertex 67.625053 8.925019 5.660000
    vertex 66.825050 8.925019 5.660000
    vertex 67.595047 8.925019 5.630000
  endloop
endfacet
facet normal 0.000000 -0.022200 0.000000
  outer loop
    vertex 67.595047 8.925019 5.630000
    vertex 66.825050 8.925019 5.660000
    vertex 66.855049 8.925019 5.630000
  endloop
endfacet
facet normal 0.000000 -0.021899 0.000000
  outer loop
    vertex 66.855049 8.925019 4.900000
    vertex 66.855049 8.925019 5.630000
    vertex 66.825050 8.925019 5.660000
  endloop
endfacet
facet normal 0.000000 -0.022799 0.000000
  outer loop
    vertex 66.855049 8.925019 4.900000
    vertex 66.825050 8.925019 5.660000
    vertex 66.825050 8.925019 4.900000
  endloop
endfacet
facet normal 0.000000 -0.021905 0.000000
  outer loop
    vertex 67.625053 8.925019 4.900000
    vertex 67.595047 8.925019 5.630000
    vertex 67.595047 8.925019 4.900000
  endloop
endfacet
facet normal 0.000000 0.000000 -0.000900
  outer loop
    vertex 67.595047 8.925019 4.900000
    vertex 67.595047 8.955019 4.900000
    vertex 67.625053 8.925019 4.900000
  endloop
endfacet
facet normal 0.000000 0.000000 -0.000900
  outer loop
    vertex 67.625053 8.925019 4.900000
    vertex 67.595047 8.955019 4.900000
    vertex 67.625053 8.955019 4.900000
  endloop
endfacet
facet normal -0.021900 0.000000 0.000000
  outer loop
    vertex 67.595047 8.955019 4.900000
    vertex 67.595047 8.925019 4.900000
    vertex 67.595047 8.925019 5.630000
  endloop
endfacet
facet normal -0.021900 0.000000 0.000000
  outer loop
    vertex 67.595047 8.955019 4.900000
    vertex 67.595047 8.925019 5.630000
    vertex 67.595047 8.955019 5.630000
  endloop
endfacet
facet normal 0.000000 0.021905 0.000000
  outer loop
    vertex 67.625053 8.955019 5.630000
    vertex 67.625053 8.955019 4.900000
    vertex 67.595047 8.955019 4.900000
  endloop
endfacet
facet normal -0.000000 0.021905 0.000000
  outer loop
    vertex 67.595047 8.955019 5.630000
    vertex 67.625053 8.955019 5.630000
    vertex 67.595047 8.955019 4.900000
  endloop
endfacet
facet normal 0.000000 0.000000 -0.022200
  outer loop
    vertex 66.855049 8.925019 5.630000
    vertex 66.855049 8.955019 5.630000
    vertex 67.595047 8.925019 5.630000
  endloop
endfacet
facet normal 0.000000 0.000000 -0.022200
  outer loop
    vertex 66.855049 8.955019 5.630000
    vertex 67.595047 8.955019 5.630000
    vertex 67.595047 8.925019 5.630000
  endloop
endfacet
facet normal 0.000000 0.000000 -0.040198
  outer loop
    vertex 66.825050 8.955019 5.630000
    vertex 66.825050 10.295020 5.630000
    vertex 66.855049 8.955019 5.630000
  endloop
endfacet
facet normal 0.000000 0.000000 -0.991598
  outer loop
    vertex 67.595047 8.955019 5.630000
    vertex 66.855049 8.955019 5.630000
    vertex 66.825050 10.295020 5.630000
  endloop
endfacet
facet normal 0.000000 0.000000 -0.040209
  outer loop
    vertex 67.595047 8.955019 5.630000
    vertex 66.825050 10.295020 5.630000
    vertex 67.625053 8.955019 5.630000
  endloop
endfacet
facet normal 0.000000 0.000000 -0.040198
  outer loop
    vertex 67.625053 8.955019 5.630000
    vertex 66.825050 10.295020 5.630000
    vertex 66.855049 10.295020 5.630000
  endloop
endfacet
facet normal 0.000000 0.000000 -0.991598
  outer loop
    vertex 67.625053 8.955019 5.630000
    vertex 66.855049 10.295020 5.630000
    vertex 67.595047 10.295020 5.630000
  endloop
endfacet
facet normal 0.000000 0.000000 -0.022200
  outer loop
    vertex 66.855049 10.295020 5.630000
    vertex 67.595047 10.325020 5.630000
    vertex 67.595047 10.295020 5.630000
  endloop
endfacet
facet normal 0.000000 0.000000 -0.022200
  outer loop
    vertex 66.855049 10.295020 5.630000
    vertex 66.855049 10.325020 5.630000
    vertex 67.595047 10.325020 5.630000
  endloop
endfacet
facet normal 0.000000 0.000000 -0.040209
  outer loop
    vertex 67.625053 8.955019 5.630000
    vertex 67.595047 10.295020 5.630000
    vertex 67.625053 10.295020 5.630000
  endloop
endfacet
facet normal 0.000000 0.000000 -0.000900
  outer loop
    vertex 66.825050 8.925019 4.900000
    vertex 66.825050 8.955019 4.900000
    vertex 66.855049 8.925019 4.900000
  endloop
endfacet
facet normal 0.000000 0.000000 -0.000900
  outer loop
    vertex 66.825050 8.955019 4.900000
    vertex 66.855049 8.955019 4.900000
    vertex 66.855049 8.925019 4.900000
  endloop
endfacet
facet normal 0.000000 0.021899 0.000000
  outer loop
    vertex 66.855049 8.955019 5.630000
    vertex 66.855049 8.955019 4.900000
    vertex 66.825050 8.955019 4.900000
  endloop
endfacet
facet normal 0.000000 0.021899 0.000000
  outer loop
    vertex 66.855049 8.955019 5.630000
    vertex 66.825050 8.955019 4.900000
    vertex 66.825050 8.955019 5.630000
  endloop
endfacet
facet normal 0.021900 0.000000 0.000000
  outer loop
    vertex 66.855049 8.925019 4.900000
    vertex 66.855049 8.955019 4.900000
    vertex 66.855049 8.955019 5.630000
  endloop
endfacet
facet normal 0.021900 0.000000 0.000000
  outer loop
    vertex 66.855049 8.925019 4.900000
    vertex 66.855049 8.955019 5.630000
    vertex 66.855049 8.925019 5.630000
  endloop
endfacet
facet normal 0.000000 0.000000 -0.000900
  outer loop
    vertex 66.825050 10.295020 4.900000
    vertex 66.825050 10.325020 4.900000
    vertex 66.855049 10.295020 4.900000
  endloop
endfacet
facet normal 0.000000 0.000000 -0.000900
  outer loop
    vertex 66.825050 10.325020 4.900000
    vertex 66.855049 10.325020 4.900000
    vertex 66.855049 10.295020 4.900000
  endloop
endfacet
facet normal 0.021900 0.000000 0.000000
  outer loop
    vertex 66.855049 10.295020 4.900000
    vertex 66.855049 10.325020 4.900000
    vertex 66.855049 10.325020 5.630000
  endloop
endfacet
facet normal 0.021900 0.000000 0.000000
  outer loop
    vertex 66.855049 10.295020 4.900000
    vertex 66.855049 10.325020 5.630000
    vertex 66.855049 10.295020 5.630000
  endloop
endfacet
facet normal 0.000000 -0.021899 0.000000
  outer loop
    vertex 66.855049 10.295020 4.900000
    vertex 66.855049 10.295020 5.630000
    vertex 66.825050 10.295020 5.630000
  endloop
endfacet
facet normal 0.000000 -0.021899 0.000000
  outer loop
    vertex 66.855049 10.295020 4.900000
    vertex 66.825050 10.295020 5.630000
    vertex 66.825050 10.295020 4.900000
  endloop
endfacet
facet normal 0.000000 -0.021905 0.000000
  outer loop
    vertex 67.625053 10.295020 4.900000
    vertex 67.625053 10.295020 5.630000
    vertex 67.595047 10.295020 5.630000
  endloop
endfacet
facet normal 0.000000 -0.021905 0.000000
  outer loop
    vertex 67.625053 10.295020 4.900000
    vertex 67.595047 10.295020 5.630000
    vertex 67.595047 10.295020 4.900000
  endloop
endfacet
facet normal -0.021900 0.000000 0.000000
  outer loop
    vertex 67.595047 10.325020 4.900000
    vertex 67.595047 10.295020 4.900000
    vertex 67.595047 10.295020 5.630000
  endloop
endfacet
facet normal -0.021900 0.000000 0.000000
  outer loop
    vertex 67.595047 10.325020 4.900000
    vertex 67.595047 10.295020 5.630000
    vertex 67.595047 10.325020 5.630000
  endloop
endfacet
endsolid furniture_Desk0
