solid furniture_Tab2_Chair0
facet normal 0.000000 0.012899 0.000000
  outer loop
    vertex 66.605049 8.825018 4.330000
    vertex 66.605049 8.825018 3.900000
    vertex 66.575050 8.825018 3.900000
  endloop
endfacet
facet normal 0.000000 0.011700 0.000000
  outer loop
    vertex 66.995049 8.825018 4.360000
    vertex 66.995049 8.825018 4.330000
    vertex 66.605049 8.825018 4.330000
  endloop
endfacet
facet normal 0.000000 0.012600 0.000000
  outer loop
    vertex 66.995049 8.825018 4.360000
    vertex 66.605049 8.825018 4.330000
    vertex 66.575050 8.825018 4.360000
  endloop
endfacet
facet normal 0.000000 0.013799 0.000000
  outer loop
    vertex 66.605049 8.825018 4.330000
    vertex 66.575050 8.825018 3.900000
    vertex 66.575050 8.825018 4.360000
  endloop
endfacet
facet normal 0.000000 0.024299 0.000000
  outer loop
    vertex 67.025047 8.825018 4.710000
    vertex 67.025047 8.825018 3.900000
    vertex 66.995049 8.825018 3.900000
  endloop
endfacet
facet normal 0.000000 0.012899 0.000000
  outer loop
    vertex 67.025047 8.825018 4.710000
    vertex 66.995049 8.825018 3.900000
    vertex 66.995049 8.825018 4.330000
  endloop
endfacet
facet normal 0.000000 0.011400 0.000000
  outer loop
    vertex 67.025047 8.825018 4.710000
    vertex 66.995049 8.825018 4.330000
    vertex 66.995049 8.825018 4.710000
  endloop
endfacet
facet normal 0.024300 0.000000 -0.000000
  outer loop
    vertex 67.025047 8.825018 3.900000
    vertex 67.025047 8.825018 4.710000
    vertex 67.025047 8.795018 3.900000
  endloop
endfacet
facet normal 0.012900 0.000000 0.000000
  outer loop
    vertex 67.025047 8.795018 3.900000
    vertex 67.025047 8.825018 4.710000
    vertex 67.025047 8.795018 4.330000
  endloop
endfacet
facet normal 0.000900 0.000000 0.000000
  outer loop
    vertex 67.025047 8.795018 4.330000
    vertex 67.025047 8.825018 4.710000
    vertex 67.025047 8.795018 4.360000
  endloop
endfacet
facet normal 0.010200 0.000000 -0.000000
  outer loop
    vertex 67.025047 8.795018 4.330000
    vertex 67.025047 8.795018 4.360000
    vertex 67.025047 8.455018 4.330000
  endloop
endfacet
facet normal 0.004196 0.000000 0.000000
  outer loop
    vertex 67.025047 8.795018 4.360000
    vertex 67.025047 8.825018 4.710000
    vertex 67.025047 8.795018 4.499868
  endloop
endfacet
facet normal 0.006304 0.000000 0.000000
  outer loop
    vertex 67.025047 8.795018 4.499868
    vertex 67.025047 8.825018 4.710000
    vertex 67.025047 8.795018 4.710000
  endloop
endfacet
facet normal 0.012900 0.000000 -0.000000
  outer loop
    vertex 67.025047 8.455018 3.900000
    vertex 67.025047 8.455018 4.330000
    vertex 67.025047 8.425018 3.900000
  endloop
endfacet
facet normal 0.024300 0.000000 0.000000
  outer loop
    vertex 67.025047 8.425018 3.900000
    vertex 67.025047 8.455018 4.330000
    vertex 67.025047 8.425018 4.710000
  endloop
endfacet
facet normal 0.000900 0.000000 0.000000
  outer loop
    vertex 67.025047 8.425018 4.710000
    vertex 67.025047 8.455018 4.330000
    vertex 67.025047 8.455018 4.360000
  endloop
endfacet
facet normal 0.010200 0.000000 0.000000
  outer loop
    vertex 67.025047 8.795018 4.360000
    vertex 67.025047 8.455018 4.360000
    vertex 67.025047 8.455018 4.330000
  endloop
endfacet
facet normal 0.004196 0.000000 -0.000000
  outer loop
    vertex 67.025047 8.455018 4.360000
    vertex 67.025047 8.455018 4.499868
    vertex 67.025047 8.425018 4.710000
  endloop
endfacet
facet normal 0.006304 0.000000 -0.000000
  outer loop
    vertex 67.025047 8.455018 4.499868
    vertex 67.025047 8.455018 4.710000
    vertex 67.025047 8.425018 4.710000
  endloop
endfacet
facet normal 0.000000 -0.024299 0.000000
  outer loop
    vertex 67.025047 8.425018 3.900000
    vertex 67.025047 8.425018 4.710000
    vertex 66.995049 8.425018 4.710000
  endloop
endfacet
facet normal 0.000000 -0.011400 0.000000
  outer loop
    vertex 67.025047 8.425018 3.900000
    vertex 66.995049 8.425018 4.710000
    vertex 66.995049 8.425018 4.330000
  endloop
endfacet
facet normal 0.000000 -0.011700 0.000000
  outer loop
    vertex 66.995049 8.425018 4.330000
    vertex 66.995049 8.425018 4.360000
    vertex 66.605049 8.425018 4.330000
  endloop
endfacet
facet normal -0.000000 -0.012600 0.000000
  outer loop
    vertex 66.995049 8.425018 4.360000
    vertex 66.575050 8.425018 4.360000
    vertex 66.605049 8.425018 4.330000
  endloop
endfacet
facet normal 0.000000 -0.012899 0.000000
  outer loop
    vertex 66.605049 8.425018 3.900000
    vertex 66.605049 8.425018 4.330000
    vertex 66.575050 8.425018 4.360000
  endloop
endfacet
facet normal 0.000000 -0.013799 0.000000
  outer loop
    vertex 66.605049 8.425018 3.900000
    vertex 66.575050 8.425018 4.360000
    vertex 66.575050 8.425018 3.900000
  endloop
endfacet
facet normal 0.000000 -0.012899 0.000000
  outer loop
    vertex 67.025047 8.425018 3.900000
    vertex 66.995049 8.425018 4.330000
    vertex 66.995049 8.425018 3.900000
  endloop
endfacet
facet normal 0.000000 0.000000 -0.000900
  outer loop
    vertex 66.995049 8.425018 3.900000
    vertex 66.995049 8.455018 3.900000
    vertex 67.025047 8.425018 3.900000
  endloop
endfacet
facet normal 0.000000 0.000000 -0.000900
  outer loop
    vertex 66.995049 8.455018 3.900000
    vertex 67.025047 8.455018 3.900000
    vertex 67.025047 8.425018 3.900000
  endloop
endfacet
facet normal -0.012900 0.000000 0.000000
  outer loop
    vertex 66.995049 8.425018 4.330000
    vertex 66.995049 8.455018 3.900000
    vertex 66.995049 8.425018 3.900000
  endloop
endfacet
facet normal -0.012900 -0.000000 -0.000000
  outer loop
    vertex 66.995049 8.455018 4.330000
    vertex 66.995049 8.455018 3.900000
    vertex 66.995049 8.425018 4.330000
  endloop
endfacet
facet normal 0.000000 0.012899 0.000000
  outer loop
    vertex 67.025047 8.455018 4.330000
    vertex 67.025047 8.455018 3.900000
    vertex 66.995049 8.455018 3.900000
  endloop
endfacet
facet normal 0.000000 0.012899 0.000000
  outer loop
    vertex 67.025047 8.455018 4.330000
    vertex 66.995049 8.455018 3.900000
    vertex 66.995049 8.455018 4.330000
  endloop
endfacet
facet normal 0.000000 0.000000 -0.011700
  outer loop
    vertex 66.605049 8.795018 4.330000
    vertex 66.605049 8.825018 4.330000
    vertex 66.995049 8.795018 4.330000
  endloop
endfacet
facet normal 0.000000 0.000000 -0.011700
  outer loop
    vertex 66.605049 8.825018 4.330000
    vertex 66.995049 8.825018 4.330000
    vertex 66.995049 8.795018 4.330000
  endloop
endfacet
facet normal 0.000000 0.000000 -0.010200
  outer loop
    vertex 66.575050 8.455018 4.330000
    vertex 66.575050 8.795018 4.330000
    vertex 66.605049 8.455018 4.330000
  endloop
endfacet
facet normal 0.000000 0.000000 -0.132600
  outer loop
    vertex 66.605049 8.455018 4.330000
    vertex 66.575050 8.795018 4.330000
    vertex 66.995049 8.455018 4.330000
  endloop
endfacet
facet normal 0.000000 0.000000 -0.010200
  outer loop
    vertex 66.575050 8.795018 4.330000
    vertex 67.025047 8.455018 4.330000
    vertex 66.995049 8.455018 4.330000
  endloop
endfacet
facet normal 0.000000 0.000000 -0.152999
  outer loop
    vertex 66.575050 8.795018 4.330000
    vertex 67.025047 8.795018 4.330000
    vertex 67.025047 8.455018 4.330000
  endloop
endfacet
facet normal 0.000000 0.000000 -0.011700
  outer loop
    vertex 66.605049 8.425018 4.330000
    vertex 66.605049 8.455018 4.330000
    vertex 66.995049 8.425018 4.330000
  endloop
endfacet
facet normal 0.000000 0.000000 -0.011700
  outer loop
    vertex 66.605049 8.455018 4.330000
    vertex 66.995049 8.455018 4.330000
    vertex 66.995049 8.425018 4.330000
  endloop
endfacet
facet normal 0.012900 0.000000 -0.000000
  outer loop
    vertex 66.605049 8.455018 3.900000
    vertex 66.605049 8.455018 4.330000
    vertex 66.605049 8.425018 3.900000
  endloop
endfacet
facet normal 0.012900 0.000000 0.000000
  outer loop
    vertex 66.605049 8.425018 3.900000
    vertex 66.605049 8.455018 4.330000
    vertex 66.605049 8.425018 4.330000
  endloop
endfacet
facet normal 0.000000 0.000000 -0.000900
  outer loop
    vertex 66.995049 8.795018 3.900000
    vertex 66.995049 8.825018 3.900000
    vertex 67.025047 8.795018 3.900000
  endloop
endfacet
facet normal 0.000000 0.000000 -0.000900
  outer loop
    vertex 67.025047 8.795018 3.900000
    vertex 66.995049 8.825018 3.900000
    vertex 67.025047 8.825018 3.900000
  endloop
endfacet
facet normal 0.000000 -0.012899 0.000000
  outer loop
    vertex 67.025047 8.795018 3.900000
    vertex 67.025047 8.795018 4.330000
    vertex 66.995049 8.795018 4.330000
  endloop
endfacet
facet normal 0.000000 -0.012899 0.000000
  outer loop
    vertex 67.025047 8.795018 3.900000
    vertex 66.995049 8.795018 4.330000
    vertex 66.995049 8.795018 3.900000
  endloop
endfacet
facet normal -0.012900 0.000000 0.000000
  outer loop
    vertex 66.995049 8.795018 4.330000
    vertex 66.995049 8.825018 3.900000
    vertex 66.995049 8.795018 3.900000
  endloop
endfacet
facet normal -0.012900 -0.000000 -0.000000
  outer loop
    vertex 66.995049 8.825018 4.330000
    vertex 66.995049 8.825018 3.900000
    vertex 66.995049 8.795018 4.330000
  endloop
endfacet
facet normal 0.000000 0.012899 0.000000
  outer loop
    vertex 66.605049 8.455018 4.330000
    vertex 66.605049 8.455018 3.900000
    vertex 66.575050 8.455018 3.900000
  endloop
endfacet
facet normal 0.000000 0.012899 0.000000
  outer loop
    vertex 66.605049 8.455018 4.330000
    vertex 66.575050 8.455018 3.900000
    vertex 66.575050 8.455018 4.330000
  endloop
endfacet
facet normal 0.000000 0.000000 -0.000900
  outer loop
    vertex 66.575050 8.425018 3.900000
    vertex 66.575050 8.455018 3.900000
    vertex 66.605049 8.425018 3.900000
  endloop
endfacet
facet normal 0.000000 0.000000 -0.000900
  outer loop
    vertex 66.575050 8.455018 3.900000
    vertex 66.605049 8.455018 3.900000
    vertex 66.605049 8.425018 3.900000
  endloop
endfacet
facet normal -0.013800 0.000000 0.000000
  outer loop
    vertex 66.575050 8.425018 4.360000
    vertex 66.575050 8.455018 3.900000
    vertex 66.575050 8.425018 3.900000
  endloop
endfacet
facet normal -0.012900 0.000000 0.000000
  outer loop
    vertex 66.575050 8.425018 4.360000
    vertex 66.575050 8.455018 4.330000
    vertex 66.575050 8.455018 3.900000
  endloop
endfacet
facet normal -0.010200 0.000000 0.000000
  outer loop
    vertex 66.575050 8.795018 4.330000
    vertex 66.575050 8.455018 4.330000
    vertex 66.575050 8.425018 4.360000
  endloop
endfacet
facet normal -0.012900 0.000000 0.000000
  outer loop
    vertex 66.575050 8.795018 4.330000
    vertex 66.575050 8.825018 3.900000
    vertex 66.575050 8.795018 3.900000
  endloop
endfacet
facet normal -0.013800 0.000000 -0.000000
  outer loop
    vertex 66.575050 8.825018 4.360000
    vertex 66.575050 8.825018 3.900000
    vertex 66.575050 8.795018 4.330000
  endloop
endfacet
facet normal -0.012000 -0.000000 0.000000
  outer loop
    vertex 66.575050 8.825018 4.360000
    vertex 66.575050 8.795018 4.330000
    vertex 66.575050 8.425018 4.360000
  endloop
endfacet
facet normal 0.000000 0.000000 0.010200
  outer loop
    vertex 67.025047 8.795018 4.360000
    vertex 66.995049 8.455018 4.360000
    vertex 67.025047 8.455018 4.360000
  endloop
endfacet
facet normal 0.000000 0.000000 0.012600
  outer loop
    vertex 66.575050 8.425018 4.360000
    vertex 66.995049 8.425018 4.360000
    vertex 66.995049 8.455018 4.360000
  endloop
endfacet
facet normal 0.000000 0.000000 0.167999
  outer loop
    vertex 66.575050 8.825018 4.360000
    vertex 66.575050 8.425018 4.360000
    vertex 66.995049 8.455018 4.360000
  endloop
endfacet
facet normal 0.000000 0.000000 0.142799
  outer loop
    vertex 66.575050 8.825018 4.360000
    vertex 66.995049 8.455018 4.360000
    vertex 66.995049 8.795018 4.360000
  endloop
endfacet
facet normal -0.000000 0.000000 0.010200
  outer loop
    vertex 66.995049 8.795018 4.360000
    vertex 66.995049 8.455018 4.360000
    vertex 67.025047 8.795018 4.360000
  endloop
endfacet
facet normal -0.000000 0.000000 0.012600
  outer loop
    vertex 66.575050 8.825018 4.360000
    vertex 66.995049 8.795018 4.360000
    vertex 66.995049 8.825018 4.360000
  endloop
endfacet
facet normal 0.000000 0.000000 0.000900
  outer loop
    vertex 66.995049 8.425018 4.710000
    vertex 67.025047 8.425018 4.710000
    vertex 67.025047 8.455018 4.710000
  endloop
endfacet
facet normal -0.000000 0.000000 0.000900
  outer loop
    vertex 66.995049 8.455018 4.710000
    vertex 66.995049 8.425018 4.710000
    vertex 67.025047 8.455018 4.710000
  endloop
endfacet
facet normal 0.000000 0.004196 0.000000
  outer loop
    vertex 67.025047 8.455018 4.499868
    vertex 67.025047 8.455018 4.360000
    vertex 66.995049 8.455018 4.360000
  endloop
endfacet
facet normal 0.000000 0.004196 0.000000
  outer loop
    vertex 67.025047 8.455018 4.499868
    vertex 66.995049 8.455018 4.360000
    vertex 66.995049 8.455018 4.499868
  endloop
endfacet
facet normal -0.010500 0.000000 0.000000
  outer loop
    vertex 66.995049 8.425018 4.710000
    vertex 66.995049 8.455018 4.360000
    vertex 66.995049 8.425018 4.360000
  endloop
endfacet
facet normal -0.004196 0.000000 0.000000
  outer loop
    vertex 66.995049 8.425018 4.710000
    vertex 66.995049 8.455018 4.499868
    vertex 66.995049 8.455018 4.360000
  endloop
endfacet
facet normal -0.006304 -0.000000 -0.000000
  outer loop
    vertex 66.995049 8.455018 4.710000
    vertex 66.995049 8.455018 4.499868
    vertex 66.995049 8.425018 4.710000
  endloop
endfacet
facet normal 0.000000 0.000000 0.000900
  outer loop
    vertex 66.995049 8.795018 4.710000
    vertex 67.025047 8.795018 4.710000
    vertex 67.025047 8.825018 4.710000
  endloop
endfacet
facet normal -0.000000 0.000000 0.000900
  outer loop
    vertex 66.995049 8.825018 4.710000
    vertex 66.995049 8.795018 4.710000
    vertex 67.025047 8.825018 4.710000
  endloop
endfacet
facet normal -0.004196 0.000000 0.000000
  outer loop
    vertex 66.995049 8.795018 4.499868
    vertex 66.995049 8.825018 4.360000
    vertex 66.995049 8.795018 4.360000
  endloop
endfacet
facet normal -0.010500 0.000000 -0.000000
  outer loop
    vertex 66.995049 8.825018 4.710000
    vertex 66.995049 8.825018 4.360000
    vertex 66.995049 8.795018 4.499868
  endloop
endfacet
facet normal -0.006304 -0.000000 0.000000
  outer loop
    vertex 66.995049 8.825018 4.710000
    vertex 66.995049 8.795018 4.499868
    vertex 66.995049 8.795018 4.710000
  endloop
endfacet
facet normal 0.000000 -0.004196 0.000000
  outer loop
    vertex 67.025047 8.795018 4.360000
    vertex 67.025047 8.795018 4.499868
    vertex 66.995049 8.795018 4.499868
  endloop
endfacet
facet normal 0.000000 -0.004196 0.000000
  outer loop
    vertex 67.025047 8.795018 4.360000
    vertex 66.995049 8.795018 4.499868
    vertex 66.995049 8.795018 4.360000
  endloop
endfacet
facet normal 0.071445 0.000000 -0.000000
  outer loop
    vertex 67.025047 8.795018 4.499868
    vertex 67.025047 8.795018 4.710000
    vertex 67.025047 8.455018 4.499868
  endloop
endfacet
facet normal 0.071445 0.000000 0.000000
  outer loop
    vertex 67.025047 8.795018 4.710000
    vertex 67.025047 8.455018 4.710000
    vertex 67.025047 8.455018 4.499868
  endloop
endfacet
facet normal -0.071445 0.000000 0.000000
  outer loop
    vertex 66.995049 8.795018 4.499868
    vertex 66.995049 8.455018 4.499868
    vertex 66.995049 8.455018 4.710000
  endloop
endfacet
facet normal -0.071445 -0.000000 -0.000000
  outer loop
    vertex 66.995049 8.795018 4.710000
    vertex 66.995049 8.795018 4.499868
    vertex 66.995049 8.455018 4.710000
  endloop
endfacet
facet normal 0.000000 0.000000 0.010200
  outer loop
    vertex 67.025047 8.795018 4.710000
    vertex 66.995049 8.455018 4.710000
    vertex 67.025047 8.455018 4.710000
  endloop
endfacet
facet normal -0.000000 0.000000 0.010200
  outer loop
    vertex 66.995049 8.795018 4.710000
    vertex 66.995049 8.455018 4.710000
    vertex 67.025047 8.795018 4.710000
  endloop
endfacet
facet normal 0.000000 0.006304 0.000000
  outer loop
    vertex 67.025047 8.455018 4.710000
    vertex 67.025047 8.455018 4.499868
    vertex 66.995049 8.455018 4.499868
  endloop
endfacet
facet normal 0.000000 0.006304 0.000000
  outer loop
    vertex 67.025047 8.455018 4.710000
    vertex 66.995049 8.455018 4.499868
    vertex 66.995049 8.455018 4.710000
  endloop
endfacet
facet normal 0.000000 0.000000 -0.010200
  outer loop
    vertex 66.995049 8.455018 4.499868
    vertex 66.995049 8.795018 4.499868
    vertex 67.025047 8.455018 4.499868
  endloop
endfacet
facet normal 0.000000 0.000000 -0.010200
  outer loop
    vertex 67.025047 8.455018 4.499868
    vertex 66.995049 8.795018 4.499868
    vertex 67.025047 8.795018 4.499868
  endloop
endfacet
facet normal 0.000000 -0.006304 0.000000
  outer loop
    vertex 67.025047 8.795018 4.499868
    vertex 67.025047 8.795018 4.710000
    vertex 66.995049 8.795018 4.710000
  endloop
endfacet
facet normal 0.000000 -0.006304 0.000000
  outer loop
    vertex 67.025047 8.795018 4.499868
    vertex 66.995049 8.795018 4.710000
    vertex 66.995049 8.795018 4.499868
  endloop
endfacet
facet normal 0.000000 0.000000 -0.000900
  outer loop
    vertex 66.575050 8.795018 3.900000
    vertex 66.575050 8.825018 3.900000
    vertex 66.605049 8.795018 3.900000
  endloop
endfacet
facet normal 0.000000 0.000000 -0.000900
  outer loop
    vertex 66.605049 8.795018 3.900000
    vertex 66.575050 8.825018 3.900000
    vertex 66.605049 8.825018 3.900000
  endloop
endfacet
facet normal 0.000000 -0.012899 0.000000
  outer loop
    vertex 66.605049 8.795018 3.900000
    vertex 66.605049 8.795018 4.330000
    vertex 66.575050 8.795018 4.330000
  endloop
endfacet
facet normal 0.000000 -0.012899 0.000000
  outer loop
    vertex 66.605049 8.795018 3.900000
    vertex 66.575050 8.795018 4.330000
    vertex 66.575050 8.795018 3.900000
  endloop
endfacet
facet normal 0.012900 0.000000 -0.000000
  outer loop
    vertex 66.605049 8.825018 3.900000
    vertex 66.605049 8.825018 4.330000
    vertex 66.605049 8.795018 3.900000
  endloop
endfacet
facet normal 0.012900 0.000000 0.000000
  outer loop
    vertex 66.605049 8.795018 3.900000
    vertex 66.605049 8.825018 4.330000
    vertex 66.605049 8.795018 4.330000
  endloop
endfacet
endsolid furniture_Tab2_Chair0
