solid furniture_Tab0_Chair0
facet normal 0.000000 0.012899 0.000000
  outer loop
    vertex 68.655052 8.825019 4.330000
    vertex 68.655052 8.825019 3.900000
    vertex 68.625053 8.825019 3.900000
  endloop
endfacet
facet normal 0.000000 0.011700 0.000000
  outer loop
    vertex 69.045052 8.825019 4.360000
    vertex 69.045052 8.825019 4.330000
    vertex 68.655052 8.825019 4.330000
  endloop
endfacet
facet normal 0.000000 0.012600 0.000000
  outer loop
    vertex 69.045052 8.825019 4.360000
    vertex 68.655052 8.825019 4.330000
    vertex 68.625053 8.825019 4.360000
  endloop
endfacet
facet normal 0.000000 0.013799 0.000000
  outer loop
    vertex 68.655052 8.825019 4.330000
    vertex 68.625053 8.825019 3.900000
    vertex 68.625053 8.825019 4.360000
  endloop
endfacet
facet normal 0.000000 0.024299 0.000000
  outer loop
    vertex 69.075050 8.825019 4.710000
    vertex 69.075050 8.825019 3.900000
    vertex 69.045052 8.825019 3.900000
  endloop
endfacet
facet normal 0.000000 0.012899 0.000000
  outer loop
    vertex 69.075050 8.825019 4.710000
    vertex 69.045052 8.825019 3.900000
    vertex 69.045052 8.825019 4.330000
  endloop
endfacet
facet normal 0.000000 0.011400 0.000000
  outer loop
    vertex 69.075050 8.825019 4.710000
    vertex 69.045052 8.825019 4.330000
    vertex 69.045052 8.825019 4.710000
  endloop
endfacet
facet normal 0.024300 0.000000 -0.000000
  outer loop
    vertex 69.075050 8.825019 3.900000
    vertex 69.075050 8.825019 4.710000
    vertex 69.075050 8.795019 3.900000
  endloop
endfacet
facet normal 0.012900 0.000000 0.000000
  outer loop
    vertex 69.075050 8.795019 3.900000
    vertex 69.075050 8.825019 4.710000
    vertex 69.075050 8.795019 4.330000
  endloop
endfacet
facet normal 0.000900 0.000000 0.000000
  outer loop
    vertex 69.075050 8.795019 4.330000
    vertex 69.075050 8.825019 4.710000
    vertex 69.075050 8.795019 4.360000
  endloop
endfacet
facet normal 0.010200 0.000000 -0.000000
  outer loop
    vertex 69.075050 8.795019 4.330000
    vertex 69.075050 8.795019 4.360000
    vertex 69.075050 8.455019 4.330000
  endloop
endfacet
facet normal 0.004196 0.000000 0.000000
  outer loop
    vertex 69.075050 8.795019 4.360000
    vertex 69.075050 8.825019 4.710000
    vertex 69.075050 8.795019 4.499868
  endloop
endfacet
facet normal 0.006304 0.000000 0.000000
  outer loop
    vertex 69.075050 8.795019 4.499868
    vertex 69.075050 8.825019 4.710000
    vertex 69.075050 8.795019 4.710000
  endloop
endfacet
facet normal 0.012900 0.000000 -0.000000
  outer loop
    vertex 69.075050 8.455019 3.900000
    vertex 69.075050 8.455019 4.330000
    vertex 69.075050 8.425019 3.900000
  endloop
endfacet
facet normal 0.024300 0.000000 0.000000
  outer loop
    vertex 69.075050 8.425019 3.900000
    vertex 69.075050 8.455019 4.330000
    vertex 69.075050 8.425019 4.710000
  endloop
endfacet
facet normal 0.000900 0.000000 0.000000
  outer loop
    vertex 69.075050 8.425019 4.710000
    vertex 69.075050 8.455019 4.330000
    vertex 69.075050 8.455019 4.360000
  endloop
endfacet
facet normal 0.010200 0.000000 0.000000
  outer loop
    vertex 69.075050 8.795019 4.360000
    vertex 69.075050 8.455019 4.360000
    vertex 69.075050 8.455019 4.330000
  endloop
endfacet
facet normal 0.004196 0.000000 -0.000000
  outer loop
    vertex 69.075050 8.455019 4.360000
    vertex 69.075050 8.455019 4.499868
    vertex 69.075050 8.425019 4.710000
  endloop
endfacet
facet normal 0.006304 0.000000 -0.000000
  outer loop
    vertex 69.075050 8.455019 4.499868
    vertex 69.075050 8.455019 4.710000
    vertex 69.075050 8.425019 4.710000
  endloop
endfacet
facet normal 0.000000 -0.024299 0.000000
  outer loop
    vertex 69.075050 8.425019 3.900000
    vertex 69.075050 8.425019 4.710000
    vertex 69.045052 8.425019 4.710000
  endloop
endfacet
facet normal 0.000000 -0.011400 0.000000
  outer loop
    vertex 69.075050 8.425019 3.900000
    vertex 69.045052 8.425019 4.710000
    vertex 69.045052 8.425019 4.330000
  endloop
endfacet
facet normal 0.000000 -0.011700 0.000000
  outer loop
    vertex 69.045052 8.425019 4.330000
    vertex 69.045052 8.425019 4.360000
    vertex 68.655052 8.425019 4.330000
  endloop
endfacet
facet normal -0.000000 -0.012600 0.000000
  outer loop
    vertex 69.045052 8.425019 4.360000
    vertex 68.625053 8.425019 4.360000
    vertex 68.655052 8.425019 4.330000
  endloop
endfacet
facet normal 0.000000 -0.012899 0.000000
  outer loop
    vertex 68.655052 8.425019 3.900000
    vertex 68.655052 8.425019 4.330000
    vertex 68.625053 8.425019 4.360000
  endloop
endfacet
facet normal 0.000000 -0.013799 0.000000
  outer loop
    vertex 68.655052 8.425019 3.900000
    vertex 68.625053 8.425019 4.360000
    vertex 68.625053 8.425019 3.900000
  endloop
endfacet
facet normal 0.000000 -0.012899 0.000000
  outer loop
    vertex 69.075050 8.425019 3.900000
    vertex 69.045052 8.425019 4.330000
    vertex 69.045052 8.425019 3.900000
  endloop
endfacet
facet normal 0.000000 0.000000 -0.000900
  outer loop
    vertex 69.045052 8.425019 3.900000
    vertex 69.045052 8.455019 3.900000
    vertex 69.075050 8.425019 3.900000
  endloop
endfacet
facet normal 0.000000 0.000000 -0.000900
  outer loop
    vertex 69.045052 8.455019 3.900000
    vertex 69.075050 8.455019 3.900000
    vertex 69.075050 8.425019 3.900000
  endloop
endfacet
facet normal -0.012900 0.000000 0.000000
  outer loop
    vertex 69.045052 8.425019 4.330000
    vertex 69.045052 8.455019 3.900000
    vertex 69.045052 8.425019 3.900000
  endloop
endfacet
facet normal -0.012900 -0.000000 -0.000000
  outer loop
    vertex 69.045052 8.455019 4.330000
    vertex 69.045052 8.455019 3.900000
    vertex 69.045052 8.425019 4.330000
  endloop
endfacet
facet normal 0.000000 0.012899 0.000000
  outer loop
    vertex 69.075050 8.455019 4.330000
    vertex 69.075050 8.455019 3.900000
    vertex 69.045052 8.455019 3.900000
  endloop
endfacet
facet normal 0.000000 0.012899 0.000000
  outer loop
    vertex 69.075050 8.455019 4.330000
    vertex 69.045052 8.455019 3.900000
    vertex 69.045052 8.455019 4.330000
  endloop
endfacet
facet normal 0.000000 0.000000 -0.011700
  outer loop
    vertex 68.655052 8.795019 4.330000
    vertex 68.655052 8.825019 4.330000
    vertex 69.045052 8.795019 4.330000
  endloop
endfacet
facet normal 0.000000 0.000000 -0.011700
  outer loop
    vertex 68.655052 8.825019 4.330000
    vertex 69.045052 8.825019 4.330000
    vertex 69.045052 8.795019 4.330000
  endloop
endfacet
facet normal 0.000000 0.000000 -0.010200
  outer loop
    vertex 68.625053 8.455019 4.330000
    vertex 68.625053 8.795019 4.330000
    vertex 68.655052 8.455019 4.330000
  endloop
endfacet
facet normal 0.000000 0.000000 -0.132600
  outer loop
    vertex 68.655052 8.455019 4.330000
    vertex 68.625053 8.795019 4.330000
    vertex 69.045052 8.455019 4.330000
  endloop
endfacet
facet normal 0.000000 0.000000 -0.010200
  outer loop
    vertex 68.625053 8.795019 4.330000
    vertex 69.075050 8.455019 4.330000
    vertex 69.045052 8.455019 4.330000
  endloop
endfacet
facet normal 0.000000 0.000000 -0.152999
  outer loop
    vertex 68.625053 8.795019 4.330000
    vertex 69.075050 8.795019 4.330000
    vertex 69.075050 8.455019 4.330000
  endloop
endfacet
facet normal 0.000000 0.000000 -0.011700
  outer loop
    vertex 68.655052 8.425019 4.330000
    vertex 68.655052 8.455019 4.330000
    vertex 69.045052 8.425019 4.330000
  endloop
endfacet
facet normal 0.000000 0.000000 -0.011700
  outer loop
    vertex 68.655052 8.455019 4.330000
    vertex 69.045052 8.455019 4.330000
    vertex 69.045052 8.425019 4.330000
  endloop
endfacet
facet normal 0.012900 0.000000 -0.000000
  outer loop
    vertex 68.655052 8.455019 3.900000
    vertex 68.655052 8.455019 4.330000
    vertex 68.655052 8.425019 3.900000
  endloop
endfacet
facet normal 0.012900 0.000000 0.000000
  outer loop
    vertex 68.655052 8.425019 3.900000
    vertex 68.655052 8.455019 4.330000
    vertex 68.655052 8.425019 4.330000
  endloop
endfacet
facet normal 0.000000 0.000000 -0.000900
  outer loop
    vertex 69.045052 8.795019 3.900000
    vertex 69.045052 8.825019 3.900000
    vertex 69.075050 8.795019 3.900000
  endloop
endfacet
facet normal 0.000000 0.000000 -0.000900
  outer loop
    vertex 69.075050 8.795019 3.900000
    vertex 69.045052 8.825019 3.900000
    vertex 69.075050 8.825019 3.900000
  endloop
endfacet
facet normal 0.000000 -0.012899 0.000000
  outer loop
    vertex 69.075050 8.795019 3.900000
    vertex 69.075050 8.795019 4.330000
    vertex 69.045052 8.795019 4.330000
  endloop
endfacet
facet normal 0.000000 -0.012899 0.000000
  outer loop
    vertex 69.075050 8.795019 3.900000
    vertex 69.045052 8.795019 4.330000
    vertex 69.045052 8.795019 3.900000
  endloop
endfacet
facet normal -0.012900 0.000000 0.000000
  outer loop
    vertex 69.045052 8.795019 4.330000
    vertex 69.045052 8.825019 3.900000
    vertex 69.045052 8.795019 3.900000
  endloop
endfacet
facet normal -0.012900 -0.000000 -0.000000
  outer loop
    vertex 69.045052 8.825019 4.330000
    vertex 69.045052 8.825019 3.900000
    vertex 69.045052 8.795019 4.330000
  endloop
endfacet
facet normal 0.000000 0.012899 0.000000
  outer loop
    vertex 68.655052 8.455019 4.330000
    vertex 68.655052 8.455019 3.900000
    vertex 68.625053 8.455019 3.900000
  endloop
endfacet
facet normal 0.000000 0.012899 0.000000
  outer loop
    vertex 68.655052 8.455019 4.330000
    vertex 68.625053 8.455019 3.900000
    vertex 68.625053 8.455019 4.330000
  endloop
endfacet
facet normal 0.000000 0.000000 -0.000900
  outer loop
    vertex 68.625053 8.425019 3.900000
    vertex 68.625053 8.455019 3.900000
    vertex 68.655052 8.425019 3.900000
  endloop
endfacet
facet normal 0.000000 0.000000 -0.000900
  outer loop
    vertex 68.625053 8.455019 3.900000
    vertex 68.655052 8.455019 3.900000
    vertex 68.655052 8.425019 3.900000
  endloop
endfacet
facet normal -0.013800 0.000000 0.000000
  outer loop
    vertex 68.625053 8.425019 4.360000
    vertex 68.625053 8.455019 3.900000
    vertex 68.625053 8.425019 3.900000
  endloop
endfacet
facet normal -0.012900 0.000000 0.000000
  outer loop
    vertex 68.625053 8.425019 4.360000
    vertex 68.625053 8.455019 4.330000
    vertex 68.625053 8.455019 3.900000
  endloop
endfacet
facet normal -0.010200 0.000000 0.000000
  outer loop
    vertex 68.625053 8.795019 4.330000
    vertex 68.625053 8.455019 4.330000
    vertex 68.625053 8.425019 4.360000
  endloop
endfacet
facet normal -0.012900 0.000000 0.000000
  outer loop
    vertex 68.625053 8.795019 4.330000
    vertex 68.625053 8.825019 3.900000
    vertex 68.625053 8.795019 3.900000
  endloop
endfacet
facet normal -0.013800 0.000000 -0.000000
  outer loop
    vertex 68.625053 8.825019 4.360000
    vertex 68.625053 8.825019 3.900000
    vertex 68.625053 8.795019 4.330000
  endloop
endfacet
facet normal -0.012000 -0.000000 0.000000
  outer loop
    vertex 68.625053 8.825019 4.360000
    vertex 68.625053 8.795019 4.330000
    vertex 68.625053 8.425019 4.360000
  endloop
endfacet
facet normal 0.000000 0.000000 0.010200
  outer loop
    vertex 69.075050 8.795019 4.360000
    vertex 69.045052 8.455019 4.360000
    vertex 69.075050 8.455019 4.360000
  endloop
endfacet
facet normal 0.000000 0.000000 0.012600
  outer loop
    vertex 68.625053 8.425019 4.360000
    vertex 69.045052 8.425019 4.360000
    vertex 69.045052 8.455019 4.360000
  endloop
endfacet
facet normal 0.000000 0.000000 0.167999
  outer loop
    vertex 68.625053 8.825019 4.360000
    vertex 68.625053 8.425019 4.360000
    vertex 69.045052 8.455019 4.360000
  endloop
endfacet
facet normal 0.000000 0.000000 0.142799
  outer loop
    vertex 68.625053 8.825019 4.360000
    vertex 69.045052 8.455019 4.360000
    vertex 69.045052 8.795019 4.360000
  endloop
endfacet
facet normal -0.000000 0.000000 0.010200
  outer loop
    vertex 69.045052 8.795019 4.360000
    vertex 69.045052 8.455019 4.360000
    vertex 69.075050 8.795019 4.360000
  endloop
endfacet
facet normal -0.000000 0.000000 0.012600
  outer loop
    vertex 68.625053 8.825019 4.360000
    vertex 69.045052 8.795019 4.360000
    vertex 69.045052 8.825019 4.360000
  endloop
endfacet
facet normal 0.000000 0.000000 0.000900
  outer loop
    vertex 69.045052 8.425019 4.710000
    vertex 69.075050 8.425019 4.710000
    vertex 69.075050 8.455019 4.710000
  endloop
endfacet
facet normal -0.000000 0.000000 0.000900
  outer loop
    vertex 69.045052 8.455019 4.710000
    vertex 69.045052 8.425019 4.710000
    vertex 69.075050 8.455019 4.710000
  endloop
endfacet
facet normal 0.000000 0.004196 0.000000
  outer loop
    vertex 69.075050 8.455019 4.499868
    vertex 69.075050 8.455019 4.360000
    vertex 69.045052 8.455019 4.360000
  endloop
endfacet
facet normal 0.000000 0.004196 0.000000
  outer loop
    vertex 69.075050 8.455019 4.499868
    vertex 69.045052 8.455019 4.360000
    vertex 69.045052 8.455019 4.499868
  endloop
endfacet
facet normal -0.010500 0.000000 0.000000
  outer loop
    vertex 69.045052 8.425019 4.710000
    vertex 69.045052 8.455019 4.360000
    vertex 69.045052 8.425019 4.360000
  endloop
endfacet
facet normal -0.004196 0.000000 0.000000
  outer loop
    vertex 69.045052 8.425019 4.710000
    vertex 69.045052 8.455019 4.499868
    vertex 69.045052 8.455019 4.360000
  endloop
endfacet
facet normal -0.006304 -0.000000 -0.000000
  outer loop
    vertex 69.045052 8.455019 4.710000
    vertex 69.045052 8.455019 4.499868
    vertex 69.045052 8.425019 4.710000
  endloop
endfacet
facet normal 0.000000 0.000000 0.000900
  outer loop
    vertex 69.045052 8.795019 4.710000
    vertex 69.075050 8.795019 4.710000
    vertex 69.075050 8.825019 4.710000
  endloop
endfacet
facet normal -0.000000 0.000000 0.000900
  outer loop
    vertex 69.045052 8.825019 4.710000
    vertex 69.045052 8.795019 4.710000
    vertex 69.075050 8.825019 4.710000
  endloop
endfacet
facet normal -0.004196 0.000000 0.000000
  outer loop
    vertex 69.045052 8.795019 4.499868
    vertex 69.045052 8.825019 4.360000
    vertex 69.045052 8.795019 4.360000
  endloop
endfacet
facet normal -0.010500 0.000000 -0.000000
  outer loop
    vertex 69.045052 8.825019 4.710000
    vertex 69.045052 8.825019 4.360000
    vertex 69.045052 8.795019 4.499868
  endloop
endfacet
facet normal -0.006304 -0.000000 0.000000
  outer loop
    vertex 69.045052 8.825019 4.710000
    vertex 69.045052 8.795019 4.499868
    vertex 69.045052 8.795019 4.710000
  endloop
endfacet
facet normal 0.000000 -0.004196 0.000000
  outer loop
    vertex 69.075050 8.795019 4.360000
    vertex 69.075050 8.795019 4.499868
    vertex 69.045052 8.795019 4.499868
  endloop
endfacet
facet normal 0.000000 -0.004196 0.000000
  outer loop
    vertex 69.075050 8.795019 4.360000
    vertex 69.045052 8.795019 4.499868
    vertex 69.045052 8.795019 4.360000
  endloop
endfacet
facet normal 0.071445 0.000000 -0.000000
  outer loop
    vertex 69.075050 8.795019 4.499868
    vertex 69.075050 8.795019 4.710000
    vertex 69.075050 8.455019 4.499868
  endloop
endfacet
facet normal 0.071445 0.000000 0.000000
  outer loop
    vertex 69.075050 8.795019 4.710000
    vertex 69.075050 8.455019 4.710000
    vertex 69.075050 8.455019 4.499868
  endloop
endfacet
facet normal -0.071445 0.000000 0.000000
  outer loop
    vertex 69.045052 8.795019 4.499868
    vertex 69.045052 8.455019 4.499868
    vertex 69.045052 8.455019 4.710000
  endloop
endfacet
facet normal -0.071445 -0.000000 -0.000000
  outer loop
    vertex 69.045052 8.795019 4.710000
    vertex 69.045052 8.795019 4.499868
    vertex 69.045052 8.455019 4.710000
  endloop
endfacet
facet normal 0.000000 0.000000 0.010200
  outer loop
    vertex 69.075050 8.795019 4.710000
    vertex 69.045052 8.455019 4.710000
    vertex 69.075050 8.455019 4.710000
  endloop
endfacet
facet normal -0.000000 0.000000 0.010200
  outer loop
    vertex 69.045052 8.795019 4.710000
    vertex 69.045052 8.455019 4.710000
    vertex 69.075050 8.795019 4.710000
  endloop
endfacet
facet normal 0.000000 0.006304 0.000000
  outer loop
    vertex 69.075050 8.455019 4.710000
    vertex 69.075050 8.455019 4.499868
    vertex 69.045052 8.455019 4.499868
  endloop
endfacet
facet normal 0.000000 0.006304 0.000000
  outer loop
    vertex 69.075050 8.455019 4.710000
    vertex 69.045052 8.455019 4.499868
    vertex 69.045052 8.455019 4.710000
  endloop
endfacet
facet normal 0.000000 0.000000 -0.010200
  outer loop
    vertex 69.045052 8.455019 4.499868
    vertex 69.045052 8.795019 4.499868
    vertex 69.075050 8.455019 4.499868
  endloop
endfacet
facet normal 0.000000 0.000000 -0.010200
  outer loop
    vertex 69.075050 8.455019 4.499868
    vertex 69.045052 8.795019 4.499868
    vertex 69.075050 8.795019 4.499868
  endloop
endfacet
facet normal 0.000000 -0.006304 0.000000
  outer loop
    vertex 69.075050 8.795019 4.499868
    vertex 69.075050 8.795019 4.710000
    vertex 69.045052 8.795019 4.710000
  endloop
endfacet
facet normal 0.000000 -0.006304 0.000000
  outer loop
    vertex 69.075050 8.795019 4.499868
    vertex 69.045052 8.795019 4.710000
    vertex 69.045052 8.795019 4.499868
  endloop
endfacet
facet normal 0.000000 0.000000 -0.000900
  outer loop
    vertex 68.625053 8.795019 3.900000
    vertex 68.625053 8.825019 3.900000
    vertex 68.655052 8.795019 3.900000
  endloop
endfacet
facet normal 0.000000 0.000000 -0.000900
  outer loop
    vertex 68.655052 8.795019 3.900000
    vertex 68.625053 8.825019 3.900000
    vertex 68.655052 8.825019 3.900000
  endloop
endfacet
facet normal 0.000000 -0.012899 0.000000
  outer loop
    vertex 68.655052 8.795019 3.900000
    vertex 68.655052 8.795019 4.330000
    vertex 68.625053 8.795019 4.330000
  endloop
endfacet
facet normal 0.000000 -0.012899 0.000000
  outer loop
    vertex 68.655052 8.795019 3.900000
    vertex 68.625053 8.795019 4.330000
    vertex 68.625053 8.795019 3.900000
  endloop
endfacet
facet normal 0.012900 0.000000 -0.000000
  outer loop
    vertex 68.655052 8.825019 3.900000
    vertex 68.655052 8.825019 4.330000
    vertex 68.655052 8.795019 3.900000
  endloop
endfacet
facet normal 0.012900 0.000000 0.000000
  outer loop
    vertex 68.655052 8.795019 3.900000
    vertex 68.655052 8.825019 4.330000
    vertex 68.655052 8.795019 4.330000
  endloop
endfacet
endsolid furniture_Tab0_Chair0
