solid furniture_Desk2
facet normal 0.000000 0.021905 0.000000
  outer loop
    vertex 65.805054 9.325018 4.630000
    vertex 65.805054 9.325018 3.900000
    vertex 65.775047 9.325018 3.900000
  endloop
endfacet
facet normal 0.000000 0.022799 0.000000
  outer loop
    vertex 66.575050 9.325018 4.660000
    vertex 66.575050 9.325018 3.900000
    vertex 66.545052 9.325018 3.900000
  endloop
endfacet
facet normal 0.000000 0.021899 0.000000
  outer loop
    vertex 66.575050 9.325018 4.660000
    vertex 66.545052 9.325018 3.900000
    vertex 66.545052 9.325018 4.630000
  endloop
endfacet
facet normal 0.000000 0.024000 0.000000
  outer loop
    vertex 66.575050 9.325018 4.660000
    vertex 66.545052 9.325018 4.630000
    vertex 65.775047 9.325018 4.660000
  endloop
endfacet
facet normal 0.000000 0.022200 0.000000
  outer loop
    vertex 66.545052 9.325018 4.630000
    vertex 65.805054 9.325018 4.630000
    vertex 65.775047 9.325018 4.660000
  endloop
endfacet
facet normal 0.000000 0.022805 0.000000
  outer loop
    vertex 65.805054 9.325018 4.630000
    vertex 65.775047 9.325018 3.900000
    vertex 65.775047 9.325018 4.660000
  endloop
endfacet
facet normal -0.022800 0.000000 0.000000
  outer loop
    vertex 65.775047 7.925018 4.660000
    vertex 65.775047 7.955018 3.900000
    vertex 65.775047 7.925018 3.900000
  endloop
endfacet
facet normal -0.021900 -0.000000 -0.000000
  outer loop
    vertex 65.775047 7.955018 4.630000
    vertex 65.775047 7.955018 3.900000
    vertex 65.775047 7.925018 4.660000
  endloop
endfacet
facet normal -0.040200 0.000000 0.000000
  outer loop
    vertex 65.775047 9.295018 4.630000
    vertex 65.775047 7.955018 4.630000
    vertex 65.775047 7.925018 4.660000
  endloop
endfacet
facet normal -0.021900 0.000000 0.000000
  outer loop
    vertex 65.775047 9.295018 4.630000
    vertex 65.775047 9.325018 3.900000
    vertex 65.775047 9.295018 3.900000
  endloop
endfacet
facet normal -0.022800 0.000000 -0.000000
  outer loop
    vertex 65.775047 9.325018 4.660000
    vertex 65.775047 9.325018 3.900000
    vertex 65.775047 9.295018 4.630000
  endloop
endfacet
facet normal -0.042000 -0.000000 0.000000
  outer loop
    vertex 65.775047 9.325018 4.660000
    vertex 65.775047 9.295018 4.630000
    vertex 65.775047 7.925018 4.660000
  endloop
endfacet
facet normal 0.000000 0.000000 1.120004
  outer loop
    vertex 66.575050 9.325018 4.660000
    vertex 65.775047 7.925018 4.660000
    vertex 66.575050 7.925018 4.660000
  endloop
endfacet
facet normal -0.000000 0.000000 1.120004
  outer loop
    vertex 65.775047 9.325018 4.660000
    vertex 65.775047 7.925018 4.660000
    vertex 66.575050 9.325018 4.660000
  endloop
endfacet
facet normal 0.022800 0.000000 -0.000000
  outer loop
    vertex 66.575050 9.325018 3.900000
    vertex 66.575050 9.325018 4.660000
    vertex 66.575050 9.295018 3.900000
  endloop
endfacet
facet normal 0.021900 0.000000 0.000000
  outer loop
    vertex 66.575050 9.295018 3.900000
    vertex 66.575050 9.325018 4.660000
    vertex 66.575050 9.295018 4.630000
  endloop
endfacet
facet normal 0.040200 0.000000 -0.000000
  outer loop
    vertex 66.575050 9.295018 4.630000
    vertex 66.575050 9.325018 4.660000
    vertex 66.575050 7.955018 4.630000
  endloop
endfacet
facet normal 0.021900 0.000000 -0.000000
  outer loop
    vertex 66.575050 7.955018 3.900000
    vertex 66.575050 7.955018 4.630000
    vertex 66.575050 7.925018 3.900000
  endloop
endfacet
facet normal 0.022800 0.000000 0.000000
  outer loop
    vertex 66.575050 7.925018 3.900000
    vertex 66.575050 7.955018 4.630000
    vertex 66.575050 7.925018 4.660000
  endloop
endfacet
facet normal 0.042000 0.000000 0.000000
  outer loop
    vertex 66.575050 9.325018 4.660000
    vertex 66.575050 7.925018 4.660000
    vertex 66.575050 7.955018 4.630000
  endloop
endfacet
facet normal 0.000000 -0.022799 0.000000
  outer loop
    vertex 66.575050 7.925018 3.900000
    vertex 66.575050 7.925018 4.660000
    vertex 66.545052 7.925018 4.630000
  endloop
endfacet
facet normal -0.000000 -0.024000 0.000000
  outer loop
    vertex 66.575050 7.925018 4.660000
    vertex 65.775047 7.925018 4.660000
    vertex 66.545052 7.925018 4.630000
  endloop
endfacet
facet normal 0.000000 -0.022200 0.000000
  outer loop
    vertex 66.545052 7.925018 4.630000
    vertex 65.775047 7.925018 4.660000
    vertex 65.805054 7.925018 4.630000
  endloop
endfacet
facet normal 0.000000 -0.021905 0.000000
  outer loop
    vertex 65.805054 7.925018 3.900000
    vertex 65.805054 7.925018 4.630000
    vertex 65.775047 7.925018 4.660000
  endloop
endfacet
facet normal 0.000000 -0.022805 0.000000
  outer loop
    vertex 65.805054 7.925018 3.900000
    vertex 65.775047 7.925018 4.660000
    vertex 65.775047 7.925018 3.900000
  endloop
endfacet
facet normal 0.000000 -0.021899 0.000000
  outer loop
    vertex 66.575050 7.925018 3.900000
    vertex 66.545052 7.925018 4.630000
    vertex 66.545052 7.925018 3.900000
  endloop
endfacet
facet normal 0.000000 0.000000 -0.000900
  outer loop
    vertex 66.545052 7.925018 3.900000
    vertex 66.545052 7.955018 3.900000
    vertex 66.575050 7.925018 3.900000
  endloop
endfacet
facet normal 0.000000 0.000000 -0.000900
  outer loop
    vertex 66.545052 7.955018 3.900000
    vertex 66.575050 7.955018 3.900000
    vertex 66.575050 7.925018 3.900000
  endloop
endfacet
facet normal -0.021900 0.000000 0.000000
  outer loop
    vertex 66.545052 7.925018 4.630000
    vertex 66.545052 7.955018 3.900000
    vertex 66.545052 7.925018 3.900000
  endloop
endfacet
facet normal -0.021900 -0.000000 -0.000000
  outer loop
    vertex 66.545052 7.955018 4.630000
    vertex 66.545052 7.955018 3.900000
    vertex 66.545052 7.925018 4.630000
  endloop
endfacet
facet normal 0.000000 0.021899 0.000000
  outer loop
    vertex 66.575050 7.955018 4.630000
    vertex 66.575050 7.955018 3.900000
    vertex 66.545052 7.955018 3.900000
  endloop
endfacet
facet normal 0.000000 0.021899 0.000000
  outer loop
    vertex 66.575050 7.955018 4.630000
    vertex 66.545052 7.955018 3.900000
    vertex 66.545052 7.955018 4.630000
  endloop
endfacet
facet normal 0.000000 0.000000 -0.022200
  outer loop
    vertex 65.805054 7.925018 4.630000
    vertex 65.805054 7.955018 4.630000
    vertex 66.545052 7.925018 4.630000
  endloop
endfacet
facet normal 0.000000 0.000000 -0.022200
  outer loop
    vertex 65.805054 7.955018 4.630000
    vertex 66.545052 7.955018 4.630000
    vertex 66.545052 7.925018 4.630000
  endloop
endfacet
facet normal 0.000000 0.000000 -0.040209
  outer loop
    vertex 65.775047 7.955018 4.630000
    vertex 65.775047 9.295018 4.630000
    vertex 65.805054 7.955018 4.630000
  endloop
endfacet
facet normal 0.000000 0.000000 -0.991597
  outer loop
    vertex 65.805054 7.955018 4.630000
    vertex 65.775047 9.295018 4.630000
    vertex 66.545052 7.955018 4.630000
  endloop
endfacet
facet normal 0.000000 0.000000 -0.040198
  outer loop
    vertex 66.545052 7.955018 4.630000
    vertex 65.775047 9.295018 4.630000
    vertex 66.575050 7.955018 4.630000
  endloop
endfacet
facet normal 0.000000 0.000000 -1.031806
  outer loop
    vertex 66.575050 7.955018 4.630000
    vertex 65.775047 9.295018 4.630000
    vertex 66.545052 9.295018 4.630000
  endloop
endfacet
facet normal 0.000000 0.000000 -0.022200
  outer loop
    vertex 65.805054 9.295018 4.630000
    vertex 66.545052 9.325018 4.630000
    vertex 66.545052 9.295018 4.630000
  endloop
endfacet
facet normal 0.000000 0.000000 -0.022200
  outer loop
    vertex 65.805054 9.295018 4.630000
    vertex 65.805054 9.325018 4.630000
    vertex 66.545052 9.325018 4.630000
  endloop
endfacet
facet normal 0.000000 0.000000 -0.040198
  outer loop
    vertex 66.575050 7.955018 4.630000
    vertex 66.545052 9.295018 4.630000
    vertex 66.575050 9.295018 4.630000
  endloop
endfacet
facet normal 0.000000 0.000000 -0.000900
  outer loop
    vertex 65.775047 7.925018 3.900000
    vertex 65.775047 7.955018 3.900000
    vertex 65.805054 7.925018 3.900000
  endloop
endfacet
facet normal 0.000000 0.000000 -0.000900
  outer loop
    vertex 65.775047 7.955018 3.900000
    vertex 65.805054 7.955018 3.900000
    vertex 65.805054 7.925018 3.900000
  endloop
endfacet
facet normal 0.000000 0.021905 0.000000
  outer loop
    vertex 65.805054 7.955018 4.630000
    vertex 65.805054 7.955018 3.900000
    vertex 65.775047 7.955018 3.900000
  endloop
endfacet
facet normal 0.000000 0.021905 0.000000
  outer loop
    vertex 65.805054 7.955018 4.630000
    vertex 65.775047 7.955018 3.900000
    vertex 65.775047 7.955018 4.630000
  endloop
endfacet
facet normal 0.021900 0.000000 -0.000000
  outer loop
    vertex 65.805054 7.955018 3.900000
    vertex 65.805054 7.955018 4.630000
    vertex 65.805054 7.925018 3.900000
  endloop
endfacet
facet normal 0.021900 0.000000 0.000000
  outer loop
    vertex 65.805054 7.925018 3.900000
    vertex 65.805054 7.955018 4.630000
    vertex 65.805054 7.925018 4.630000
  endloop
endfacet
facet normal 0.000000 0.000000 -0.000900
  outer loop
    vertex 65.775047 9.295018 3.900000
    vertex 65.775047 9.325018 3.900000
    vertex 65.805054 9.295018 3.900000
  endloop
endfacet
facet normal 0.000000 0.000000 -0.000900
  outer loop
    vertex 65.775047 9.325018 3.900000
    vertex 65.805054 9.325018 3.900000
    vertex 65.805054 9.295018 3.900000
  endloop
endfacet
facet normal 0.021900 0.000000 -0.000000
  outer loop
    vertex 65.805054 9.325018 3.900000
    vertex 65.805054 9.325018 4.630000
    vertex 65.805054 9.295018 3.900000
  endloop
endfacet
facet normal 0.021900 0.000000 0.000000
  outer loop
    vertex 65.805054 9.295018 3.900000
    vertex 65.805054 9.325018 4.630000
    vertex 65.805054 9.295018 4.630000
  endloop
endfacet
facet normal 0.000000 -0.021905 0.000000
  outer loop
    vertex 65.805054 9.295018 3.900000
    vertex 65.805054 9.295018 4.630000
    vertex 65.775047 9.295018 4.630000
  endloop
endfacet
facet normal 0.000000 -0.021905 0.000000
  outer loop
    vertex 65.805054 9.295018 3.900000
    vertex 65.775047 9.295018 4.630000
    vertex 65.775047 9.295018 3.900000
  endloop
endfacet
facet normal 0.000000 0.000000 -0.000900
  outer loop
    vertex 66.545052 9.295018 3.900000
    vertex 66.545052 9.325018 3.900000
    vertex 66.575050 9.295018 3.900000
  endloop
endfacet
facet normal 0.000000 0.000000 -0.000900
  outer loop
    vertex 66.545052 9.325018 3.900000
    vertex 66.575050 9.325018 3.900000
    vertex 66.575050 9.295018 3.900000
  endloop
endfacet
facet normal 0.000000 -0.021899 0.000000
  outer loop
    vertex 66.575050 9.295018 3.900000
    vertex 66.575050 9.295018 4.630000
    vertex 66.545052 9.295018 4.630000
  endloop
endfacet
facet normal 0.000000 -0.021899 0.000000
  outer loop
    vertex 66.575050 9.295018 3.900000
    vertex 66.545052 9.295018 4.630000
    vertex 66.545052 9.295018 3.900000
  endloop
endfacet
facet normal -0.021900 0.000000 0.000000
  outer loop
    vertex 66.545052 9.295018 4.630000
    vertex 66.545052 9.325018 3.900000
    vertex 66.545052 9.295018 3.900000
  endloop
endfacet
facet normal -0.021900 -0.000000 -0.000000
  outer loop
    vertex 66.545052 9.325018 4.630000
    vertex 66.545052 9.325018 3.900000
    vertex 66.545052 9.295018 4.630000
  endloop
endfacet
endsolid furniture_Desk2
