solid furniture_Tab0_Chair0
facet normal 0.071445 0.000000 -0.000000
  outer loop
    vertex 68.075050 9.795019 5.499868
    vertex 68.075050 9.795019 5.710000
    vertex 68.075050 9.455019 5.499868
  endloop
endfacet
facet normal 0.071445 0.000000 0.000000
  outer loop
    vertex 68.075050 9.795019 5.710000
    vertex 68.075050 9.455019 5.710000
    vertex 68.075050 9.455019 5.499868
  endloop
endfacet
facet normal 0.000000 0.000000 0.010200
  outer loop
    vertex 68.075050 9.795019 5.710000
    vertex 68.045052 9.455019 5.710000
    vertex 68.075050 9.455019 5.710000
  endloop
endfacet
facet normal -0.000000 0.000000 0.010200
  outer loop
    vertex 68.045052 9.795019 5.710000
    vertex 68.045052 9.455019 5.710000
    vertex 68.075050 9.795019 5.710000
  endloop
endfacet
facet normal -0.071445 0.000000 0.000000
  outer loop
    vertex 68.045052 9.795019 5.499868
    vertex 68.045052 9.455019 5.499868
    vertex 68.045052 9.455019 5.710000
  endloop
endfacet
facet normal -0.071445 -0.000000 -0.000000
  outer loop
    vertex 68.045052 9.795019 5.710000
    vertex 68.045052 9.795019 5.499868
    vertex 68.045052 9.455019 5.710000
  endloop
endfacet
facet normal -0.012900 0.000000 0.000000
  outer loop
    vertex 67.625053 9.825019 4.900000
    vertex 67.625053 9.795019 4.900000
    vertex 67.625053 9.795019 5.330000
  endloop
endfacet
facet normal -0.013800 0.000000 0.000000
  outer loop
    vertex 67.625053 9.825019 4.900000
    vertex 67.625053 9.795019 5.330000
    vertex 67.625053 9.825019 5.360000
  endloop
endfacet
facet normal 0.000000 0.000000 -0.000900
  outer loop
    vertex 68.045052 9.795019 4.900000
    vertex 68.045052 9.825019 4.900000
    vertex 68.075050 9.795019 4.900000
  endloop
endfacet
facet normal 0.000000 0.000000 -0.000900
  outer loop
    vertex 68.075050 9.795019 4.900000
    vertex 68.045052 9.825019 4.900000
    vertex 68.075050 9.825019 4.900000
  endloop
endfacet
facet normal 0.012900 0.000000 -0.000000
  outer loop
    vertex 67.655052 9.455019 4.900000
    vertex 67.655052 9.455019 5.330000
    vertex 67.655052 9.425019 4.900000
  endloop
endfacet
facet normal 0.012900 0.000000 0.000000
  outer loop
    vertex 67.655052 9.425019 4.900000
    vertex 67.655052 9.455019 5.330000
    vertex 67.655052 9.425019 5.330000
  endloop
endfacet
facet normal 0.000000 0.000000 -0.010200
  outer loop
    vertex 67.655052 9.455019 5.330000
    vertex 67.625053 9.455019 5.330000
    vertex 67.625053 9.795019 5.330000
  endloop
endfacet
facet normal 0.000000 0.000000 -0.132600
  outer loop
    vertex 67.655052 9.455019 5.330000
    vertex 67.625053 9.795019 5.330000
    vertex 68.045052 9.455019 5.330000
  endloop
endfacet
facet normal 0.000000 0.000000 -0.010200
  outer loop
    vertex 67.625053 9.795019 5.330000
    vertex 68.075050 9.455019 5.330000
    vertex 68.045052 9.455019 5.330000
  endloop
endfacet
facet normal 0.000000 0.000000 -0.011700
  outer loop
    vertex 67.655052 9.795019 5.330000
    vertex 67.655052 9.825019 5.330000
    vertex 68.045052 9.795019 5.330000
  endloop
endfacet
facet normal 0.000000 0.000000 -0.011700
  outer loop
    vertex 67.655052 9.825019 5.330000
    vertex 68.045052 9.825019 5.330000
    vertex 68.045052 9.795019 5.330000
  endloop
endfacet
facet normal 0.012900 0.000000 -0.000000
  outer loop
    vertex 68.075050 9.455019 4.900000
    vertex 68.075050 9.455019 5.330000
    vertex 68.075050 9.425019 4.900000
  endloop
endfacet
facet normal 0.024300 0.000000 0.000000
  outer loop
    vertex 68.075050 9.425019 4.900000
    vertex 68.075050 9.455019 5.330000
    vertex 68.075050 9.425019 5.710000
  endloop
endfacet
facet normal 0.000900 0.000000 0.000000
  outer loop
    vertex 68.075050 9.425019 5.710000
    vertex 68.075050 9.455019 5.330000
    vertex 68.075050 9.455019 5.360000
  endloop
endfacet
facet normal 0.010200 0.000000 0.000000
  outer loop
    vertex 68.075050 9.795019 5.360000
    vertex 68.075050 9.455019 5.360000
    vertex 68.075050 9.455019 5.330000
  endloop
endfacet
facet normal 0.000000 0.024299 0.000000
  outer loop
    vertex 68.075050 9.825019 5.710000
    vertex 68.075050 9.825019 4.900000
    vertex 68.045052 9.825019 4.900000
  endloop
endfacet
facet normal 0.000000 0.012899 0.000000
  outer loop
    vertex 68.075050 9.825019 5.710000
    vertex 68.045052 9.825019 4.900000
    vertex 68.045052 9.825019 5.330000
  endloop
endfacet
facet normal 0.000000 0.010500 0.000000
  outer loop
    vertex 68.075050 9.825019 5.710000
    vertex 68.045052 9.825019 5.360000
    vertex 68.045052 9.825019 5.710000
  endloop
endfacet
facet normal 0.000000 0.000900 0.000000
  outer loop
    vertex 68.075050 9.825019 5.710000
    vertex 68.045052 9.825019 5.330000
    vertex 68.045052 9.825019 5.360000
  endloop
endfacet
facet normal 0.000000 0.011700 0.000000
  outer loop
    vertex 68.045052 9.825019 5.360000
    vertex 68.045052 9.825019 5.330000
    vertex 67.655052 9.825019 5.330000
  endloop
endfacet
facet normal 0.000000 0.012600 0.000000
  outer loop
    vertex 68.045052 9.825019 5.360000
    vertex 67.655052 9.825019 5.330000
    vertex 67.625053 9.825019 5.360000
  endloop
endfacet
facet normal 0.000000 0.013799 0.000000
  outer loop
    vertex 67.625053 9.825019 5.360000
    vertex 67.655052 9.825019 5.330000
    vertex 67.625053 9.825019 4.900000
  endloop
endfacet
facet normal 0.000000 0.012899 0.000000
  outer loop
    vertex 67.655052 9.825019 5.330000
    vertex 67.655052 9.825019 4.900000
    vertex 67.625053 9.825019 4.900000
  endloop
endfacet
facet normal 0.024300 0.000000 -0.000000
  outer loop
    vertex 68.075050 9.825019 4.900000
    vertex 68.075050 9.825019 5.710000
    vertex 68.075050 9.795019 4.900000
  endloop
endfacet
facet normal 0.012900 0.000000 0.000000
  outer loop
    vertex 68.075050 9.795019 4.900000
    vertex 68.075050 9.825019 5.710000
    vertex 68.075050 9.795019 5.330000
  endloop
endfacet
facet normal 0.000900 0.000000 0.000000
  outer loop
    vertex 68.075050 9.795019 5.330000
    vertex 68.075050 9.825019 5.710000
    vertex 68.075050 9.795019 5.360000
  endloop
endfacet
facet normal 0.010200 0.000000 -0.000000
  outer loop
    vertex 68.075050 9.795019 5.330000
    vertex 68.075050 9.795019 5.360000
    vertex 68.075050 9.455019 5.330000
  endloop
endfacet
facet normal 0.004196 0.000000 0.000000
  outer loop
    vertex 68.075050 9.795019 5.360000
    vertex 68.075050 9.825019 5.710000
    vertex 68.075050 9.795019 5.499868
  endloop
endfacet
facet normal 0.006304 0.000000 0.000000
  outer loop
    vertex 68.075050 9.795019 5.499868
    vertex 68.075050 9.825019 5.710000
    vertex 68.075050 9.795019 5.710000
  endloop
endfacet
facet normal 0.004196 0.000000 -0.000000
  outer loop
    vertex 68.075050 9.455019 5.360000
    vertex 68.075050 9.455019 5.499868
    vertex 68.075050 9.425019 5.710000
  endloop
endfacet
facet normal 0.006304 0.000000 -0.000000
  outer loop
    vertex 68.075050 9.455019 5.499868
    vertex 68.075050 9.455019 5.710000
    vertex 68.075050 9.425019 5.710000
  endloop
endfacet
facet normal 0.000000 -0.024299 0.000000
  outer loop
    vertex 68.075050 9.425019 4.900000
    vertex 68.075050 9.425019 5.710000
    vertex 68.045052 9.425019 5.710000
  endloop
endfacet
facet normal 0.000000 -0.010500 0.000000
  outer loop
    vertex 68.075050 9.425019 4.900000
    vertex 68.045052 9.425019 5.710000
    vertex 68.045052 9.425019 5.360000
  endloop
endfacet
facet normal 0.000000 -0.000900 0.000000
  outer loop
    vertex 68.075050 9.425019 4.900000
    vertex 68.045052 9.425019 5.360000
    vertex 68.045052 9.425019 5.330000
  endloop
endfacet
facet normal 0.000000 -0.011700 0.000000
  outer loop
    vertex 68.045052 9.425019 5.330000
    vertex 68.045052 9.425019 5.360000
    vertex 67.655052 9.425019 5.330000
  endloop
endfacet
facet normal -0.000000 -0.012600 0.000000
  outer loop
    vertex 68.045052 9.425019 5.360000
    vertex 67.625053 9.425019 5.360000
    vertex 67.655052 9.425019 5.330000
  endloop
endfacet
facet normal 0.000000 -0.012899 0.000000
  outer loop
    vertex 67.655052 9.425019 4.900000
    vertex 67.655052 9.425019 5.330000
    vertex 67.625053 9.425019 5.360000
  endloop
endfacet
facet normal 0.000000 -0.013799 0.000000
  outer loop
    vertex 67.655052 9.425019 4.900000
    vertex 67.625053 9.425019 5.360000
    vertex 67.625053 9.425019 4.900000
  endloop
endfacet
facet normal 0.000000 -0.012899 0.000000
  outer loop
    vertex 68.075050 9.425019 4.900000
    vertex 68.045052 9.425019 5.330000
    vertex 68.045052 9.425019 4.900000
  endloop
endfacet
facet normal 0.000000 0.000000 -0.000900
  outer loop
    vertex 68.045052 9.425019 4.900000
    vertex 68.045052 9.455019 4.900000
    vertex 68.075050 9.425019 4.900000
  endloop
endfacet
facet normal 0.000000 0.000000 -0.000900
  outer loop
    vertex 68.045052 9.455019 4.900000
    vertex 68.075050 9.455019 4.900000
    vertex 68.075050 9.425019 4.900000
  endloop
endfacet
facet normal -0.012900 0.000000 0.000000
  outer loop
    vertex 68.045052 9.455019 4.900000
    vertex 68.045052 9.425019 4.900000
    vertex 68.045052 9.425019 5.330000
  endloop
endfacet
facet normal -0.012900 0.000000 0.000000
  outer loop
    vertex 68.045052 9.455019 4.900000
    vertex 68.045052 9.425019 5.330000
    vertex 68.045052 9.455019 5.330000
  endloop
endfacet
facet normal 0.000000 0.012899 0.000000
  outer loop
    vertex 68.075050 9.455019 5.330000
    vertex 68.075050 9.455019 4.900000
    vertex 68.045052 9.455019 4.900000
  endloop
endfacet
facet normal 0.000000 0.012899 0.000000
  outer loop
    vertex 68.075050 9.455019 5.330000
    vertex 68.045052 9.455019 4.900000
    vertex 68.045052 9.455019 5.330000
  endloop
endfacet
facet normal 0.000000 0.000000 -0.010200
  outer loop
    vertex 68.075050 9.455019 5.330000
    vertex 68.045052 9.795019 5.330000
    vertex 68.075050 9.795019 5.330000
  endloop
endfacet
facet normal 0.000000 0.000000 -0.132600
  outer loop
    vertex 67.655052 9.795019 5.330000
    vertex 68.045052 9.795019 5.330000
    vertex 68.075050 9.455019 5.330000
  endloop
endfacet
facet normal 0.000000 0.000000 -0.010200
  outer loop
    vertex 67.625053 9.795019 5.330000
    vertex 67.655052 9.795019 5.330000
    vertex 68.075050 9.455019 5.330000
  endloop
endfacet
facet normal 0.000000 0.000000 -0.011700
  outer loop
    vertex 67.655052 9.425019 5.330000
    vertex 67.655052 9.455019 5.330000
    vertex 68.045052 9.425019 5.330000
  endloop
endfacet
facet normal 0.000000 0.000000 -0.011700
  outer loop
    vertex 67.655052 9.455019 5.330000
    vertex 68.045052 9.455019 5.330000
    vertex 68.045052 9.425019 5.330000
  endloop
endfacet
facet normal 0.000000 -0.012899 0.000000
  outer loop
    vertex 68.075050 9.795019 4.900000
    vertex 68.075050 9.795019 5.330000
    vertex 68.045052 9.795019 5.330000
  endloop
endfacet
facet normal 0.000000 -0.012899 0.000000
  outer loop
    vertex 68.075050 9.795019 4.900000
    vertex 68.045052 9.795019 5.330000
    vertex 68.045052 9.795019 4.900000
  endloop
endfacet
facet normal -0.012900 0.000000 0.000000
  outer loop
    vertex 68.045052 9.825019 4.900000
    vertex 68.045052 9.795019 4.900000
    vertex 68.045052 9.795019 5.330000
  endloop
endfacet
facet normal -0.012900 0.000000 0.000000
  outer loop
    vertex 68.045052 9.825019 4.900000
    vertex 68.045052 9.795019 5.330000
    vertex 68.045052 9.825019 5.330000
  endloop
endfacet
facet normal 0.000000 0.012899 0.000000
  outer loop
    vertex 67.655052 9.455019 5.330000
    vertex 67.655052 9.455019 4.900000
    vertex 67.625053 9.455019 4.900000
  endloop
endfacet
facet normal 0.000000 0.012899 0.000000
  outer loop
    vertex 67.655052 9.455019 5.330000
    vertex 67.625053 9.455019 4.900000
    vertex 67.625053 9.455019 5.330000
  endloop
endfacet
facet normal 0.000000 0.000000 -0.000900
  outer loop
    vertex 67.625053 9.425019 4.900000
    vertex 67.625053 9.455019 4.900000
    vertex 67.655052 9.425019 4.900000
  endloop
endfacet
facet normal 0.000000 0.000000 -0.000900
  outer loop
    vertex 67.625053 9.455019 4.900000
    vertex 67.655052 9.455019 4.900000
    vertex 67.655052 9.425019 4.900000
  endloop
endfacet
facet normal -0.013800 0.000000 0.000000
  outer loop
    vertex 67.625053 9.455019 4.900000
    vertex 67.625053 9.425019 4.900000
    vertex 67.625053 9.425019 5.360000
  endloop
endfacet
facet normal -0.012900 0.000000 0.000000
  outer loop
    vertex 67.625053 9.425019 5.360000
    vertex 67.625053 9.455019 5.330000
    vertex 67.625053 9.455019 4.900000
  endloop
endfacet
facet normal -0.010200 0.000000 0.000000
  outer loop
    vertex 67.625053 9.795019 5.330000
    vertex 67.625053 9.455019 5.330000
    vertex 67.625053 9.425019 5.360000
  endloop
endfacet
facet normal -0.012000 -0.000000 0.000000
  outer loop
    vertex 67.625053 9.825019 5.360000
    vertex 67.625053 9.795019 5.330000
    vertex 67.625053 9.425019 5.360000
  endloop
endfacet
facet normal 0.000000 0.000000 0.010200
  outer loop
    vertex 68.075050 9.795019 5.360000
    vertex 68.045052 9.455019 5.360000
    vertex 68.075050 9.455019 5.360000
  endloop
endfacet
facet normal 0.000000 0.000000 0.012600
  outer loop
    vertex 67.625053 9.425019 5.360000
    vertex 68.045052 9.425019 5.360000
    vertex 68.045052 9.455019 5.360000
  endloop
endfacet
facet normal 0.000000 0.000000 0.167999
  outer loop
    vertex 67.625053 9.825019 5.360000
    vertex 67.625053 9.425019 5.360000
    vertex 68.045052 9.455019 5.360000
  endloop
endfacet
facet normal 0.000000 0.000000 0.142799
  outer loop
    vertex 67.625053 9.825019 5.360000
    vertex 68.045052 9.455019 5.360000
    vertex 68.045052 9.795019 5.360000
  endloop
endfacet
facet normal -0.000000 0.000000 0.010200
  outer loop
    vertex 68.045052 9.795019 5.360000
    vertex 68.045052 9.455019 5.360000
    vertex 68.075050 9.795019 5.360000
  endloop
endfacet
facet normal -0.000000 0.000000 0.012600
  outer loop
    vertex 67.625053 9.825019 5.360000
    vertex 68.045052 9.795019 5.360000
    vertex 68.045052 9.825019 5.360000
  endloop
endfacet
facet normal 0.000000 0.000000 0.000900
  outer loop
    vertex 68.045052 9.425019 5.710000
    vertex 68.075050 9.425019 5.710000
    vertex 68.075050 9.455019 5.710000
  endloop
endfacet
facet normal 0.000000 0.000000 0.000900
  outer loop
    vertex 68.045052 9.425019 5.710000
    vertex 68.075050 9.455019 5.710000
    vertex 68.045052 9.455019 5.710000
  endloop
endfacet
facet normal 0.000000 0.004196 0.000000
  outer loop
    vertex 68.075050 9.455019 5.499868
    vertex 68.075050 9.455019 5.360000
    vertex 68.045052 9.455019 5.360000
  endloop
endfacet
facet normal -0.000000 0.004196 0.000000
  outer loop
    vertex 68.045052 9.455019 5.499868
    vertex 68.075050 9.455019 5.499868
    vertex 68.045052 9.455019 5.360000
  endloop
endfacet
facet normal -0.010500 0.000000 0.000000
  outer loop
    vertex 68.045052 9.455019 5.360000
    vertex 68.045052 9.425019 5.360000
    vertex 68.045052 9.425019 5.710000
  endloop
endfacet
facet normal -0.004196 0.000000 0.000000
  outer loop
    vertex 68.045052 9.455019 5.360000
    vertex 68.045052 9.425019 5.710000
    vertex 68.045052 9.455019 5.499868
  endloop
endfacet
facet normal -0.006304 -0.000000 -0.000000
  outer loop
    vertex 68.045052 9.455019 5.710000
    vertex 68.045052 9.455019 5.499868
    vertex 68.045052 9.425019 5.710000
  endloop
endfacet
facet normal 0.000000 0.000000 0.000900
  outer loop
    vertex 68.045052 9.795019 5.710000
    vertex 68.075050 9.795019 5.710000
    vertex 68.075050 9.825019 5.710000
  endloop
endfacet
facet normal -0.000000 0.000000 0.000900
  outer loop
    vertex 68.045052 9.825019 5.710000
    vertex 68.045052 9.795019 5.710000
    vertex 68.075050 9.825019 5.710000
  endloop
endfacet
facet normal -0.004196 0.000000 0.000000
  outer loop
    vertex 68.045052 9.825019 5.360000
    vertex 68.045052 9.795019 5.360000
    vertex 68.045052 9.795019 5.499868
  endloop
endfacet
facet normal -0.010500 0.000000 -0.000000
  outer loop
    vertex 68.045052 9.825019 5.710000
    vertex 68.045052 9.825019 5.360000
    vertex 68.045052 9.795019 5.499868
  endloop
endfacet
facet normal -0.006304 0.000000 0.000000
  outer loop
    vertex 68.045052 9.795019 5.499868
    vertex 68.045052 9.795019 5.710000
    vertex 68.045052 9.825019 5.710000
  endloop
endfacet
facet normal -0.000000 -0.004196 -0.000000
  outer loop
    vertex 68.075050 9.795019 5.499868
    vertex 68.045052 9.795019 5.499868
    vertex 68.075050 9.795019 5.360000
  endloop
endfacet
facet normal 0.000000 -0.004196 0.000000
  outer loop
    vertex 68.045052 9.795019 5.499868
    vertex 68.045052 9.795019 5.360000
    vertex 68.075050 9.795019 5.360000
  endloop
endfacet
facet normal 0.000000 -0.006304 -0.000000
  outer loop
    vertex 68.075050 9.455019 5.710000
    vertex 68.045052 9.455019 5.499868
    vertex 68.075050 9.455019 5.499868
  endloop
endfacet
facet normal 0.000000 -0.006304 0.000000
  outer loop
    vertex 68.045052 9.455019 5.710000
    vertex 68.045052 9.455019 5.499868
    vertex 68.075050 9.455019 5.710000
  endloop
endfacet
facet normal 0.000000 0.000000 -0.010200
  outer loop
    vertex 68.045052 9.455019 5.499868
    vertex 68.045052 9.795019 5.499868
    vertex 68.075050 9.455019 5.499868
  endloop
endfacet
facet normal 0.000000 0.000000 -0.010200
  outer loop
    vertex 68.075050 9.455019 5.499868
    vertex 68.045052 9.795019 5.499868
    vertex 68.075050 9.795019 5.499868
  endloop
endfacet
facet normal 0.000000 0.006304 -0.000000
  outer loop
    vertex 68.075050 9.795019 5.499868
    vertex 68.045052 9.795019 5.710000
    vertex 68.075050 9.795019 5.710000
  endloop
endfacet
facet normal 0.000000 0.006304 0.000000
  outer loop
    vertex 68.075050 9.795019 5.499868
    vertex 68.045052 9.795019 5.499868
    vertex 68.045052 9.795019 5.710000
  endloop
endfacet
facet normal 0.000000 0.000000 -0.000900
  outer loop
    vertex 67.625053 9.795019 4.900000
    vertex 67.625053 9.825019 4.900000
    vertex 67.655052 9.795019 4.900000
  endloop
endfacet
facet normal 0.000000 0.000000 -0.000900
  outer loop
    vertex 67.655052 9.795019 4.900000
    vertex 67.625053 9.825019 4.900000
    vertex 67.655052 9.825019 4.900000
  endloop
endfacet
facet normal 0.000000 0.012899 -0.000000
  outer loop
    vertex 67.655052 9.795019 4.900000
    vertex 67.625053 9.795019 5.330000
    vertex 67.655052 9.795019 5.330000
  endloop
endfacet
facet normal 0.000000 0.012899 0.000000
  outer loop
    vertex 67.655052 9.795019 4.900000
    vertex 67.625053 9.795019 4.900000
    vertex 67.625053 9.795019 5.330000
  endloop
endfacet
facet normal 0.012900 0.000000 -0.000000
  outer loop
    vertex 67.655052 9.825019 4.900000
    vertex 67.655052 9.825019 5.330000
    vertex 67.655052 9.795019 4.900000
  endloop
endfacet
facet normal 0.012900 0.000000 0.000000
  outer loop
    vertex 67.655052 9.795019 4.900000
    vertex 67.655052 9.825019 5.330000
    vertex 67.655052 9.795019 5.330000
  endloop
endfacet
endsolid furniture_Tab0_Chair0
