solid inlet_0_box
facet normal 0.000000 0.000000 0.141604
  outer loop
    vertex 67.099960 9.896025 7.116576
    vertex 65.899948 9.778023 7.116576
    vertex 67.099960 9.778023 7.116576
  endloop
endfacet
facet normal 0.000000 0.000000 0.141604
  outer loop
    vertex 67.099960 9.896025 7.116576
    vertex 65.899948 9.896025 7.116576
    vertex 65.899948 9.778023 7.116576
  endloop
endfacet
facet normal 0.000000 -0.259895 0.000000
  outer loop
    vertex 67.099960 9.778023 6.899999
    vertex 67.099960 9.778023 7.116576
    vertex 65.899948 9.778023 7.116576
  endloop
endfacet
facet normal 0.000000 -0.259895 0.000000
  outer loop
    vertex 67.099960 9.778023 6.899999
    vertex 65.899948 9.778023 7.116576
    vertex 65.899948 9.778023 6.899999
  endloop
endfacet
facet normal 0.000000 -0.259895 0.000000
  outer loop
    vertex 67.099960 9.896025 6.899999
    vertex 67.099960 9.896025 7.116576
    vertex 65.899948 9.896025 7.116576
  endloop
endfacet
facet normal 0.000000 -0.259895 0.000000
  outer loop
    vertex 67.099960 9.896025 6.899999
    vertex 65.899948 9.896025 7.116576
    vertex 65.899948 9.896025 6.899999
  endloop
endfacet
facet normal -0.025557 0.000000 0.000000
  outer loop
    vertex 65.899948 9.778023 6.899999
    vertex 65.899948 9.778023 7.116576
    vertex 65.899948 9.896025 7.116576
  endloop
endfacet
facet normal -0.025557 0.000000 0.000000
  outer loop
    vertex 65.899948 9.778023 6.899999
    vertex 65.899948 9.896025 7.116576
    vertex 65.899948 9.896025 6.899999
  endloop
endfacet
facet normal -0.025557 0.000000 0.000000
  outer loop
    vertex 67.099960 9.778023 6.899999
    vertex 67.099960 9.778023 7.116576
    vertex 67.099960 9.896025 7.116576
  endloop
endfacet
facet normal -0.025557 0.000000 0.000000
  outer loop
    vertex 67.099960 9.778023 6.899999
    vertex 67.099960 9.896025 7.116576
    vertex 67.099960 9.896025 6.899999
  endloop
endfacet
endsolid inlet_0_box
