solid inlet_box
facet normal 0.000000 0.061589 0.000000
  outer loop
    vertex 64.416153 10.025820 6.595919
    vertex 64.416153 10.025820 6.390000
    vertex 64.117058 10.025820 6.390000
  endloop
endfacet
facet normal 0.000000 0.061589 0.000000
  outer loop
    vertex 64.416153 10.025820 6.595919
    vertex 64.117058 10.025820 6.390000
    vertex 64.117058 10.025820 6.595919
  endloop
endfacet
facet normal -0.061590 0.000000 0.000000
  outer loop
    vertex 64.117058 9.726722 6.390000
    vertex 64.117058 10.025820 6.595919
    vertex 64.117058 10.025820 6.390000
  endloop
endfacet
facet normal -0.061590 0.000000 0.000000
  outer loop
    vertex 64.117058 9.726722 6.390000
    vertex 64.117058 9.726722 6.595919
    vertex 64.117058 10.025820 6.595919
  endloop
endfacet
facet normal 0.000000 -0.061589 0.000000
  outer loop
    vertex 64.416153 9.726722 6.390000
    vertex 64.117058 9.726722 6.595919
    vertex 64.117058 9.726722 6.390000
  endloop
endfacet
facet normal 0.000000 -0.061589 0.000000
  outer loop
    vertex 64.416153 9.726722 6.390000
    vertex 64.416153 9.726722 6.595919
    vertex 64.117058 9.726722 6.595919
  endloop
endfacet
facet normal 0.061590 0.000000 0.000000
  outer loop
    vertex 64.416153 9.726722 6.595919
    vertex 64.416153 9.726722 6.390000
    vertex 64.416153 10.025820 6.390000
  endloop
endfacet
facet normal 0.061590 -0.000000 0.000000
  outer loop
    vertex 64.416153 9.726722 6.595919
    vertex 64.416153 10.025820 6.390000
    vertex 64.416153 10.025820 6.595919
  endloop
endfacet
endsolid inlet_box
