solid inlet_0_diffuser
facet normal 0.000000 -0.000000 0.000118
  outer loop
    vertex 65.909950 9.842924 6.900000
    vertex 65.899948 9.778023 6.899999
    vertex 65.909950 9.831124 6.899999
  endloop
endfacet
facet normal -0.000000 0.000000 0.001180
  outer loop
    vertex 65.899948 9.896025 6.899999
    vertex 65.899948 9.778023 6.899999
    vertex 65.909950 9.842924 6.900000
  endloop
endfacet
facet normal 0.000000 0.000000 0.063722
  outer loop
    vertex 67.099960 9.778023 6.899999
    vertex 65.909950 9.831124 6.899999
    vertex 65.899948 9.778023 6.899999
  endloop
endfacet
facet normal 0.000000 0.000000 0.062660
  outer loop
    vertex 67.089958 9.831124 6.899999
    vertex 65.909950 9.831124 6.899999
    vertex 67.099960 9.778023 6.899999
  endloop
endfacet
facet normal 0.000000 0.000001 0.062659
  outer loop
    vertex 67.089958 9.842924 6.900000
    vertex 65.899948 9.896025 6.899999
    vertex 65.909950 9.842924 6.900000
  endloop
endfacet
facet normal 0.000000 -0.000000 0.000118
  outer loop
    vertex 67.099960 9.896025 6.899999
    vertex 67.089958 9.842924 6.900000
    vertex 67.089958 9.831124 6.899999
  endloop
endfacet
facet normal 0.000000 0.000000 0.001180
  outer loop
    vertex 67.099960 9.896025 6.899999
    vertex 67.089958 9.831124 6.899999
    vertex 67.099960 9.778023 6.899999
  endloop
endfacet
facet normal 0.000000 0.000001 0.063721
  outer loop
    vertex 67.099960 9.896025 6.899999
    vertex 65.899948 9.896025 6.899999
    vertex 67.089958 9.842924 6.900000
  endloop
endfacet
endsolid inlet_0_diffuser
