solid outlet_box
facet normal 0.000000 0.061589 0.000000
  outer loop
    vertex 64.416153 10.025820 8.595919
    vertex 64.416153 10.025820 8.390000
    vertex 64.117058 10.025820 8.390000
  endloop
endfacet
facet normal 0.000000 0.061589 0.000000
  outer loop
    vertex 64.416153 10.025820 8.595919
    vertex 64.117058 10.025820 8.390000
    vertex 64.117058 10.025820 8.595919
  endloop
endfacet
facet normal -0.061590 0.000000 0.000000
  outer loop
    vertex 64.117058 9.726722 8.390000
    vertex 64.117058 10.025820 8.595919
    vertex 64.117058 10.025820 8.390000
  endloop
endfacet
facet normal -0.061590 0.000000 0.000000
  outer loop
    vertex 64.117058 9.726722 8.390000
    vertex 64.117058 9.726722 8.595919
    vertex 64.117058 10.025820 8.595919
  endloop
endfacet
facet normal 0.000000 -0.061589 0.000000
  outer loop
    vertex 64.416153 9.726722 8.390000
    vertex 64.117058 9.726722 8.595919
    vertex 64.117058 9.726722 8.390000
  endloop
endfacet
facet normal 0.000000 -0.061589 0.000000
  outer loop
    vertex 64.416153 9.726722 8.390000
    vertex 64.416153 9.726722 8.595919
    vertex 64.117058 9.726722 8.595919
  endloop
endfacet
facet normal 0.061590 0.000000 0.000000
  outer loop
    vertex 64.416153 9.726722 8.595919
    vertex 64.416153 9.726722 8.390000
    vertex 64.416153 10.025820 8.390000
  endloop
endfacet
facet normal 0.061590 -0.000000 0.000000
  outer loop
    vertex 64.416153 9.726722 8.595919
    vertex 64.416153 10.025820 8.390000
    vertex 64.416153 10.025820 8.595919
  endloop
endfacet
endsolid outlet_box
